<svg xmlns="http://www.w3.org/2000/svg" width="22.547" height="22.547" viewBox="0 0 22.547 22.547">
  <path id="checkmark-circle" d="M14.648,3.375A11.273,11.273,0,1,0,25.922,14.648,11.272,11.272,0,0,0,14.648,3.375Zm5.772,8.157-7.246,7.279h-.005a.979.979,0,0,1-.629.3.949.949,0,0,1-.634-.309L8.871,15.765a.216.216,0,0,1,0-.309l.965-.965a.21.21,0,0,1,.3,0L12.546,16.9l6.612-6.661a.214.214,0,0,1,.152-.065h0a.2.2,0,0,1,.152.065l.948.981A.214.214,0,0,1,20.421,11.532Z" transform="translate(-3.375 -3.375)" fill="#0af"/>
</svg>
