<svg xmlns="http://www.w3.org/2000/svg" width="7.778" height="7.778" viewBox="0 0 7.778 7.778">
  <path id="checkmark-circle" d="M7.264,3.375a3.889,3.889,0,1,0,3.889,3.889A3.888,3.888,0,0,0,7.264,3.375ZM9.255,6.189,6.755,8.7h0a.338.338,0,0,1-.217.1A.327.327,0,0,1,6.318,8.7L5.271,7.649a.074.074,0,0,1,0-.107L5.6,7.21a.072.072,0,0,1,.1,0l.83.83,2.281-2.3a.074.074,0,0,1,.052-.022h0a.068.068,0,0,1,.052.022l.327.338A.074.074,0,0,1,9.255,6.189Z" transform="translate(-3.375 -3.375)" fill="#0af"/>
</svg>
