<svg xmlns="http://www.w3.org/2000/svg" width="22.547" height="22.547" viewBox="0 0 22.547 22.547">
  <g id="checkmark-circle" transform="translate(-3.375 -3.375)" fill="#fff">
    <path d="M 14.64848232269287 25.42196273803711 C 11.77013206481934 25.42196273803711 9.064492225646973 24.3015022277832 7.029982089996338 22.26699256896973 C 4.995462417602539 20.23247146606445 3.875002384185791 17.52683258056641 3.875002384185791 14.64848232269287 C 3.875002384185791 11.77013206481934 4.995462417602539 9.064502716064453 7.029982089996338 7.029982089996338 C 9.064502716064453 4.995462417602539 11.77013206481934 3.875002384185791 14.64848232269287 3.875002384185791 C 17.52683258056641 3.875002384185791 20.23247146606445 4.995462417602539 22.26699256896973 7.029982089996338 C 24.3015022277832 9.064492225646973 25.42196273803711 11.77013206481934 25.42196273803711 14.64848232269287 C 25.42196273803711 17.52683258056641 24.3015022277832 20.23247146606445 22.26699256896973 22.26699256896973 C 20.23247146606445 24.3015022277832 17.52683258056641 25.42196273803711 14.64848232269287 25.42196273803711 Z" stroke="none"/>
    <path d="M 14.64848232269287 4.375001907348633 C 11.9036922454834 4.375001907348633 9.323612213134766 5.443452835083008 7.38353157043457 7.38353157043457 C 5.443452835083008 9.323612213134766 4.375001907348633 11.9036922454834 4.375001907348633 14.64848232269287 C 4.375001907348633 17.39328193664551 5.443452835083008 19.97335243225098 7.38353157043457 21.91343307495117 C 9.323612213134766 23.85351181030273 11.9036922454834 24.92196273803711 14.64848232269287 24.92196273803711 C 17.39328193664551 24.92196273803711 19.97336196899414 23.85351181030273 21.91343307495117 21.91343307495117 C 23.85351181030273 19.97336196899414 24.92196273803711 17.39328193664551 24.92196273803711 14.64848232269287 C 24.92196273803711 11.9036922454834 23.85351181030273 9.323612213134766 21.91343307495117 7.38353157043457 C 19.97335243225098 5.443452835083008 17.39328193664551 4.375001907348633 14.64848232269287 4.375001907348633 M 14.64848232269287 3.375001907348633 C 20.87600326538086 3.375001907348633 25.92196273803711 8.42097282409668 25.92196273803711 14.64848232269287 C 25.92196273803711 20.87600326538086 20.87600326538086 25.92196273803711 14.64848232269287 25.92196273803711 C 8.42097282409668 25.92196273803711 3.375001907348633 20.87600326538086 3.375001907348633 14.64848232269287 C 3.375001907348633 8.42097282409668 8.42097282409668 3.375001907348633 14.64848232269287 3.375001907348633 Z" stroke="none" fill="#b9c4d0"/>
  </g>
</svg>
