<svg xmlns="http://www.w3.org/2000/svg" xmlns:xlink="http://www.w3.org/1999/xlink" width="341" height="151" viewBox="0 0 341 151">
  <defs>
    <linearGradient id="linear-gradient" x1="0.991" y1="-0.025" x2="0.022" y2="1" gradientUnits="objectBoundingBox">
      <stop offset="0" stop-color="#8841c4"/>
      <stop offset="0.538" stop-color="#440771"/>
      <stop offset="1" stop-color="#22042c"/>
    </linearGradient>
    <clipPath id="clip-path">
      <rect id="Rectangle_3517" data-name="Rectangle 3517" width="123" height="124" fill="#ffb688"/>
    </clipPath>
    <clipPath id="clip-path-2">
      <rect id="Rectangle_3518" data-name="Rectangle 3518" width="132" height="86.972" fill="#fd9feb"/>
    </clipPath>
    <linearGradient id="linear-gradient-2" x1="1" y1="0.062" x2="0" y2="0.95" gradientUnits="objectBoundingBox">
      <stop offset="0" stop-color="#ffedfd"/>
      <stop offset="1" stop-color="#fc9bf4"/>
    </linearGradient>
    <filter id="Union_13" x="15.502" y="20.309" width="171.094" height="97.389" filterUnits="userSpaceOnUse">
      <feOffset input="SourceAlpha"/>
      <feGaussianBlur stdDeviation="3" result="blur"/>
      <feFlood flood-color="#e1a8ff"/>
      <feComposite operator="in" in2="blur"/>
      <feComposite in="SourceGraphic"/>
    </filter>
  </defs>
  <g id="Group_8906" data-name="Group 8906" transform="translate(-862.5 -1765.5)">
    <path id="Path_73814" data-name="Path 73814" d="M330.313,0H9.687C4.337,0,0,5.127,0,11.45v127.1C0,144.873,4.337,150,9.687,150H330.313c5.35,0,9.687-5.127,9.687-11.45V11.45C340,5.127,335.663,0,330.313,0Z" transform="translate(863 1766)" stroke="rgba(0,0,0,0)" stroke-width="1" fill="url(#linear-gradient)"/>
    <circle id="Ellipse_81" data-name="Ellipse 81" cx="61.5" cy="61.5" r="61.5" transform="translate(1052 1785)" fill="#b553fd" opacity="0.343"/>
    <g id="Group_8898" data-name="Group 8898" transform="translate(1052 1785)" opacity="0.029" style="mix-blend-mode: normal;isolation: isolate">
      <g id="Group_8897" data-name="Group 8897">
        <g id="Group_8896" data-name="Group 8896" clip-path="url(#clip-path)">
          <path id="Path_73846" data-name="Path 73846" d="M89.5,0C55.534,0,28,27.759,28,62s27.534,62,61.5,62S151,96.243,151,62,123.466,0,89.5,0" transform="translate(-28 0)" fill="#e36a1d"/>
        </g>
      </g>
    </g>
    <g id="Group_8901" data-name="Group 8901" transform="translate(1071 1829)" opacity="0.15" style="mix-blend-mode: normal;isolation: isolate">
      <g id="Group_8900" data-name="Group 8900">
        <g id="Group_8899" data-name="Group 8899" clip-path="url(#clip-path-2)">
          <path id="Path_73847" data-name="Path 73847" d="M3.647,130.973A64.915,64.915,0,0,1,0,109.5C0,73.326,29.549,44,66,44s66,29.326,66,65.5a64.916,64.916,0,0,1-3.648,21.473Z" transform="translate(0 -44)" fill="#fd9feb" opacity="0.437"/>
        </g>
      </g>
    </g>
    <path id="Path_73848" data-name="Path 73848" d="M105.833,130.973H67.872L68.1,31.431A11.729,11.729,0,0,1,79.827,19.7h5.092A34.243,34.243,0,0,1,119.16,53.947l-1.436,76.989Z" transform="translate(1015.968 1785)" fill="#fff"/>
    <path id="Path_73849" data-name="Path 73849" d="M79.459,130.938h30.775V110.1c-7.839-1.792-27.622-7.239-28.207-1.833-.107.968,1.745,19.245-2.562,22.676" transform="translate(1013.307 1785)" fill="#6773ff"/>
    <path id="Path_73850" data-name="Path 73850" d="M102.716,130.937h5.426c-2.266-4.458-1.4-24.691-1.975-23.8v-3.851c-2.677.107-17.345-1.479-23.8-1.451-3.786.018-4.642,7.664-4.89,7.811,12.5,2.5,9.606,18.245,25.242,21.293" transform="translate(1017.381 1785)" fill="#5a98fc"/>
    <path id="Path_73851" data-name="Path 73851" d="M132.825,82.635c-2.708-5.123-8.112-4.916-6.235-16.563.791-4.91,1.441-16.744-3.481-20.568a29.719,29.719,0,0,0-10.933-7.281c-.7-.289-1.394-.6-2.074-.928-3.024-1.469-4.138-3.85-3.457-7.16a41.836,41.836,0,0,0,.679-4.483c.051-.534.076-1.067.089-1.59,0-.137,0-.272.005-.407,0-.494,0-.984-.035-1.464,0-.059-.009-.116-.013-.175-.032-.45-.083-.887-.144-1.331-.023-.164-.048-.333-.075-.49-.062-.369-.134-.735-.213-1.1-.048-.213-.1-.413-.153-.618-.08-.3-.164-.6-.258-.887-.072-.213-.142-.423-.213-.627s-.164-.427-.251-.64q-.235-.574-.508-1.12c-.069-.139-.138-.28-.213-.416-.136-.252-.275-.5-.421-.747-.047-.077-.1-.151-.144-.222a16.509,16.509,0,0,0-1.018-1.447c-.025-.03-.047-.062-.073-.092a16.264,16.264,0,0,0-2.135-2.2,18.615,18.615,0,0,0-7.863-3.895,23.414,23.414,0,0,0-12.529.6,2.942,2.942,0,0,1-2.775-.377C58.719,2.739,55.847,26.739,57.357,31.359c.074.222.148.45.222.678,1.858,5.756,1.894,11.337-1.674,16.331-27.547,38.564,3.9,61.188,3.949,61.178.021-2-.016-25.041.058-32.574.006-.741.016-1.441.025-2.089V74.75c0-.258.007-.508.012-.747v-.26c0-.188.007-.37.011-.543,0-.1,0-.191.006-.282,0-.153.007-.3.011-.444,0-.088,0-.173.007-.255,0-.136.009-.26.013-.382a1.908,1.908,0,0,1,.007-.2c0-.122.01-.228.016-.333a1.006,1.006,0,0,1,.007-.145c.007-.138.017-.258.025-.353.724-7.821,4.207-12.113,11.3-13.651A7.9,7.9,0,0,1,74.5,55.767a10.12,10.12,0,0,0,5.86-6.1c.268-.809.711-1.7-.711-2.034-5.2-1.22-7.578-4.835-8.295-9.858a33.584,33.584,0,0,1,.469-13.883c.222-.819,2.264,3.435,12.034,2.52a6.729,6.729,0,0,1,5.981,5.722c.178.81.162,1.815,1.565,1.271a1.219,1.219,0,0,1,1.494.854v.015a2.5,2.5,0,0,1-.64,2.963c-1.663,1.109-1.469,2.55-1.419,4.13a42.716,42.716,0,0,1-.282,5.094c-.382,4.407,1.892,7.415,5.583,9.516l3.923,1.552c4.837.887,8.1,3.522,9.547,8.334,2.123,7.085-.076,58.083-.012,65.07h2.3c19.544-5.123,8.36-24.728,12.972-33.8,1.312-2.581,5.86-3.933,8.072-.247,0,0,3.318-7.743-.123-14.257" transform="translate(1024.024 1785)" fill="#1b132c"/>
    <path id="Path_73852" data-name="Path 73852" d="M105.336,55.972l3.923,1.55c-1.873,4.435-2.94,8.981-1.552,13.755.717,2.47,2.17,4.679,2.626,7.273a20.164,20.164,0,0,1-.035,7.882c-1.509,6.911-1.281,22.2-1.332,23.362-9.614-9.713-25.622,4.639-31.522-1.445,2.581-.092,7.558-10.6,1.585-22.812a17.856,17.856,0,0,1,1.2-11.955c2.314-5.4,2.077-10.928.31-16.445a7.9,7.9,0,0,1,3.146-1.388c-.187,5.4,4.781,10.775,11.719,10.283,5.211-.368,9.82-4.84,9.927-10.064" transform="translate(1014.851 1785)" fill="#ffc05a"/>
    <rect id="Rectangle_3519" data-name="Rectangle 3519" width="151" height="130.973" transform="translate(1052 1785)" fill="none"/>
    <rect id="Rectangle_3520" data-name="Rectangle 3520" width="151" height="130.973" transform="translate(1052 1785)" fill="none"/>
    <g id="Group_9265" data-name="Group 9265" transform="translate(887.002 1794.809)">
      <text id="Special_Instant_20_off_for_all_services" data-name="Special Instant
20% off for all services" transform="translate(150.52 65.383)" fill="#f5a3fc" font-size="11" font-family="SegoeUI, Segoe UI"><tspan x="-70" y="0">Special Instant</tspan><tspan font-size="14" font-family="SegoeUI-Bold, Segoe UI" font-weight="700"><tspan x="-115" y="12">20%</tspan><tspan y="12" xml:space="preserve" font-size="11" font-family="SegoeUI, Segoe UI" font-weight="400"> off for all services</tspan></tspan></text>
      <text id="Lorem_ipsum_dolor_sit_amet_consetetur" data-name="Lorem ipsum dolor sit amet consetetur" transform="translate(150.52 91.383)" fill="#f5a3fc" font-size="7" font-family="SegoeUI, Segoe UI"><tspan x="-119" y="0">Lorem ipsum dolor sit amet consetetur</tspan></text>
      <g transform="matrix(1, 0, 0, 1, -24.5, -29.31)" filter="url(#Union_13)">
        <path id="Union_13-2" data-name="Union 13" d="M9.494,79.348a.656.656,0,0,1-.584-.623,1.433,1.433,0,0,1,.016-.174L16.6,29.266q-2.812.5-5.557,1.039a.8.8,0,0,1-.184.016.648.648,0,0,1-.646-.543.8.8,0,0,1-.049-.256v-.057c0-.238.16-.391.463-.455,2.045-.4,4.1-.773,6.172-1.141l.1-.672.246-1.629.248-1.629q.322-2.024.479-3.258a50.622,50.622,0,0,0,.512-6.564l-.023-.559v-.574c0-.455-.008-.871-.033-1.254a18.218,18.218,0,0,0-.279-2.6,7.214,7.214,0,0,0-2.187-4.391,3.672,3.672,0,0,0-2.4-.807,7.2,7.2,0,0,0-2.33.447A12.533,12.533,0,0,0,5.412,8.568a18.574,18.574,0,0,0-3.24,6.42,20.051,20.051,0,0,0-.84,5.742c0,.35.008.709.033,1.068l.031.5v.047a.5.5,0,0,1-.184.4.581.581,0,0,1-.424.16.737.737,0,0,1-.479-.16.745.745,0,0,1-.248-.479l-.031-.545C.008,21.336,0,20.953,0,20.57a21.827,21.827,0,0,1,1.365-7.586,17.02,17.02,0,0,1,5.2-7.555,13.226,13.226,0,0,1,4.807-2.586,7.927,7.927,0,0,1,2.037-.3,4.962,4.962,0,0,1,3.227,1.135,7.894,7.894,0,0,1,2.418,4.152,19.909,19.909,0,0,1,.592,4.176l.031.592c.016.311.016.631.016.973a75.418,75.418,0,0,1-.918,10.086L18.2,27.637c1.764-.287,3.545-.574,5.334-.838q.694-8.338,1.182-16.682a.6.6,0,0,1,.248-.479.724.724,0,0,1,.463-.16.673.673,0,0,1,.455.16.584.584,0,0,1,.184.4v.08q-.492,8.288-1.174,16.568a.73.73,0,0,1,.543.664v.111a.471.471,0,0,1-.439.5l-.215.016q-.624,7.233-1.381,14.4c-.049.328-.209.5-.48.5a1.144,1.144,0,0,1-.264-.041.683.683,0,0,1-.59-.654V42q.753-6.876,1.35-13.83c-1.82.271-3.635.559-5.43.871l-7.73,49.865c-.064.32-.223.48-.494.48A1.047,1.047,0,0,1,9.494,79.348ZM62.979,54.395a4.283,4.283,0,0,1-.84-2.619,6.066,6.066,0,0,1,.1-1.029,11.289,11.289,0,0,1,1.383-3.609A55.308,55.308,0,0,1,68,40.508q2.385-3.138,4.672-5.693c.031-.727.047-1.453.047-2.187s-.016-1.5-.047-2.268a22.25,22.25,0,0,1-.791,2.084c-.176.408-.336.75-.471,1.023a7.355,7.355,0,0,1-.615.988,3.326,3.326,0,0,1-1.771,1.35,1.505,1.505,0,0,1-.4.064c-.758,0-1.133-.734-1.133-2.2,0-.375.023-.791.063-1.238A21.924,21.924,0,0,1,68,29.756l-.027,0c-.295.08-.566.145-.807.2-.639.168-1.2.326-1.693.494-.135.359-.287.734-.463,1.119l-.184.4-.191.406c-.16.313-.295.592-.432.84a10.939,10.939,0,0,1-1.055,1.645,3.737,3.737,0,0,1-2.914,1.645,2.253,2.253,0,0,1-.238-.016.616.616,0,0,1-.447-.2.562.562,0,0,1-.576-.607v-.031l.016-.279c-.35,1.684-.654,3.385-.91,5.086-.039.328-.2.486-.471.486a1.069,1.069,0,0,1-.248-.031.675.675,0,0,1-.574-.687.4.4,0,0,1,.016-.135v-.031c.48-9.328,2.771-30.105,3.338-39.424a.623.623,0,0,1,.256-.471A.669.669,0,0,1,60.846,0a.636.636,0,0,1,.447.168.541.541,0,0,1,.184.424V.639c-.391,6.3-2.523,24.107-2.875,30.5.168-.5.336-.975.5-1.43a10.614,10.614,0,0,1,1.924-3.273,4.644,4.644,0,0,1,3.258-1.709h.057a1.339,1.339,0,0,1,1.2.887,3.957,3.957,0,0,1,.295.807,5.1,5.1,0,0,1,.137.758c.008.168.016.328.016.494a7.289,7.289,0,0,1-.119,1.279c.652-.187,1.475-.4,2.461-.637a2.569,2.569,0,0,1,.109-.346,1.416,1.416,0,0,1,.064-.279.616.616,0,0,1,.342-.416.7.7,0,0,1,.281-.064.583.583,0,0,1,.2.033.709.709,0,0,1,.391.279.536.536,0,0,1,.1.326.835.835,0,0,1-.023.2,24.594,24.594,0,0,0-.863,4.191l-.047.479-.049.5a6.143,6.143,0,0,0-.031.623c0,.119.008.23.016.334.008.129.057.191.129.191.1,0,.238-.086.414-.279a3.074,3.074,0,0,0,.344-.406,1.58,1.58,0,0,1,.135-.168l.033-.064.016-.031a15.63,15.63,0,0,0,1.445-3.193c.145-.439.311-1.008.512-1.693l.246-.855.264-.838a.561.561,0,0,1,.359-.414.715.715,0,0,1,.359-.1.862.862,0,0,1,.3.064.655.655,0,0,1,.406.576c.184,2.1.279,4.1.279,6.035v.32a56.966,56.966,0,0,1,5.039-4.711.666.666,0,0,1,.424-.16H79.6a.732.732,0,0,1,.455.223.663.663,0,0,1,.2.432.563.563,0,0,1-.232.439,60.5,60.5,0,0,0-6.02,5.781,43.448,43.448,0,0,1-1.693,10.58c-.52,1.717-.982,3.066-1.381,4.033a14.5,14.5,0,0,1-2.109,3.682,5.15,5.15,0,0,1-2.842,1.893,3.676,3.676,0,0,1-.8.1A2.679,2.679,0,0,1,62.979,54.395Zm7.393-14.789a63.591,63.591,0,0,0-4.326,6.07l-.217.342-.23.344-.465.742c-.35.584-.631,1.1-.854,1.551a6.8,6.8,0,0,0-.822,2.961c0,.113.008.217.016.328a2.511,2.511,0,0,0,1.1,2.076,1.686,1.686,0,0,0,.895.264,2.315,2.315,0,0,0,1.365-.543,8.088,8.088,0,0,0,2.172-2.932,34.546,34.546,0,0,0,2.611-7.537,44.88,44.88,0,0,0,.926-6.3C71.826,37.8,71.107,38.68,70.371,39.605Zm-10.02-4.447a3.189,3.189,0,0,0,2.092-1.492,12.635,12.635,0,0,0,1.365-2.572Q60.694,32.556,60.352,35.158Zm2.793-8.7a4.686,4.686,0,0,0-1.133.895,8.744,8.744,0,0,0-1.678,2.891c-.176.463-.342,1-.51,1.613l-.217.822-.2.807-.008.127q1.043-2.66,5-4.16a6.075,6.075,0,0,0,.279-1.693,3.337,3.337,0,0,0-.184-1.133.562.562,0,0,0-.559-.463A1.687,1.687,0,0,0,63.145,26.455Zm20,17.791a4.566,4.566,0,0,1-1.662-.719,2.516,2.516,0,0,1-1.037-1.469,3.988,3.988,0,0,1-.064-.687,4.945,4.945,0,0,1,1.07-2.668c3.311-4.916,11.363-8.182,15.8-9.758a11.627,11.627,0,0,0-.777-1.324A13.664,13.664,0,0,0,93.3,24.914a43.726,43.726,0,0,0-4.486-2.324l-1.135-.527-1.158-.535c-.861-.422-1.605-.8-2.234-1.141-.369-.209-.672-.375-.9-.512-.336-.191-.648-.375-.92-.543a11.5,11.5,0,0,1-1.717-1.309A4.819,4.819,0,0,1,79.043,14.5v-.184q.144-3.917,4.248-7.107a16.168,16.168,0,0,1,7.578-3.227,23.078,23.078,0,0,1,3.77-.311A25.389,25.389,0,0,1,99.2,4.1a14.91,14.91,0,0,1,4,1.35,6.56,6.56,0,0,1,2.883,2.963,7.358,7.358,0,0,1,.295,2.619A15.02,15.02,0,0,1,105,15.408c.582-.408,1.172-.8,1.764-1.178a72.976,72.976,0,0,1,22.67-9.375c7.467-1.75,15.906-2.684,23.244.088.744.279.416,1.484-.326,1.2a30.236,30.236,0,0,0-12.074-1.613,67.555,67.555,0,0,0-23.979,6.045,63.8,63.8,0,0,0-9.7,5.254,36.867,36.867,0,0,0-3.432,2.557,15.215,15.215,0,0,1-2.531,2.59c-.105.137-.211.273-.312.412-.471.639-1.549.016-1.078-.631a20.792,20.792,0,0,1,3.379-3.531,17.711,17.711,0,0,0,2.441-7.049,2.864,2.864,0,0,0-.088-.646q-.621-2.3-3.664-3.4a19.2,19.2,0,0,0-6.42-1.07,20.918,20.918,0,0,0-2.859.2,14.889,14.889,0,0,0-8.807,3.834A8.439,8.439,0,0,0,80.537,13.4a5.146,5.146,0,0,0-.064.752,4.459,4.459,0,0,0,2.389,3.736A36.744,36.744,0,0,0,87.4,20.371l1.15.525,1.166.561c.926.438,1.7.822,2.322,1.133a18.6,18.6,0,0,1,5.246,3.816,14.436,14.436,0,0,1,1.182,1.613c.078.141.15.283.217.424.57-.193,1.01-.34,1.285-.439.623-.225,1.605-.363,2.041.1a.713.713,0,0,1,.115-.008.546.546,0,0,1,.191.031.7.7,0,0,1,.383.279.53.53,0,0,1,.08.3.76.76,0,0,1-.031.215,23.931,23.931,0,0,0-1.021,4.328,18.807,18.807,0,0,0-.2,2.252v.031c0,.359.113.543.336.543a.72.72,0,0,0,.232-.047,2.487,2.487,0,0,0,.455-.295,3.263,3.263,0,0,0,.367-.369,13.122,13.122,0,0,0,2.051-3.713q.3-.776.7-2.043l.328-1.006.326-1a.65.65,0,0,1,.576-.465h.088a.7.7,0,0,1,.559.264.556.556,0,0,1,.264.48.737.737,0,0,1-.041.215,30.663,30.663,0,0,0-.885,6.627l-.018.447-.016.439a3.176,3.176,0,0,0,.111.887c.057.2.137.3.232.3a.263.263,0,0,0,.1-.031,2.206,2.206,0,0,0,.424-.512,33.5,33.5,0,0,0,2.043-3.824c.439-1.014.791-1.852,1.07-2.5a.762.762,0,0,1,.32-.264,3.539,3.539,0,0,1,1.469-1.611,3.074,3.074,0,0,1,1.4-.408,1.643,1.643,0,0,1,1.42.822,1.6,1.6,0,0,1,.264.887,2.2,2.2,0,0,1-.15.791,5.587,5.587,0,0,1-.408.789,6.3,6.3,0,0,1-.479.688A19.156,19.156,0,0,1,112,34.439c.232.5.535.744.918.744a1.594,1.594,0,0,0,.863-.32,12.566,12.566,0,0,0,2.035-1.756,13,13,0,0,0,2.5-3.57.539.539,0,0,1,.383-.328.375.375,0,0,1,.129-.023.762.762,0,0,1,.344.1.636.636,0,0,1,.311.375.549.549,0,0,1,.057.248.77.77,0,0,1-.064.295,13.742,13.742,0,0,1-2.029,3.18,9.685,9.685,0,0,1-3.584,2.914,2.242,2.242,0,0,1-.943.215,2.062,2.062,0,0,1-.654-.1c-.559-.152-1.045-.727-1.445-1.725a5.062,5.062,0,0,1-.287-.967c-.152.313-.3.623-.471.967l-.232.5-.23.5a8.115,8.115,0,0,1-.543,1.006,3.31,3.31,0,0,1-1.629,1.43,1.412,1.412,0,0,1-.512.1c-.895,0-1.35-1.1-1.35-3.289,0-.439.016-.926.057-1.469l-.3.59a11.076,11.076,0,0,1-1.35,2.125,3.856,3.856,0,0,1-2.051,1.389,2.157,2.157,0,0,1-.432.047c-.855,0-1.277-.781-1.277-2.338a13.343,13.343,0,0,1,.1-1.486,27.03,27.03,0,0,1,.605-3.217c.113-.432.225-.855.328-1.271.033-.09.064-.182.094-.271-.529.176-1.316.441-2.152.734a6.762,6.762,0,0,1,.223,1.709,8.545,8.545,0,0,1-1.486,4.561,17.629,17.629,0,0,1-6.348,5.8,20.778,20.778,0,0,1-4.191,1.828l-.512.168-.512.129c-.391.1-.75.184-1.053.246a6.99,6.99,0,0,1-1.254.121A4.576,4.576,0,0,1,83.141,44.246ZM96.092,30.918a54.97,54.97,0,0,0-11.307,6.174c-.08.088-.207.223-.391.406l-.264.232-.264.264A13.173,13.173,0,0,0,82.748,39.2a3.468,3.468,0,0,0-1.037,2.053.993.993,0,0,0,.08.43,2.124,2.124,0,0,0,2.2,1.246h.137a7.663,7.663,0,0,0,1.549-.223c.215-.057.447-.121.7-.184.176-.064.375-.137.605-.2A18.406,18.406,0,0,0,91.5,40.229a20.685,20.685,0,0,0,4.033-3.3,8.8,8.8,0,0,0,2.436-4.473,5.62,5.62,0,0,0,.08-.869,4.422,4.422,0,0,0-.254-1.322C97.156,30.494,96.555,30.725,96.092,30.918ZM113.3,29.209a2.768,2.768,0,0,0-.887.936,6.21,6.21,0,0,0-.68,2.777,10.243,10.243,0,0,0,2.373-2.811,1.2,1.2,0,0,0,.174-.574.617.617,0,0,0-.111-.359.357.357,0,0,0-.326-.2A1.041,1.041,0,0,0,113.3,29.209Zm-74.533,8.3a2.553,2.553,0,0,1-.84-2.027v-.279c0-.279.008-.6.033-.936.016-.166.039-.359.063-.574l.033-.264.006-.094-.117.174A6.359,6.359,0,0,1,35.8,35.574a3.707,3.707,0,0,1-1.205.406,1.565,1.565,0,0,1-.281.018,1.642,1.642,0,0,1-.934-.264,2.626,2.626,0,0,1-1.037-1.525,6.475,6.475,0,0,1-.184-1.629v-.3l-.527.871a5.8,5.8,0,0,1-2.412,2.4,2.6,2.6,0,0,1-1.006.246,1.654,1.654,0,0,1-1.445-.895,3.717,3.717,0,0,1-.566-2.035c0-.232.023-.463.047-.711.08-.6.168-1.143.264-1.613A13.214,13.214,0,0,1,27,28.842a4.523,4.523,0,0,1,2.014-2.635,2.289,2.289,0,0,1,1.029-.264,2.373,2.373,0,0,1,1.285.416,5.64,5.64,0,0,1,1.629,1.877,4.09,4.09,0,0,1,.232-.543l.152-.3.143-.3a3.525,3.525,0,0,1,.359-.535,1.042,1.042,0,0,1,.8-.4,1.406,1.406,0,0,1,.344.047.652.652,0,0,1,.391.32.613.613,0,0,1,.1.326.485.485,0,0,1-.031.176l-.033.1a.536.536,0,0,1-.559.48.761.761,0,0,1-.184-.025,1.972,1.972,0,0,1-.176.543c-.047.105-.1.217-.15.336l-.08.145-.064.135-.057.1c-.016.057-.031.088-.047.1a8.566,8.566,0,0,0-.424,1.533,13.411,13.411,0,0,0-.168,1.988,7.307,7.307,0,0,0,.033.76l.023.2.047.232a3.571,3.571,0,0,0,.113.494c.15.352.367.527.639.527h.031a3.445,3.445,0,0,0,2.4-1.732,13.783,13.783,0,0,0,.869-1.414l.2-.344.184-.334c.127-.225.238-.416.326-.561a1.165,1.165,0,0,1,.158-.193,18.4,18.4,0,0,1,.457-1.875.588.588,0,0,1,.344-.414.682.682,0,0,1,.295-.064.539.539,0,0,1,.191.031.692.692,0,0,1,.383.281.577.577,0,0,1,.1.326.584.584,0,0,1-.033.2,22.544,22.544,0,0,0-.758,3.85,20.865,20.865,0,0,0-.191,2.451v.279l-.018.328a3.45,3.45,0,0,0,.08.662l.064-.072a7.517,7.517,0,0,0,.615-.75c.4-.59.773-1.221,1.133-1.877a21.23,21.23,0,0,0,1.623-3.729,32.33,32.33,0,0,0-.328-3.682.7.7,0,0,1-.016-.127.679.679,0,0,1,.574-.68,1.781,1.781,0,0,1,.248-.031c.271,0,.43.168.479.5a35.911,35.911,0,0,1,.352,3.814.487.487,0,0,1,.047.217.864.864,0,0,1-.031.2.085.085,0,0,1,0,.01c.006.277.01.553.01.83v.215a11.971,11.971,0,0,1,4.688-5.861.662.662,0,0,1,.336-.1.445.445,0,0,1,.176.031.574.574,0,0,1,.383.313.787.787,0,0,1,.1.375v.1a.612.612,0,0,1-.311.424,10.312,10.312,0,0,0-3.922,4.654,26.583,26.583,0,0,0-1.693,5.941.528.528,0,0,1-.406.479.741.741,0,0,1-.152.018.859.859,0,0,1-.463-.16.766.766,0,0,1-.439-.264.635.635,0,0,1-.15-.416,1.231,1.231,0,0,1,.016-.15q.267-1.43.4-2.877c-.2.428-.412.832-.623,1.215-1.086,1.988-2.012,2.979-2.762,2.979A.869.869,0,0,1,38.768,37.514Zm-9.83-9.541a8.816,8.816,0,0,0-1.381,4.607v.311c0,.129.008.256.016.359a2.629,2.629,0,0,0,.15.742c.137.32.328.48.576.48a1.1,1.1,0,0,0,.559-.2,4.992,4.992,0,0,0,1.629-1.795L32.164,29.6l-.033-.033a7.774,7.774,0,0,0-.543-.973,4.274,4.274,0,0,0-.791-.92,1.382,1.382,0,0,0-.869-.4A1.234,1.234,0,0,0,28.938,27.973Zm10.42-3.441a.635.635,0,0,1-.479-.2.65.65,0,0,1-.2-.479.623.623,0,0,1,.2-.455.64.64,0,0,1,.479-.2h.232a.623.623,0,0,1,.471.2.6.6,0,0,1,.2.455.628.628,0,0,1-.2.479.618.618,0,0,1-.471.2Zm92.309-13.656a.624.624,0,0,1,0-.877A10.671,10.671,0,0,1,135.1,7.379a.64.64,0,0,1,.854.223.623.623,0,0,1-.223.848,10.644,10.644,0,0,0-1.766,1.078.5.5,0,0,1-.049.031.889.889,0,0,1-.086.072c-.072.055-.137.111-.2.158-.129.113-.248.225-.377.336-.246.24-.486.488-.709.75a.539.539,0,0,1-.416.182A.692.692,0,0,1,131.666,10.875Z" transform="translate(24.5 29.31)" fill="url(#linear-gradient-2)"/>
      </g>
      <line id="Line_275" data-name="Line 275" x1="130" transform="translate(20.498 82.193)" fill="none" stroke="#f5a3fc" stroke-width="0.5" opacity="0.502"/>
    </g>
  </g>
</svg>
