<svg xmlns="http://www.w3.org/2000/svg" xmlns:xlink="http://www.w3.org/1999/xlink" width="210" height="167" viewBox="0 0 210 167">
  <defs>
    <linearGradient id="linear-gradient" x1="0.923" x2="0.05" y2="1" gradientUnits="objectBoundingBox">
      <stop offset="0" stop-color="#f8fff4"/>
      <stop offset="1" stop-color="#cef4ff"/>
    </linearGradient>
    <linearGradient id="linear-gradient-2" x1="0.479" y1="1" x2="0.536" y2="-1.206" gradientUnits="objectBoundingBox">
      <stop offset="0" stop-color="#0af" stop-opacity="0.659"/>
      <stop offset="1" stop-color="#b1e6ff"/>
    </linearGradient>
    <linearGradient id="linear-gradient-3" x1="0.157" y1="1" x2="0.642" y2="0.099" gradientUnits="objectBoundingBox">
      <stop offset="0" stop-color="#0af" stop-opacity="0.376"/>
      <stop offset="1" stop-color="#bfebff"/>
    </linearGradient>
    <linearGradient id="linear-gradient-4" x1="0.153" y1="0.027" x2="0.821" y2="0.986" gradientUnits="objectBoundingBox">
      <stop offset="0" stop-color="#0af"/>
      <stop offset="1" stop-color="#0166a5"/>
    </linearGradient>
    <clipPath id="clip-path">
      <rect id="Rectangle_3175" data-name="Rectangle 3175" width="2.52" height="1.949" fill="none"/>
    </clipPath>
  </defs>
  <g id="Group_17783" data-name="Group 17783" transform="translate(-454 -601)">
    <rect id="Rectangle_3157" data-name="Rectangle 3157" width="210" height="130" rx="65" transform="translate(454 626)" opacity="0.901" fill="url(#linear-gradient)"/>
    <g id="Group_16733" data-name="Group 16733">
      <g id="Group_8931" data-name="Group 8931" transform="translate(20 -59)">
        <path id="Path_73643" data-name="Path 73643" d="M57.649,281.427H15.217a1.081,1.081,0,0,1-1.082-1.079l-.009-4.061H58.74l-.009,4.061a1.082,1.082,0,0,1-1.082,1.079" transform="translate(456.631 511.507)" fill="url(#linear-gradient-2)"/>
        <path id="Path_73644" data-name="Path 73644" d="M57.66,310.752H19.3a1.632,1.632,0,0,1-1.632-1.631l-.01-20.781H59.3l-.01,20.781a1.632,1.632,0,0,1-1.632,1.631" transform="translate(454.581 504.524)" fill="url(#linear-gradient-3)"/>
        <path id="Path_73645" data-name="Path 73645" d="M56.306,295.794H11.714a1.793,1.793,0,0,1-1.769-1.813V283.519a1.793,1.793,0,0,1,1.769-1.812v.783a1.01,1.01,0,0,0-.986,1.03v10.462a1.01,1.01,0,0,0,.986,1.03H56.306a1.01,1.01,0,0,0,.986-1.03V283.519a1.01,1.01,0,0,0-.986-1.03v-.783a1.793,1.793,0,0,1,1.769,1.812v10.462a1.794,1.794,0,0,1-1.769,1.813" transform="translate(459.055 508.366)" fill="#ffcb24"/>
        <path id="Path_73650" data-name="Path 73650" d="M62.73,313.773H48.854a1.316,1.316,0,0,1,0-2.633H62.73a1.316,1.316,0,0,1,0,2.633" transform="translate(437.268 491.311)" fill="#0af"/>
      </g>
      <g id="Group_8930" data-name="Group 8930" transform="translate(23.224 -70.591)">
        <path id="Path_73653" data-name="Path 73653" d="M134.14,336.826a11.627,11.627,0,0,1-5.187,4.467,69.918,69.918,0,0,0-7.866,4.348,3.5,3.5,0,0,0-1.163,4.333c.847,1.568,18.513-1.983,19.8-4.3,1.267-2.27-.156-4.061.036-6.754" transform="translate(396.295 488.23)" fill="#1d426d"/>
        <path id="Path_73619" data-name="Path 73619" d="M172.455,170.509c.636-10.182,4.215-26.978,1.159-43.734-.5-2.756-1.148-6.5-2.424-9.221-3.744-7.972-5.48-9.537-5.48-9.537l-3.583,4.215-15.588,3.685s.635,4.553-.564,13.745c-1.448,11.1-3.689,27.134-2.923,45.959,0,0,1.205,32.111,1.522,39.277,0,0,.263,1.054,2.424.843,1.452-.142,3.372-1.054,5.849.685,0,0,5.114-74.28,5.908-77,.846-2.9,3.735,77.531,3.735,77.531s.585-2.891,5.3-3.293c3.4-.29,3.909,1.175,3.932.69.949-20.128.105-33.723.738-43.84" transform="translate(383.597 612.791)" fill="url(#linear-gradient-4)"/>
        <path id="Path_73654" data-name="Path 73654" d="M185.707,339.01c-.334,1.865-1.769,3.874-1.707,6.031.03,1.025-.227,2.575,1.286,3.664,2.634,1.9,8.146.4,9.932-.263a4.024,4.024,0,0,0,1.666-6.154,19.538,19.538,0,0,1-3.59-5.7" transform="translate(361.226 488.361)" fill="#1d426d"/>
        <path id="Path_73630" data-name="Path 73630" d="M201.861,190.854l6.228.026.257-2.747s.237-1.027-6.24-1.511c-.261-.02-.4,1.34-.346,2.452.027.594.062,1.186.1,1.779" transform="translate(351.562 569.997)" fill="#ffcb24"/>
        <path id="Path_73620" data-name="Path 73620" d="M174,170.509c.636-10.182,4.215-26.978,1.159-43.734-.5-2.756-1.148-6.5-2.424-9.221-3.744-7.972-5.48-9.537-5.48-9.537l-3.583,4.215-15.588,3.685-.743,16.78S159.8,119.746,160.3,139.42c.846-2.9,3.735,77.531,3.735,77.531s.585-2.891,5.3-3.293c3.4-.29,3.909,1.175,3.932.69.949-20.128.105-33.723.738-43.84" transform="translate(382.054 612.791)" fill="#0af"/>
        <path id="Path_73631" data-name="Path 73631" d="M207.305,192.884c.052-1.112.394-2.912.133-2.907a8.66,8.66,0,0,1-6.188,1.469l-1.121,15.9s3.73,5.8,4.347,5.55a87.152,87.152,0,0,0,2.83-20.008" transform="translate(352.445 568.17)" fill="#ffcb24"/>
        <path id="Path_73646" data-name="Path 73646" d="M112.774,87.682q-1.53-.934-2.963-2.012a.717.717,0,0,0-.549-.072.726.726,0,0,0-.426.328.718.718,0,0,0-.072.55.833.833,0,0,0,.328.426q1.432,1.078,2.963,2.012a.713.713,0,0,0,.72-1.232" transform="translate(402.196 625.007)" fill="#1d426d"/>
        <path id="Path_73647" data-name="Path 73647" d="M107.48,86.642a28.6,28.6,0,0,0,4.538,2.286.715.715,0,0,0,.877-.5.734.734,0,0,0-.5-.877c-.373-.149-.632-.259-1.013-.432s-.728-.341-1.087-.523q-1.074-.547-2.1-1.188a.72.72,0,0,0-.976.256.728.728,0,0,0,.256.975" transform="translate(403.069 625.146)" fill="#1d426d"/>
        <path id="Path_73632" data-name="Path 73632" d="M125.6,92.727c-.3,2.314.082,4.608-.02,6.921-.016.365.136-.271-.024.075a1.619,1.619,0,0,1,.828-.749,5.681,5.681,0,0,1,.759.039c.135-.116.083.159-.047-.04-.182-.276.013.07-.3-.25a45.515,45.515,0,0,1-3.84-4.6,1.72,1.72,0,0,0-2.276-.6,1.674,1.674,0,0,0-.6,2.276c1,1.327,6.17,9.433,8.452,5.369.589-1.049.4-2.466.342-3.614a27.363,27.363,0,0,1,.054-4.834,1.674,1.674,0,0,0-1.663-1.664,1.7,1.7,0,0,0-1.664,1.664" transform="translate(396.154 622.018)" fill="#f0ba92"/>
        <path id="Path_73633" data-name="Path 73633" d="M106.7,82.843a1.446,1.446,0,0,0-.961,1.17c1.429.635,6.1,7.014,6.44,7.4.551.637,1.041,1.321,1.12,1.2.116-.185,1.593-2.075,2.143-2.94,0,0-3.6-9.6-8.741-6.829" transform="translate(403.825 626.767)" fill="#1d426d"/>
        <path id="Path_73634" data-name="Path 73634" d="M110.221,90.978a.95.95,0,0,1-.8-.429L97.939,73.055a.951.951,0,0,1,1.59-1.044L111.015,89.5a.951.951,0,0,1-.794,1.473" transform="translate(408.158 632.623)" fill="#0af"/>
        <path id="Path_73621" data-name="Path 73621" d="M139.222,12.661c2.015,6.883-1.9,13.494-8.745,14.766s-13.68-3.349-16.042-10.16c-2.774-8,2.983-17.563,8.178-16.8,2.553.373,3.516-.816,5.626-.357,4.829,1.052,9.557,7.687,10.982,12.554" transform="translate(399.488 671.591)" fill="#1d426d"/>
        <path id="Path_73651" data-name="Path 73651" d="M291.22,332.642c.934.167-7.387,1.459-13.337,2.551a84.936,84.936,0,0,1-9.906-2c-2.108-.949,7,2.572,6.639,2.634-8.084,1.393-17.483,2.413-20.128,2.108-8.22-.949-13.834-7.819-13.834-7.819L265.3,317.573s6.428,11.592,25.924,15.07" transform="translate(330.382 498.711)" fill="#266396"/>
        <path id="Path_73655" data-name="Path 73655" d="M249.96,334.307l-9.308,4.917s5.615,6.871,13.835,7.819c2.646.305,6.859.378,14.943-1.015a61.7,61.7,0,0,1-12.119-4.172c-7.351-3.775-7.351-7.55-7.351-7.55" transform="translate(330.381 489.6)" fill="#1d426d"/>
        <path id="Path_73622" data-name="Path 73622" d="M150.831,55.963c.556-.01,5.076,0,6.6,6.441l.611,6.734.987,4.52a9.023,9.023,0,0,1-4.621,9.914,11.851,11.851,0,0,1-12.775-1.129l-7.014-7.964L130,73.659s1.006-8.912,4.842-11.533,13.75-6.124,15.994-6.163" transform="translate(390.27 641.126)" fill="#ffcb24"/>
        <path id="Path_73623" data-name="Path 73623" d="M161.312,69.027c3.148,5.188-5.576,11.6-7.756-4.264,0,0-1.923-9.4-.315-12.155a31.454,31.454,0,0,0-3.194,2,1.916,1.916,0,0,0-.855,1.53l-.231,6.324c-.021,5.091-6.619,6.737-7.288,2.746l-.781-6.5s-1.211.586-1.843.966c-.331.2-1.274.872-1.274.872l-.738,11.149a14.266,14.266,0,0,0,1.341,9.11,63.733,63.733,0,0,1,6.009,10.784c2.412,5.34,20.239-11.822,20.239-11.822,2.57-.454-5.05-13.594-3.313-10.733" transform="translate(386.923 642.962)" fill="#0af"/>
        <path id="Path_73635" data-name="Path 73635" d="M149.545,48.443c-1.293-3.737-2.789-8.314-2.789-8.314l-4.99,7.25,1.21,3.007s1.6,4.493,4.255,4.119c1.821-.71,3.2-3.5,2.315-6.063" transform="translate(384.217 649.745)" fill="#f0ba92"/>
        <path id="Path_73636" data-name="Path 73636" d="M139.079,17.983c1.557,6.126-.938,11.886-5.573,12.865s-9.655-3.192-11.212-9.318.938-11.886,5.573-12.865,9.655,3.192,11.212,9.318" transform="translate(395.068 666.951)" fill="#f0cbb0"/>
        <path id="Path_73637" data-name="Path 73637" d="M123.727,9.114s2.084,3.376-3.268,11.651c-1.984,3.069,1.961,7.923,1.961,7.923s-4.127.715-6.5-8.715c-.675-2.686,1.873-9.132,3.809-9.877a18.588,18.588,0,0,1,3.993-.982" transform="translate(398.343 666.629)" fill="#1d426d"/>
        <path id="Path_73624" data-name="Path 73624" d="M172.851,132.382c1.094,1.893,1.1,3.06.664,3.3a2.553,2.553,0,0,1-2.809-2.157c-.394-1.663-.458-3.1-.018-3.336s1.308.717,2.163,2.2" transform="translate(368.636 600.74)" fill="#1d426d"/>
        <path id="Path_73625" data-name="Path 73625" d="M166.445,78.942a27.87,27.87,0,0,1,1.871,3.759c-.031-.078-.13-.362.007.02.063.176.125.353.185.531.118.359.226.722.321,1.088q.12.46.211.928.055.281.1.564c.011.075.093.838.06.415a11.577,11.577,0,0,1-.02,2.121c0,.016-.088.651-.023.263-.022.129-.05.259-.078.387a7.8,7.8,0,0,1-.259.929c-.027.076-.205.381-.179.45-.053-.137.225-.449.039-.1-.05.095-.1.191-.148.286a13.324,13.324,0,0,1-.729,1.191c-.268.394-.553.776-.848,1.15-.064.081-.371.443-.023.031-.091.108-.181.217-.273.325q-.284.333-.577.658c-.809.9-1.664,1.752-2.546,2.577-.973.91-1.981,1.784-3.013,2.626q-.777.634-1.572,1.243-.346.265-.7.526l-.42.311q-.28.205,0,0l-.282.2a50.528,50.528,0,0,1-7.1,4.333,2.023,2.023,0,0,0-.8,2.723,2.051,2.051,0,0,0,2.723.8,58.6,58.6,0,0,0,13.563-9.517A36.059,36.059,0,0,0,171,94.2a11.566,11.566,0,0,0,2.252-7.031,20.812,20.812,0,0,0-5.1-12.58c-.68-.8.054,1.055-.9,1.628a2.037,2.037,0,0,0-.8,2.723" transform="translate(380.06 631.091)" fill="#f0cbb0"/>
        <rect id="Rectangle_3516" data-name="Rectangle 3516" width="1.902" height="119.319" transform="translate(517.054 722.323) rotate(-32.96)" fill="#1d426d"/>
        <path id="Path_73652" data-name="Path 73652" d="M239.016,328.959a.951.951,0,0,1-.428-1.8l25.231-12.714a.951.951,0,1,1,.855,1.7l-25.231,12.714a.939.939,0,0,1-.427.1" transform="translate(331.793 500.469)" fill="#0af"/>
        <path id="Path_73638" data-name="Path 73638" d="M143.873,141.885a8.884,8.884,0,0,0-3.959.518c-1.17.469-2.232,1.1-2.142,2.452.269,4.077,7.028,6.533,6.7,4.458-.062-.385-.685-.955,1.17-1.587a2.74,2.74,0,0,0,1.721-1.971,3,3,0,0,0-.578-2.678,4.059,4.059,0,0,0-2.882-1.01" transform="translate(386.392 594.373)" fill="#002045"/>
        <path id="Path_73626" data-name="Path 73626" d="M158.416,130.005c-3.062,2.7-6.506,5.386-10.744,5.579l3.486,4.9a67.616,67.616,0,0,0,8.773-4.13c.174-.09,1.516-.907,1.336-.832-1.579.655-4.1-4.574-2.85-5.512" transform="translate(380.998 600.817)" fill="#002045"/>
        <path id="Path_73648" data-name="Path 73648" d="M106.267,85.431s-1.185-1.122-1.5-.435c-.5,1.081-.954,4.142,2.767,6.244,1,.567,1.4.508,1.663.367-.067-.168,1.5-.644-2.927-6.176" transform="translate(404.539 625.443)" fill="#1d426d"/>
        <path id="Path_73627" data-name="Path 73627" d="M159.122,29.148a16.986,16.986,0,0,1,.481,6.261.933.933,0,0,0,.1.008c.93-.019,1.494-1.445,1.261-3.186-.211-1.576-1-2.866-1.843-3.083" transform="translate(374.766 655.724)" fill="#f0ba92"/>
        <path id="Path_73639" data-name="Path 73639" d="M144.47,27.061a8.957,8.957,0,0,0-3.785-7.961,16.531,16.531,0,0,0-4.227-1.785,5.814,5.814,0,0,1-3.8-3.31l1.24-.473a4.073,4.073,0,0,0,1.084,1.708c1.75,1.478,4.361,1.727,6.152,3.248a9.2,9.2,0,0,1,3.333,8.574" transform="translate(389.173 664.226)" fill="#1d426d"/>
        <g id="Group_8646" data-name="Group 8646" transform="translate(539.435 695.422)" opacity="0.5">
          <g id="Group_7801" data-name="Group 7801">
            <g id="Group_7800" data-name="Group 7800" clip-path="url(#clip-path)">
              <path id="Path_73099" data-name="Path 73099" d="M172.961,53.972a5.037,5.037,0,0,1,.852.082c-.306-1.075-.873-1.8-1.447-1.746s-.976.857-1.072,1.946a8.74,8.74,0,0,1,1.667-.281" transform="translate(-171.294 -52.304)" fill="#0af"/>
            </g>
          </g>
        </g>
        <path id="Path_73628" data-name="Path 73628" d="M184.825,63.636a26.093,26.093,0,0,0-6.934-5.9L175.5,59.4l-.686,6.312s5.017,5.968,4.979,5.831a68.234,68.234,0,0,0,5.029-7.9" transform="translate(366.224 640.162)" fill="#ffcb24"/>
        <path id="Path_73629" data-name="Path 73629" d="M144.894,8.432c-1.489-2.335-7.855-4.756-9.794-4.017-3.386,1.29-1.309,4.407-1.309,4.407a5.344,5.344,0,0,0,1.6,1.4c2.051,1.106,4.407,1.36,6.472,2.643a8.119,8.119,0,0,1,.971.623c2.838,1.532,4.12,6.5,4.12,6.5s3.161-3.352-2.064-11.552" transform="translate(388.901 669.261)" fill="#1d426d"/>
        <path id="Path_73649" data-name="Path 73649" d="M107.4,88.641a15.037,15.037,0,0,0,4.055,1.369,1.467,1.467,0,0,0,1.754-1,1.438,1.438,0,0,0-1-1.754,12.739,12.739,0,0,1-1.8-.5c-.333-.109-.664-.222-.993-.343-.143-.052-.284-.105-.425-.161-.3-.119.178.095-.157-.074-1.635-.824-3.081,1.636-1.44,2.463" transform="translate(403.315 624.769)" fill="#1d426d"/>
        <path id="Path_73640" data-name="Path 73640" d="M144.7,35.414a5.861,5.861,0,0,0,2.38-.805.178.178,0,0,0-.18-.308,5.439,5.439,0,0,1-2.2.756.184.184,0,0,0-.178.179.179.179,0,0,0,.178.178" transform="translate(382.712 652.932)" fill="#1d426d" stroke="#1d426d" stroke-width="0.1"/>
        <path id="Path_73641" data-name="Path 73641" d="M132.071,39.793a5.86,5.86,0,0,0,2.38-.805.178.178,0,0,0-.18-.308,5.439,5.439,0,0,1-2.2.756.184.184,0,0,0-.178.179.179.179,0,0,0,.178.178" transform="translate(389.587 650.548)" fill="#1d426d" stroke="#1d426d" stroke-width="0.1"/>
        <path id="Path_73642" data-name="Path 73642" d="M141.892,41.517a10.721,10.721,0,0,1,.162,2.532.182.182,0,0,0,.124.219,2.207,2.207,0,0,0,1.483-.424c.2-.111.021-.419-.18-.308a1.9,1.9,0,0,1-1.209.388l.125.219a11.025,11.025,0,0,0-.149-2.627c-.023-.226-.38-.228-.357,0" transform="translate(384.149 649.082)" fill="#1d426d" stroke="#1d426d" stroke-width="0.1"/>
      </g>
    </g>
  </g>
</svg>
