<svg xmlns="http://www.w3.org/2000/svg" xmlns:xlink="http://www.w3.org/1999/xlink" width="210" height="168" viewBox="0 0 210 168">
  <defs>
    <linearGradient id="linear-gradient" x1="0.923" x2="0.05" y2="1" gradientUnits="objectBoundingBox">
      <stop offset="0" stop-color="#f8fff4"/>
      <stop offset="1" stop-color="#cef4ff"/>
    </linearGradient>
    <linearGradient id="linear-gradient-2" x1="0.5" x2="0.5" y2="1" gradientUnits="objectBoundingBox">
      <stop offset="0" stop-color="#0af" stop-opacity="0.345"/>
      <stop offset="1" stop-color="#dbf3fe"/>
    </linearGradient>
    <clipPath id="clip-path">
      <rect id="Rectangle_3202" data-name="Rectangle 3202" width="7.581" height="7.123" fill="none"/>
    </clipPath>
    <linearGradient id="linear-gradient-3" x1="0.89" y1="0.946" x2="0.637" y2="0.173" gradientUnits="objectBoundingBox">
      <stop offset="0" stop-color="#2c67ac"/>
      <stop offset="1" stop-color="#0f2137"/>
    </linearGradient>
    <clipPath id="clip-path-2">
      <rect id="Rectangle_3203" data-name="Rectangle 3203" width="9.039" height="5.191" fill="none"/>
    </clipPath>
    <linearGradient id="linear-gradient-4" x1="0.454" y1="0.87" x2="0.451" y2="0.5" gradientUnits="objectBoundingBox">
      <stop offset="0" stop-color="#00c4ff"/>
      <stop offset="0.727" stop-color="#00a3f5"/>
      <stop offset="1" stop-color="#0188cc"/>
    </linearGradient>
    <linearGradient id="linear-gradient-6" x1="0.5" x2="0.5" y2="1" gradientUnits="objectBoundingBox">
      <stop offset="0" stop-color="#64381e"/>
      <stop offset="1" stop-color="#0d0703"/>
    </linearGradient>
    <linearGradient id="linear-gradient-7" x1="0.791" y1="0.039" x2="0.09" y2="1" gradientUnits="objectBoundingBox">
      <stop offset="0" stop-color="#00c4ff"/>
      <stop offset="0.448" stop-color="#00a3f5"/>
      <stop offset="1" stop-color="#0188cc"/>
    </linearGradient>
    <clipPath id="clip-path-3">
      <rect id="Rectangle_3207" data-name="Rectangle 3207" width="2.762" height="3.156" fill="none"/>
    </clipPath>
  </defs>
  <g id="Group_17785" data-name="Group 17785" transform="translate(-1008 -601)">
    <rect id="Rectangle_3158" data-name="Rectangle 3158" width="210" height="130" rx="65" transform="translate(1008 626)" opacity="0.901" fill="url(#linear-gradient)"/>
    <g id="Group_8928" data-name="Group 8928" transform="translate(29.879 -33)">
      <g id="Group_7754" data-name="Group 7754" transform="translate(1033 634)">
        <path id="Path_73586" data-name="Path 73586" d="M109.018,360.758c.993,4.129-4.2,7.507-3.375,9.837.874,2.456,5.621,1.3,6.755-3.118.222-.866,1.743-6.865,1.253-10.4" transform="translate(-87.301 -204.912)" fill="#ffcb24"/>
        <path id="Path_73587" data-name="Path 73587" d="M113.822,365.328c-.089-.568-.124-.593-.732-.593-.541,0-1.29.289-.921.735,1.278,1.547-.531,7.05-4.783,8.856-4.2,1.785-.762-3.061-1.452-2.314-1.441,1.559-1.709,3.542-.543,4.724.817.828,2.058.606,3.178.262a5.916,5.916,0,0,0,2.782-2.105,13.332,13.332,0,0,0,2.09-3.906,12.094,12.094,0,0,0,.382-5.659" transform="translate(-86.792 -209.307)" fill="#4a85ba"/>
        <path id="Path_73550" data-name="Path 73550" d="M125.179,92.348a.6.6,0,0,0-.115-.834l-10.638-8.048a.6.6,0,0,0-.835.115l-1.165,1.539.195.147,1.006-1.328.269.2-1,1.318.195.147,1-1.318.195.147-1,1.318.2.147,1-1.318.195.147-1,1.318.2.147,1-1.318.195.147-1,1.318.195.147,1-1.318.195.147-1,1.318.195.147,1-1.318.195.147-1,1.318.2.147,1-1.318.2.147-1,1.318.2.147,1-1.318.2.147-1,1.318.195.147,1-1.318.2.147-1,1.318.2.147,1-1.318.2.147-1,1.318.2.147,1-1.318.2.148-1,1.318.195.147,1-1.318.138.1.057.043-1,1.318.2.147,1-1.318.195.147-1,1.318.2.148,1-1.318.195.147-1,1.318.195.148,1-1.318.195.147-1,1.318.195.147,1-1.318.195.147-1,1.318.195.147,1-1.318.2.153-1,1.318.2.147,1-1.318,4.683,3.543Z" transform="translate(-91.247 -47.829)" fill="#c8dafc"/>
        <path id="Path_73551" data-name="Path 73551" d="M129.309,156.431H94.281a2.43,2.43,0,0,1-2.665-2.088V104.831a2.43,2.43,0,0,1,2.665-2.088h35.028a2.43,2.43,0,0,1,2.665,2.088v49.512a2.43,2.43,0,0,1-2.665,2.088" transform="translate(-82.147 -53.77)" fill="url(#linear-gradient-2)"/>
        <path id="Path_73552" data-name="Path 73552" d="M191.99,17.587c.2.017-1.2-.966-.7-4.745C192.764,1.7,184.376-.172,182.382.011c-3.1.285-8.661,3.457-8.127,10.835.31,4.275,2.885,4.975,2.174,8.661,6.543,2.607,10.764-2.342,15.56-1.921" transform="translate(-126.707 0)" fill="#002045"/>
        <path id="Path_73582" data-name="Path 73582" d="M260.465,332.665l10.412.821c.706-1.27.706-2.964-2.544-4.952-1.716-1.05-6.065-1.54-5.641-9.725l-5.927,2.964c.391,3.6.347,6.032.5,7.75a3.477,3.477,0,0,0,3.2,3.142" transform="translate(-174.077 -182.951)" fill="#0af"/>
        <g id="Group_8643" data-name="Group 8643" transform="translate(82.689 135.858)" opacity="0.2">
          <g id="Group_7875" data-name="Group 7875">
            <g id="Group_7874" data-name="Group 7874" clip-path="url(#clip-path)">
              <path id="Path_73254" data-name="Path 73254" d="M258.973,324.688a10.75,10.75,0,0,1,4.633,1.034c.25.062.5.131.74.211-1.068-1.319-1.844-3.44-1.654-7.123l-5.927,2.963c.125,1.154.205,2.181.262,3.107a10.248,10.248,0,0,1,1.947-.192" transform="translate(-256.765 -318.809)" fill="#1d426d"/>
            </g>
          </g>
        </g>
        <path id="Path_73553" data-name="Path 73553" d="M219.088,159.039c.629-10.137-.52-42.9-5-45.641-1.6-.977-11.708-2.7-18.981-3.208-3.333-.231-.661,2.279-.785,5.534-.078,2.055-5.813,4.637-6.219,7.774-1.432,11.056-5.854,77.623-5.542,84.757,0,0,.629-.533,2.392.228.688.3,4.054,1.369,3.852.456,0,0-.666-20.37,5.418-38.778,7.339-22.2,7.574-32.274,7.936-33.524.836-2.892,12.155,67.525,12.155,67.525s5.841-4.177,5.786-4.657a260.6,260.6,0,0,1-1.012-40.466" transform="translate(-131.484 -63.225)" fill="url(#linear-gradient-3)"/>
        <path id="Path_73583" data-name="Path 73583" d="M166.125,325.015c-.238,3.472-1.552,4.728-3.811,5.645-1.434.583-4.988,2.018-6.35,2.752-2.752,1.482-3.029,4.148-1.482,4.163,3.191.032,13.83-1.482,17.453-2.291,2.363-.528-.024-4.483.188-7.447" transform="translate(-114.842 -186.512)" fill="#0af"/>
        <g id="Group_8644" data-name="Group 8644" transform="translate(48.442 138.502)" opacity="0.2">
          <g id="Group_7878" data-name="Group 7878">
            <g id="Group_7877" data-name="Group 7877" clip-path="url(#clip-path-2)">
              <path id="Path_73257" data-name="Path 73257" d="M181.04,329.17a10.763,10.763,0,0,1,4.4.925,8.854,8.854,0,0,1-.2-2.257l-6-2.823c-.2,2.94-1.177,4.289-2.842,5.191h.1a10.786,10.786,0,0,1,4.537-1.036" transform="translate(-176.399 -325.015)" fill="#1d426d"/>
            </g>
          </g>
        </g>
        <path id="Path_73554" data-name="Path 73554" d="M192.653,37.828c-.043-3.471-.04-7.118-.04-7.118l-6.7,5.109.2,3.1c.008.2.023.392.039.582-.985.584-2.8,1.482-4.011,2.117l1.693,10.35,12.984-3.67,1.411-10.255a37.394,37.394,0,0,0-5.576-.211" transform="translate(-131.252 -17.623)" fill="#f0cbb0"/>
        <path id="Path_73555" data-name="Path 73555" d="M159.372,65.432l-1.723-.522a68,68,0,0,1-8.327,12.066c-1.137,1.241-6.263,1.344-6.468,1.623l-.565,4.046,8.03-.727c1.26-.214,1.767-.094,2.321-.788,2.52-3.154,5.975-7.594,8.354-10.821a3.146,3.146,0,0,0-1.623-4.878" transform="translate(-108.383 -37.249)" fill="#f0ba92"/>
        <path id="Path_73556" data-name="Path 73556" d="M206.787,78.26c-.054-.313-9.18-5.574-11.374-13.091-1.385-4.747-1.428-8.112-1.01-10.424a5.324,5.324,0,0,0-.384-3.2l-.365-.784a5.322,5.322,0,0,0-4.136-3.023l-.086-.01c-4.024,3.088-1.518,12.488-10.893,12.308-4.892-.094-2.258-6.209-5.222-8.7a6.593,6.593,0,0,0-1.482,1.27,35.541,35.541,0,0,1-5.151,7.621l6.351,4.516c.564,1.882.353,4.368,3.716,5.928,6.492,3.011,1.851,18.777,1.851,18.777.985,1.042,7.774,3.7,14.533,1.56,16.4-5.181,13.65-12.745,13.65-12.745" transform="translate(-122.385 -27.389)" fill="#0af"/>
        <path id="Path_73557" data-name="Path 73557" d="M197.074,32.694l-7.277,5.1,1.24,3.715a3.218,3.218,0,0,0,2.324-.377c3.893-2.046,3.714-8.436,3.714-8.436" transform="translate(-135.646 -18.76)" fill="#f0ba92"/>
        <path id="Path_73558" data-name="Path 73558" d="M206.883,22.559a16.269,16.269,0,0,1-1.43,5.842.959.959,0,0,0,.089.037c.852.26,1.791-.869,2.1-2.523.278-1.5-.059-2.908-.757-3.355" transform="translate(-144.631 -12.945)" fill="#f0ba92"/>
        <path id="Path_73559" data-name="Path 73559" d="M192.19,14.058c.078,6.115-3.822,8.874-5.828,9.716-2.4,1.009-4.944-1.861-5.979-4.965-.452-1.355.307-1.7-.329-2.587-.47-.658-.334-2.368-.376-2.964-.4-5.568,3.957-6.423,5.185-6.384,3.572.112,7.256,1.489,7.328,7.184" transform="translate(-129.824 -3.944)" fill="#f0cbb0"/>
        <path id="Path_73560" data-name="Path 73560" d="M189.464,7.9a7.737,7.737,0,0,0-6.344-3.453,6.8,6.8,0,0,0-6.768,5.754c0,.026-.007.052-.011.078-1.046,7.868,1.688,6.983,1.688,6.983s-1.612-4.835,1.081-6.981A13.152,13.152,0,0,0,182.5,6.545,4.2,4.2,0,0,0,183.51,7.86c1.179,1.015,2.573,1.431,3.49,2.656a8.5,8.5,0,0,1,1.016,8.28,8.754,8.754,0,0,0,.12-7.722c1.421,1.891,1.454,5.321,1.454,5.321s2.293-4.526-.125-8.5" transform="translate(-127.788 -2.55)" fill="#002045"/>
        <path id="Path_73561" data-name="Path 73561" d="M.164.693A5.544,5.544,0,0,0,2.5.342c.2-.078.115-.408-.091-.33A5.284,5.284,0,0,1,.164.352c-.22-.014-.219.327,0,.341" transform="matrix(0.951, -0.309, 0.309, 0.951, 54.212, 11.552)" fill="#1d426d" stroke="#1d426d" stroke-width="0.1"/>
        <path id="Path_73562" data-name="Path 73562" d="M.164.693A5.54,5.54,0,0,0,2.5.341c.2-.078.115-.408-.091-.329A5.294,5.294,0,0,1,.164.352C-.055.337-.054.678.164.693" transform="translate(49.521 12.698) rotate(-16)" fill="#1d426d" stroke="#1d426d" stroke-width="0.1"/>
        <path id="Path_73563" data-name="Path 73563" d="M188.269,31.551a10.2,10.2,0,0,1-.287,2.412.171.171,0,0,0,.078.193,2.086,2.086,0,0,0,1.469-.136c.207-.07.118-.4-.091-.329a5.2,5.2,0,0,1-.616.179,1.029,1.029,0,0,1-.59-.009l.079.193a10.59,10.59,0,0,0,.3-2.5c.017-.219-.324-.218-.341,0" transform="translate(-134.601 -18.01)" fill="#1d426d" stroke="#1d426d" stroke-width="0.1"/>
        <line id="Line_50" data-name="Line 50" y2="33.163" transform="translate(29.604 114.454)" fill="none" stroke="#2b557f" stroke-linecap="round" stroke-width="6.971"/>
        <path id="Path_73564" data-name="Path 73564" d="M122.237,218.208c1.129-7.6-8.891-11.617-11.431-17.012-2.218-4.709-17.9-6.577-21.639-.22-2.882,4.9-14.017,11.142-13.077,17.672Z" transform="translate(-70.363 -112.993)" fill="url(#linear-gradient-4)"/>
        <path id="Union_7" data-name="Union 7" d="M8.75,27.532a6.4,6.4,0,0,1-6.39-6.391V3.536H0V2.753C0,1.231.861,0,1.923,0H5.4C6.466,0,7.327,1.231,7.327,2.753v.783H4.884v17.6A3.87,3.87,0,0,0,8.75,25h41.8a3.868,3.868,0,0,0,3.866-3.864V3.536h-2.29V2.753c0-1.522.862-2.753,1.926-2.753h3.478c1.062,0,1.922,1.231,1.922,2.753v.783h-2.51v17.6a6.4,6.4,0,0,1-6.393,6.391Z" transform="translate(0 84.336)" fill="url(#linear-gradient-2)"/>
        <path id="Path_73567" data-name="Path 73567" d="M124.392,253.583h0a7.191,7.191,0,0,0-7.192-7.192H86.57a7.191,7.191,0,0,0-7.191,7.192,2.546,2.546,0,0,0,2.546,2.546h39.921a2.546,2.546,0,0,0,2.546-2.546" transform="translate(-72.281 -141.394)" fill="#1d426d"/>
        <path id="Path_73568" data-name="Path 73568" d="M122.583,156.889c-1.056-3.122-5.769-2.66-6.962-4.986-1.774-3.459-1.417-9.533-2.916-11.9-6.681-10.541-14.94-7.231-15.318-10.872-.556-5.364-7.339-2.747-6.83-.171.032.161.052.319.069.474-.035.172-.065.352-.085.544-.436,4.208-12.554.378-16.788,11.386-1.89,4.913-.47,9.314-2.54,11.007-2.018,1.651-3.763,2.023-5.48,4.54,0,0,2.469-.87,6.139,1.294,2.353,1.388,2.914,5.384,6.68,9.22.381.851,5.175,5.739,15.806,6.115a20.58,20.58,0,0,0,14.395-5.268c3.387-3.011,6.475-7.65,7.9-9.691,1.976-2.822,5.927-1.693,5.927-1.693" transform="translate(-64.451 -72.307)" fill="#ffcb24"/>
        <path id="Path_73569" data-name="Path 73569" d="M116.006,91.631c-4.723-.8-11.008,3.465-11.47,11.728-.217,3.892.1,17.051-1.418,19.659-.635,0,9.844,3.037,8.891-10.475-.138-1.952,4.039-4.916,5.963-3.528.658.474.24,4.091.33,5.892.235,4.692,4.327,4.657,7.1,4.39.07-3.509.205-11.017.214-12.652.06-12.027-7.43-14.644-9.606-15.013" transform="translate(-85.889 -52.527)" fill="url(#linear-gradient-6)"/>
        <path id="Subtraction_2" data-name="Subtraction 2" d="M6.1,16.323c-1.092,0-2.333-.768-3.492-2.16A15.013,15.013,0,0,1,.032,9.384a7.589,7.589,0,0,1,.119-2.26A3.224,3.224,0,0,1,1.2,5.281,17.822,17.822,0,0,0,5.871,0c.965,2.4,3.261,4.608,5.017,6.037.75.611,1.543,1.984,1.057,5.056a10.214,10.214,0,0,1-2.385,3.551,6.489,6.489,0,0,1-2.937,1.621A2.343,2.343,0,0,1,6.1,16.323Z" transform="translate(22.708 44.511)" fill="#f0cbb0" stroke="rgba(0,0,0,0)" stroke-width="1"/>
        <path id="Path_73573" data-name="Path 73573" d="M121.6,124.377a5.427,5.427,0,0,0,2.321.058c.208-.04.12-.357-.088-.317a5.029,5.029,0,0,1-2.146-.058c-.205-.051-.293.267-.087.317" transform="translate(-96.444 -71.19)" fill="#ad7449"/>
        <path id="Path_73574" data-name="Path 73574" d="M133.966,124.377a5.425,5.425,0,0,0,2.321.058c.208-.04.12-.357-.087-.317a5.029,5.029,0,0,1-2.146-.058c-.205-.051-.293.267-.087.317" transform="translate(-103.539 -71.19)" fill="#ad7449"/>
        <path id="Path_73575" data-name="Path 73575" d="M129.058,127.729a9.914,9.914,0,0,1-.5,2.292.168.168,0,0,0,.059.225,2.047,2.047,0,0,0,1.425,0c.206-.049.119-.366-.087-.317a1.751,1.751,0,0,1-1.171.038l.059.225a10.15,10.15,0,0,0,.529-2.371c.037-.207-.28-.3-.317-.087" transform="translate(-100.496 -73.231)" fill="#ad7449"/>
        <path id="Path_73584" data-name="Path 73584" d="M127.545,339.7c-.273,2.622-2.074,4.28-.055,7.185,2.67,3.842,2.657,3.473,3.224,3.968,3.494,3.057,6.093,1.24,6.2.354.081-.673-.233-1.658-1.453-2.8-2.474-2.313-5.137-4-2.834-6.482" transform="translate(-99.349 -194.943)" fill="#ffcb24"/>
        <path id="Path_73576" data-name="Path 73576" d="M96.938,289.4s-.47.847-3.434,0c-1.358-.388-1.835.282-1.835.282L75.5,242.293a7.606,7.606,0,1,1,14.777-3.415Z" transform="translate(-69.854 -133.367)" fill="url(#linear-gradient-7)"/>
        <path id="Path_73577" data-name="Path 73577" d="M185.039,67.228c-.877,1.742-9.068,16.4-9.208,16.547-.107.041-13.925,3.392-17.535,2.893l2.352,3.1a99.6,99.6,0,0,0,14.124-.565c1.976-.459,3.317-.141,4.87-2.044.956-1.171,6.814-10.253,11.032-17.4a8.023,8.023,0,0,1-5.635-2.535" transform="translate(-117.57 -38.58)" fill="#f0cbb0"/>
        <path id="Path_73578" data-name="Path 73578" d="M217.351,47.909l-2.093,11.337,8.514,3.952c-.658-.423.376-4.422.753-8.985.529-6.42-7.174-6.3-7.174-6.3" transform="translate(-150.258 -27.492)" fill="#0af"/>
        <path id="Path_73579" data-name="Path 73579" d="M137.826,86.951h0a1.936,1.936,0,0,0-.654,2.659l2.977,4.918a1.929,1.929,0,0,0,2.111.87l4.595,7.122a.581.581,0,1,0,.993-.6L143.253,94.8a1.929,1.929,0,0,0,.208-2.274l-2.976-4.918a1.936,1.936,0,0,0-2.659-.654" transform="translate(-105.285 -49.735)" fill="#0af"/>
        <g id="Group_8642" data-name="Group 8642" transform="translate(39.215 48.319)" opacity="0.2">
          <g id="Group_7890" data-name="Group 7890">
            <g id="Group_7889" data-name="Group 7889" clip-path="url(#clip-path-3)">
              <path id="Path_73291" data-name="Path 73291" d="M157.51,116.343l-1.908-2.958a9.144,9.144,0,0,1-.854.817l1.509,2.338a7.84,7.84,0,0,1,1.254-.2" transform="translate(-154.748 -113.385)" fill="#1d426d"/>
            </g>
          </g>
        </g>
        <path id="Path_73585" data-name="Path 73585" d="M126.019,346.027c.01-.575.366-2.048.957-2.2.524-.132.522.806.071,1.169-1.63,1.311,1.913,7.333,7.2,8.007,4.528.577-.166-2.97.7-2.445,1.878,1.134,2.662,2.861,1.82,4.292-.59,1-1.847,1.091-3.017,1.032a5.914,5.914,0,0,1-3.212-1.361,13.333,13.333,0,0,1-2.982-3.276,8.933,8.933,0,0,1-1.537-5.222" transform="translate(-99.046 -197.304)" fill="#4a85ba"/>
        <path id="Path_73580" data-name="Path 73580" d="M155.693,109.165c-1.705-.729-2.529-3.034-4.316-2.775-.495.072.323.945.211,1.035-.494.4-1.735.73-1.4,1.493,1.023,2.329,1.954,3.208,2.646,3.07,2.117-.423.976.188,3.9.329Z" transform="translate(-112.884 -61.041)" fill="#ceb399"/>
        <path id="Path_73581" data-name="Path 73581" d="M126.834,279.239a1.5,1.5,0,0,0,1.835,1.223c3.434-.47,3.575.282,3.575.282L151.7,239.9a7.606,7.606,0,1,0-14.917-2.743Z" transform="translate(-99.515 -132.184)" fill="url(#linear-gradient-7)"/>
      </g>
    </g>
  </g>
</svg>
