<svg xmlns="http://www.w3.org/2000/svg" width="39.295" height="43.303" viewBox="0 0 39.295 43.303">
  <g id="Group_8832" data-name="Group 8832" transform="translate(4.211 23.221)">
    <path id="Path_73735" data-name="Path 73735" d="M6.583,24.628H4.019A3.569,3.569,0,0,1,.45,21.059c0-1.972,1.771-2.823,2.937-3.431l14.351-7.574a1.7,1.7,0,0,0,.914-1.507,2.2,2.2,0,0,0-1.333-1.961,3.208,3.208,0,1,1,4.508-2.932" transform="translate(-3.911 -22.911)" fill="none" stroke="#21436d" stroke-width="1.5"/>
    <path id="Path_73736" data-name="Path 73736" d="M15.761,8.129l13.463,6.626c2.17,1.074,3.569,1.6,3.569,3.571a3.569,3.569,0,0,1-3.569,3.569H26.54" transform="translate(1.541 -20.177)" fill="none" stroke="#21436d" stroke-width="1.5"/>
    <path id="Path_73737" data-name="Path 73737" d="M30.282,37.151H5.1V17.725A2.976,2.976,0,0,1,8.078,14.75H27.306a2.975,2.975,0,0,1,2.975,2.975V32.737" transform="translate(-2.255 -17.819)" fill="none" stroke="#0af" stroke-linecap="round" stroke-width="1.5"/>
    <line id="Line_60" data-name="Line 60" x2="21.214" transform="translate(6.813 14.918)" fill="none" stroke="#0af" stroke-linecap="round" stroke-width="1.5"/>
  </g>
</svg>
