<svg xmlns="http://www.w3.org/2000/svg" width="33.1" height="33.1" viewBox="0 0 33.1 33.1">
  <g id="Group_8958" data-name="Group 8958" transform="translate(-627.9 -1256.486)">
    <ellipse id="Ellipse_127" data-name="Ellipse 127" cx="16" cy="16" rx="16" ry="16" transform="translate(628.45 1257.036)" fill="#f1feee"/>
    <ellipse id="Ellipse_128" data-name="Ellipse 128" cx="12.5" cy="15" rx="12.5" ry="15" transform="translate(628.45 1258.036)" fill="#0af" opacity="0.15"/>
    <ellipse id="Ellipse_129" data-name="Ellipse 129" cx="9.002" cy="12" rx="9.002" ry="12" transform="translate(628.45 1261.036)" fill="#0af" opacity="0.25"/>
    <path id="Path_73917" data-name="Path 73917" d="M15.092,16.248l5.482-5.454a1.678,1.678,0,0,1,2.333,2.412L14.75,21.174a1.676,1.676,0,0,1-2.313.021L10.18,19.083a1.679,1.679,0,0,1,2.293-2.453l1.091,1.021" transform="translate(628.35 1256.962)" fill="none" stroke="#16356a" stroke-linecap="round" stroke-width="1.1"/>
    <g id="Group_8979" data-name="Group 8979" transform="translate(-44.55 140.036)">
      <g id="Group_8980" data-name="Group 8980" transform="translate(20.278 -93.586)">
        <g id="Group_8954" data-name="Group 8954" transform="translate(652.722 1210.586)">
          <circle id="Ellipse_85" data-name="Ellipse 85" cx="16" cy="16" r="16" fill="none" stroke="#0af" stroke-width="1.1"/>
        </g>
      </g>
    </g>
  </g>
</svg>
