<svg xmlns="http://www.w3.org/2000/svg" xmlns:xlink="http://www.w3.org/1999/xlink" width="111" height="111" viewBox="0 0 123 123">
  <defs>
    <clipPath id="clip-path">
      <circle id="Ellipse_124" data-name="Ellipse 124" cx="55.5" cy="55.5" r="55.5" transform="translate(626.094 1925.094)" fill="#fff" stroke="#707070" stroke-width="1"/>
    </clipPath>
    <linearGradient id="linear-gradient" x1="0.5" x2="0.5" y2="1" gradientUnits="objectBoundingBox">
      <stop offset="0" stop-color="#0af" stop-opacity="0.129"/>
      <stop offset="1" stop-color="#b1e6ff"/>
    </linearGradient>
    <clipPath id="clip-path-2">
      <rect id="Rectangle_3158" data-name="Rectangle 3158" width="12.646" height="26.825" fill="none"/>
    </clipPath>
    <clipPath id="clip-path-3">
      <rect id="Rectangle_3159" data-name="Rectangle 3159" width="18.042" height="0.925" fill="none"/>
    </clipPath>
    <clipPath id="clip-path-4">
      <rect id="Rectangle_3160" data-name="Rectangle 3160" width="5.04" height="0.925" fill="none"/>
    </clipPath>
    <linearGradient id="linear-gradient-2" x1="0.153" y1="0.027" x2="0.821" y2="0.986" gradientUnits="objectBoundingBox">
      <stop offset="0" stop-color="#01234a"/>
      <stop offset="1" stop-color="#0166a5"/>
    </linearGradient>
    <linearGradient id="linear-gradient-3" x1="0.153" y1="0.027" x2="0.821" y2="0.986" gradientUnits="objectBoundingBox">
      <stop offset="0" stop-color="#163d6a"/>
      <stop offset="1" stop-color="#0166a5"/>
    </linearGradient>
    <linearGradient id="linear-gradient-4" x1="0.109" y1="0.837" x2="0.987" y2="0.04" gradientUnits="objectBoundingBox">
      <stop offset="0" stop-color="#ffe624"/>
      <stop offset="1" stop-color="#f5d319"/>
    </linearGradient>
  </defs>
  <g id="Group_9345" data-name="Group 9345" transform="translate(-541 -1879)">
    <g id="Ellipse_123" data-name="Ellipse 123" transform="translate(547 1885)" fill="#fff" stroke="#fff" stroke-width="6">
      <circle cx="55.5" cy="55.5" r="55.5" stroke="none"/>
      <circle cx="55.5" cy="55.5" r="58.5" fill="none"/>
    </g>
    <g id="Mask_Group_13" data-name="Mask Group 13" transform="translate(-79.094 -40.094)" clip-path="url(#clip-path)">
      <g id="Group_9332" data-name="Group 9332" transform="translate(581.343 1877.541)">
        <path id="Path_74176" data-name="Path 74176" d="M61.408,0H96.5a61.408,61.408,0,0,1,0,122.815H61.408A61.408,61.408,0,0,1,61.408,0Z" transform="translate(0 35.737)" fill="#dbf6ff" opacity="0.901"/>
        <g id="Group_9354" data-name="Group 9354" transform="translate(4373.492 -1953.433)">
          <g id="Group_8923" data-name="Group 8923" transform="translate(-4314.862 1974.806)">
            <g id="Group_9355" data-name="Group 9355">
              <path id="Path_73539" data-name="Path 73539" d="M85.583,231.06H39.214c-.674,0-1.22-1.22-1.22-1.22V174.808a2.1,2.1,0,0,1,2.1-2.1H84.7a2.1,2.1,0,0,1,2.1,2.1V229.84a1.22,1.22,0,0,1-1.22,1.22" transform="translate(-34.746 -116.893)" fill="url(#linear-gradient)"/>
              <path id="Path_73540" data-name="Path 73540" d="M141.086,189.154H121.122a.616.616,0,0,1-.616-.616v-6.091a.616.616,0,0,1,.616-.617h19.963a.616.616,0,0,1,.616.617v6.091a.616.616,0,0,1-.616.616" transform="translate(-91.824 -123.206)" fill="#1d426d"/>
              <path id="Path_73547" data-name="Path 73547" d="M59.731,188.875a1.858,1.858,0,1,1-1.858-1.858,1.858,1.858,0,0,1,1.858,1.858" transform="translate(-47.211 -126.795)" fill="none"/>
              <path id="Path_73546" data-name="Path 73546" d="M59.731,188.875a1.858,1.858,0,1,1-1.858-1.858A1.858,1.858,0,0,1,59.731,188.875Z" transform="translate(-47.211 -126.795)" fill="none" stroke="#1d426d" stroke-width="2"/>
              <path id="Path_73544" data-name="Path 73544" d="M77.937,188.875a1.858,1.858,0,1,1-1.858-1.858,1.858,1.858,0,0,1,1.858,1.858" transform="translate(-59.807 -126.795)" fill="none"/>
              <path id="Path_73545" data-name="Path 73545" d="M77.937,188.875a1.858,1.858,0,1,1-1.858-1.858A1.858,1.858,0,0,1,77.937,188.875Z" transform="translate(-59.807 -126.795)" fill="none" stroke="#0af" stroke-width="2"/>
              <path id="Path_73541" data-name="Path 73541" d="M79.889,256.618A16.612,16.612,0,1,1,96.5,240.007a16.631,16.631,0,0,1-16.611,16.611" transform="translate(-52.235 -151.959)" fill="#0af"/>
              <path id="Path_73542" data-name="Path 73542" d="M77.254,221.935a15.438,15.438,0,1,1-15.438,15.438,15.438,15.438,0,0,1,15.438-15.438m0-2.347a17.785,17.785,0,1,0,17.785,17.785,17.805,17.805,0,0,0-17.785-17.785" transform="translate(-49.601 -149.326)" fill="#fff"/>
              <g id="Group_8641" data-name="Group 8641" transform="translate(12.216 72.866)" opacity="0.4">
                <g id="Group_7754" data-name="Group 7754">
                  <g id="Group_7753" data-name="Group 7753" clip-path="url(#clip-path-2)">
                    <path id="Path_73020" data-name="Path 73020" d="M72.391,254.86a18.064,18.064,0,0,1,2.669-3.46l.071-.071a14.622,14.622,0,0,0,4.155-13.5,23.577,23.577,0,0,1-.517-4,15.528,15.528,0,0,1,.961-5.8,15.432,15.432,0,0,0-7.339,26.825" transform="translate(-67.084 -228.035)" fill="#1d426d"/>
                  </g>
                </g>
              </g>
              <path id="Path_73543" data-name="Path 73543" d="M147.318,240.709c-1.089,2.457-1.8,6.59-1.8,11.275s.715,8.817,1.8,11.275a15.426,15.426,0,0,0,0-22.55" transform="translate(-109.124 -163.938)" fill="#fff"/>
              <g id="Group_8638" data-name="Group 8638" transform="translate(30.259 61.823)" opacity="0.4">
                <g id="Group_7757" data-name="Group 7757">
                  <g id="Group_7756" data-name="Group 7756" clip-path="url(#clip-path-3)">
                    <line id="Line_1" data-name="Line 1" x2="17.117" transform="translate(0.462 0.462)" fill="none" stroke="#0af" stroke-linecap="round" stroke-width="3"/>
                  </g>
                </g>
              </g>
              <line id="Line_49" data-name="Line 49" x2="4.115" transform="translate(43.723 62.285)" fill="none" stroke="#0af" stroke-linecap="round" stroke-width="3"/>
              <g id="Group_8640" data-name="Group 8640" transform="translate(34.856 61.823)" opacity="0.6">
                <g id="Group_7760" data-name="Group 7760">
                  <g id="Group_7759" data-name="Group 7759" clip-path="url(#clip-path-4)">
                    <line id="Line_3" data-name="Line 3" x2="4.115" transform="translate(0.462 0.462)" fill="none" stroke="#0af" stroke-linecap="round" stroke-width="3"/>
                  </g>
                </g>
              </g>
              <g id="Group_8639" data-name="Group 8639" transform="translate(38.75 61.823)" opacity="0.8">
                <g id="Group_7763" data-name="Group 7763">
                  <g id="Group_7762" data-name="Group 7762" clip-path="url(#clip-path-4)">
                    <line id="Line_4" data-name="Line 4" x2="4.115" transform="translate(0.462 0.462)" fill="none" stroke="#0af" stroke-linecap="round" stroke-width="3"/>
                  </g>
                </g>
              </g>
            </g>
            <g id="Group_9356" data-name="Group 9356">
              <path id="Path_73510" data-name="Path 73510" d="M284.8,60.032c0,.691-.286,1.251-.64,1.251s-.639-.56-.639-1.251.286-1.251.639-1.251.64.56.64,1.251" transform="translate(-203.938 -54.973)" fill="#4a85ba"/>
              <path id="Path_73511" data-name="Path 73511" d="M297.062,97.933c-.255.608-2.3,5.782-4.089,9.272l3.679,1.486a38.95,38.95,0,0,0,5.82-10.121c.358-1.471-2.139-8.918-2-9.1-2.129-.763-5.245,1.994-6.787.167,2.322,4.579,3.606,7.759,3.381,8.3" transform="translate(-210.358 -75.727)" fill="#f0cbb0"/>
              <path id="Path_73512" data-name="Path 73512" d="M279.467,33.333c-.087.612-.106-4.529.811-.405.816,3.673-1.942,5.989-2.719,4.717-.038-.062-.149-.529-.214-.541a.124.124,0,0,1-.088-.049c-.072-.109.132-.185.273-.315a8.068,8.068,0,0,0,1.884-3.282" transform="translate(-199.672 -36.313)" fill="#1d426d"/>
              <path id="Path_73524" data-name="Path 73524" d="M210.667,104.731c2-4,6.451-12.864,6.228-12.641-.417-.186-3.356-2.572-3.373-2.966-.266.124-6.254,14.5-6.636,15.718Z" transform="translate(-151.881 -75.584)" fill="#f0ba92"/>
              <path id="Path_73513" data-name="Path 73513" d="M223.461,71.01a79.144,79.144,0,0,1,4.171-8.285c1.3-1.736,3.67-1.729,5.539-1.632,0,0,2.994-.324,6.379-.379,1.008-.017,4.2.074,5.136.2a8.126,8.126,0,0,1,3.761,1.16c2.372,1.965,4.634,7.248,5.412,8.823a8.225,8.225,0,0,1-5.746,3.6c-.125-.167-.4-1.059-.748-1.837-.018,3.877-.082,17.648.1,18.064.167.371-19.408,5.446-18.987,2.181.612-4.735,1.318-12.94.5-19.631-.016-.131.163-.473-.43.788-1.779.334-5.515-2.047-5.093-3.049" transform="translate(-163.117 -56.285)" fill="#0af"/>
              <path id="Path_73548" data-name="Path 73548" d="M224.506,353.677c-1.032,1.351-1.232,3.353-2.848,3.882a51.2,51.2,0,0,0-6.047,2.638,2.571,2.571,0,0,0-1.148,3.087c.512,1.2,13.666-.179,14.768-1.781,1.082-1.572.165-2.979.489-4.933" transform="translate(-156.914 -255.29)" fill="#0af"/>
              <path id="Path_73549" data-name="Path 73549" d="M275.4,358.324c-.46,1.312-1.966,2.691-2.173,4.261a2.975,2.975,0,0,0,.736,2.716c1.229,1.325,4.6,1.362,7.228.969,2.142-.321,2.683-3.208,1.86-4.537a12.785,12.785,0,0,1-1.869-4.279" transform="translate(-196.9 -257.855)" fill="#0af"/>
              <path id="Path_73514" data-name="Path 73514" d="M246.22,108.269c1.631-7.414,1.724,3.331,1.789,6.523l.919,42.842h.309a8.032,8.032,0,0,1,4.325-1.324,7.755,7.755,0,0,1,4.048,1.121c.456-3.714.177-15.762.177-28.253,0-10.309,1.493-22.148,1.545-31.252.045-7.842-2.329-19.13-2.342-19.56a20.216,20.216,0,0,1,.125-3.489,1.454,1.454,0,0,1-1.609.25c-2.567-1.3-1.723-8.622-1.723-9.527l.425-5.488a.707.707,0,0,0-.42-.7l-1.5-.661s.355.193.449,1.282a30.2,30.2,0,0,1-.3,3.454c-.422,3.831-2.456,5.954-5.144,5.954a4.866,4.866,0,0,1-4.866-4.866l-.426-4.981-1.18.059a.319.319,0,0,0-.3.318v5.258c.223,8.638-3.15,12.327-3.15,12.327.008.244-1.173,13.971-.747,20.157.086,1.25,9.344,11.746,9.606,10.556" transform="translate(-172.012 -54.952)" fill="url(#linear-gradient-2)"/>
              <path id="Path_73525" data-name="Path 73525" d="M233.445,161.829c-2.082,9,.1,18.237.556,32.364.366,11.31.286,28.419.361,29.488a7.852,7.852,0,0,1-.285,3.514c.358.1.111-.667,2.892-.278,1.129.158,2.614,1.5,5.313.8.216-.345,1.118-45.651,1.879-50.591.494-3.212.947-6.407,1.158-9.627Z" transform="translate(-169.319 -124.971)" fill="url(#linear-gradient-3)"/>
              <path id="Path_73515" data-name="Path 73515" d="M249.523,137.766c-2.368.683.245-6.27-4.968-4.375-1.631.593-2.373,2.447-4.5.629-1.618-1.385-4.486-.743-6.847.187-6.751,2.66-5.21,5.606-5.21,5.606Z" transform="translate(-166.122 -105.432)" fill="#924ad1"/>
              <path id="Path_73516" data-name="Path 73516" d="M263.995,141.533s-3.27,16.44-2.58,16.111l6.173-.706c1.242-.165,1.669-1.324,1.97-2.789l2.775-10.48Zm.078,12.952-.074,0c-.1,0-.153-.222-.126-.5l1.307-9.036c.048-.248.179-.431.292-.408l.086.017c.113.022.163.239.113.484l-1.371,8.933c-.03.278-.132.507-.228.511m1.349-.05-.074,0c-.1,0-.148-.214-.114-.486l1.505-8.709c.053-.239.188-.413.3-.391l.086.017c.112.022.158.231.1.467l-1.565,8.606c-.036.268-.143.49-.241.493m1.6-.526c-.042.259-.155.472-.252.476l-.074,0c-.1,0-.144-.206-.1-.468l1.69-8.382c.058-.229.2-.4.306-.374l.085.017c.111.022.153.223.093.449Zm1.364-.033c-.048.249-.165.455-.262.459l-.074,0c-.1,0-.139-.2-.093-.451l1.86-8.056c.062-.22.2-.379.312-.357l.084.017c.11.022.148.216.084.432Z" transform="translate(-188.855 -111.185)" fill="#ceb218"/>
              <path id="Path_73526" data-name="Path 73526" d="M223.351,165.257l-.111.019c.15-1.1.292-2.206.342-3.318a17.237,17.237,0,0,1,.69-5.076,1.44,1.44,0,0,1,.154.028,1.852,1.852,0,0,1,.78.385,2.229,2.229,0,0,1,1.414.33,1.552,1.552,0,0,1,.571.627,2,2,0,0,1,.44.053,1.762,1.762,0,0,1,1.38,1.578c.349,2.776-2.862,4.853-5.66,5.375" transform="translate(-162.99 -121.611)" fill="#003185"/>
              <path id="Path_73527" data-name="Path 73527" d="M205.351,135.213s-1.774-2.675-6.889-1.415c-3.912.964-2.595-3.262-9.194-.742-6.08,2.322-6.354,5.029-6.354,5.029l2.009,5.182,18.309,1.615Z" transform="translate(-135.597 -104.874)" fill="#42d1c3"/>
              <path id="Path_73528" data-name="Path 73528" d="M221.618,149.285s-4.658-3.493-14.248-1.829-3.584,5.713,1.044,5.713,17.082-.846,13.2-3.884" transform="translate(-148.737 -114.903)" fill="#42d1c3"/>
              <path id="Path_73529" data-name="Path 73529" d="M198.5,147.82h-11.6a1.968,1.968,0,0,0-.313.654l2.009,5.182,9.905.874Z" transform="translate(-138.087 -115.456)" fill="#42d1c3"/>
              <path id="Path_73530" data-name="Path 73530" d="M222.983,154.09s-9.64,1.49-7.069-2.714c3.008-4.92-11.783,4.319-11.783,4.319v1.052s9.925-4.1,12.887-1.977,5.841.909,5.965-.68" transform="translate(-150.01 -116.891)" fill="#662d91"/>
              <path id="Path_73531" data-name="Path 73531" d="M207.582,161.646s-10.194-5.914-15.044-4.978-9.8,3.1-9.208,3.607-2.142,6.11,1.594,5.966,21.871-.939,21.871-.939Z" transform="translate(-135.595 -121.397)" fill="#003185"/>
              <path id="Path_73532" data-name="Path 73532" d="M206.795,141.5s-2.484,16.179-2.555,16.108H181.289a2.5,2.5,0,0,1-2.428-1.895L177.1,141.5Zm-6.167,12.825a.5.5,0,0,0,.5.5h.211a.5.5,0,0,0,.5-.5v-9.451a.5.5,0,0,0-.5-.5h-.211a.5.5,0,0,0-.5.5Zm-3.855,0a.5.5,0,0,0,.5.5h.211a.5.5,0,0,0,.5-.5v-9.451a.5.5,0,0,0-.5-.5h-.211a.5.5,0,0,0-.5.5Zm-3.855,0a.5.5,0,0,0,.5.5h.21a.5.5,0,0,0,.5-.5v-9.451a.5.5,0,0,0-.5-.5h-.21a.5.5,0,0,0-.5.5Zm-3.854,0a.5.5,0,0,0,.5.5h.211a.5.5,0,0,0,.5-.5v-9.451a.5.5,0,0,0-.5-.5h-.211a.5.5,0,0,0-.5.5Zm-3.854,0a.5.5,0,0,0,.5.5h.211a.5.5,0,0,0,.5-.5v-9.451a.5.5,0,0,0-.5-.5h-.211a.5.5,0,0,0-.5.5Zm-3.854,0a.5.5,0,0,0,.5.5h.211a.5.5,0,0,0,.5-.5v-9.451a.5.5,0,0,0-.5-.5h-.211a.5.5,0,0,0-.5.5Z" transform="translate(-131.645 -111.166)" fill="url(#linear-gradient-4)"/>
              <path id="Path_73533" data-name="Path 73533" d="M216.49,155.924l-2.669-.25v5.2c.556,2.111,3.559,1.249,3.559,1.249a8.214,8.214,0,0,1-.89-6.2" transform="translate(-156.59 -120.791)" fill="#74e2d5"/>
              <path id="Path_73534" data-name="Path 73534" d="M214.606,140.585s-3.6-.57-3.411,2.039a6.546,6.546,0,0,0,1.742,4.337,10.482,10.482,0,0,0-5.635,1c-1.631.853-.964,3.077-.964,3.077s-1.216-.463-.931-5.189c.19-3.152-1.783-5.133-3.147-5.376,3.744-.89,12.345.111,12.345.111" transform="translate(-148.738 -110.215)" fill="#42d1c3"/>
              <path id="Path_73517" data-name="Path 73517" d="M264.6,50.543c-.628-.078-.708-.531-.836-1.151a15.61,15.61,0,0,1-.137-3.789l-6.29.243c-.006.153,1.35,4.549-.891,4.913,0,0,.294,4.814,4.095,4.538,3.837-.278,4.1-4.75,4.059-4.754" transform="translate(-185.548 -46.021)" fill="#f0ba92"/>
              <path id="Path_73518" data-name="Path 73518" d="M248.1,21.734a17.083,17.083,0,0,0,.047,2.407c.071.848.683.613.565,1.555a5.072,5.072,0,0,0,.071,1.791,6.741,6.741,0,0,0,2.073,4.194c1.367,1.461,2.014,1.543,3.039,1.531a3.028,3.028,0,0,0,2.552-1.025c4.147-4.279,3.6-8.629,3.575-8.861-.044-.434-11.923-1.592-11.923-1.592" transform="translate(-179.861 -29.808)" fill="#f0cbb0"/>
              <path id="Path_73519" data-name="Path 73519" d="M282.242,114.539a133.186,133.186,0,0,1-5.555,12.171c-.791,1.438-2.606,5.576-3.912,6.526a13.205,13.205,0,0,0-1.993,2.872s-.023.463.687.3,1.214-1.516,1.422-1.032a10.876,10.876,0,0,1-.384,3.043c-.074.358-.9.151-.777.5.438,1.211,3.49-.08,4.431-1.278a7.654,7.654,0,0,0,.734-2.94,7.239,7.239,0,0,1,1.215-3.322c2.174-3.122,4.958-7.642,6.581-10.642.531-.677-2.45-6.2-2.45-6.2" transform="translate(-195.283 -92.848)" fill="#f0cbb0"/>
              <path id="Path_73520" data-name="Path 73520" d="M265.379,21.189c-1.211-.012-2.842.182-3.774.115a.243.243,0,0,0-.247.325c.216.6,1,1.415,3.866,1.281,2.6-.122,2.173,3.826,2.772,3.441.732-.47.363-2.514,1.058-3.062a.245.245,0,0,0-.01-.4l-1.505-.987a7.952,7.952,0,0,0-2.159-.714" transform="translate(-188.874 -29.438)" fill="#1d426d"/>
              <path id="Path_73535" data-name="Path 73535" d="M247.365,22.558c.123.408-.2-.483.75-1.123,1.154-.781,1.45-.486,1.506-.547s.144-.58.207-.608a4.453,4.453,0,0,1,.955-.3l-3-.065c-.368-.008-.476.339-.652.662-.286.528.161,1.73.235,1.978" transform="translate(-179.154 -28.575)" fill="#1d426d"/>
              <path id="Path_73536" data-name="Path 73536" d="M266.171,34.882a4.053,4.053,0,0,1,1.8-.653" transform="translate(-192.152 -38.296)" fill="none" stroke="#1d426d" stroke-width="0.3"/>
              <path id="Path_73537" data-name="Path 73537" d="M253.956,35.267a3.9,3.9,0,0,0-1.8-.653" transform="translate(-182.636 -38.558)" fill="none" stroke="#1d426d" stroke-width="0.3"/>
              <path id="Path_73538" data-name="Path 73538" d="M260.984,38.387l-.247,2.26a.637.637,0,0,0,.5.694,1.581,1.581,0,0,0,.865,0" transform="translate(-188.458 -41.119)" fill="none" stroke="#1d426d" stroke-width="0.3"/>
              <path id="Path_73521" data-name="Path 73521" d="M259.78,8.846c-.022.313.123.06-.169-.054a17.506,17.506,0,0,0-3.259-.949c-9.15-1.712-8.876-.016-8.876-.016l.012-1.8c-.385-2.058.943-6.182,6.479-6.021,5.592.4,6.9,3.9,6.259,6.855-.361,1.668-.446,1.986-.446,1.986" transform="translate(-179.419 -15.044)" fill="#ffcb24"/>
              <path id="Path_73522" data-name="Path 73522" d="M253.2,18.732a27.876,27.876,0,0,0-7.911-1.423c-2.46-.07-4.2-.072-4.346.765-.034.186.149.539,0,.521-2.984-.383-4.9-3.937-.735-4.025A23.215,23.215,0,0,1,253.2,18.732" transform="translate(-172.882 -24.938)" fill="#45c8ff"/>
              <path id="Path_73523" data-name="Path 73523" d="M283.676,27.653c-.279.289-.319.631-.425,1.3-.092.583-.265,1.329-.265,1.329.9-1.775-.023,1.665.016,1.577.048-.11,1.359-2.293,1.333-3.626-.009-.474-.352-.9-.659-.584" transform="translate(-203.573 -33.753)" fill="#f0ba92"/>
            </g>
          </g>
        </g>
      </g>
    </g>
  </g>
</svg>
