<svg xmlns="http://www.w3.org/2000/svg" width="16.864" height="17.032" viewBox="0 0 16.864 17.032">
  <g id="Group_24" data-name="Group 24" transform="translate(0.875 0.875)">
    <path id="insta" d="M2398.3,8078.775h-9.912a2.616,2.616,0,0,0-2.6,2.63h0v10.022a2.615,2.615,0,0,0,2.6,2.63h9.912a2.615,2.615,0,0,0,2.6-2.63h0v-10.022A2.617,2.617,0,0,0,2398.3,8078.775Zm-4.956,11.539a3.9,3.9,0,0,1-3.124-6.168,3.816,3.816,0,0,1,6.249,0,3.9,3.9,0,0,1-3.125,6.168Z" transform="translate(-2385.792 -8078.775)" fill="none" stroke="#1ca6e5" stroke-width="1.75"/>
    <path id="Path_3739" data-name="Path 3739" d="M2450.12,8091.683a1.144,1.144,0,0,1-.917-1.81,1.119,1.119,0,0,1,1.56-.274,1.107,1.107,0,0,1,.274.274,1.143,1.143,0,0,1-.917,1.81Z" transform="translate(-2437.938 -8087.538)" fill="none" stroke="#0af" stroke-width="1"/>
  </g>
</svg>
