<svg xmlns="http://www.w3.org/2000/svg" xmlns:xlink="http://www.w3.org/1999/xlink" width="111" height="111" viewBox="0 0 123 123">
  <defs>
    <clipPath id="clip-path">
      <circle id="Ellipse_124" data-name="Ellipse 124" cx="55.5" cy="55.5" r="55.5" transform="translate(626.094 1925.094)" fill="#fff" stroke="#707070" stroke-width="1"/>
    </clipPath>
    <linearGradient id="linear-gradient" x1="0.5" x2="0.5" y2="1" gradientUnits="objectBoundingBox">
      <stop offset="0" stop-color="#0af" stop-opacity="0.345"/>
      <stop offset="1" stop-color="#dbf3fe"/>
    </linearGradient>
    <clipPath id="clip-path-2">
      <rect id="Rectangle_3202" data-name="Rectangle 3202" width="9.134" height="8.583" fill="none"/>
    </clipPath>
    <linearGradient id="linear-gradient-2" x1="0.89" y1="0.946" x2="0.637" y2="0.173" gradientUnits="objectBoundingBox">
      <stop offset="0" stop-color="#2c67ac"/>
      <stop offset="1" stop-color="#0f2137"/>
    </linearGradient>
    <clipPath id="clip-path-3">
      <rect id="Rectangle_3203" data-name="Rectangle 3203" width="10.892" height="6.255" fill="none"/>
    </clipPath>
    <linearGradient id="linear-gradient-3" x1="0.454" y1="0.87" x2="0.451" y2="0.5" gradientUnits="objectBoundingBox">
      <stop offset="0" stop-color="#00c4ff"/>
      <stop offset="0.727" stop-color="#00a3f5"/>
      <stop offset="1" stop-color="#0188cc"/>
    </linearGradient>
    <linearGradient id="linear-gradient-5" x1="0.5" x2="0.5" y2="1" gradientUnits="objectBoundingBox">
      <stop offset="0" stop-color="#64381e"/>
      <stop offset="1" stop-color="#0d0703"/>
    </linearGradient>
    <linearGradient id="linear-gradient-6" x1="0.791" y1="0.039" x2="0.09" y2="1" gradientUnits="objectBoundingBox">
      <stop offset="0" stop-color="#00c4ff"/>
      <stop offset="0.448" stop-color="#00a3f5"/>
      <stop offset="1" stop-color="#0188cc"/>
    </linearGradient>
    <clipPath id="clip-path-4">
      <rect id="Rectangle_3207" data-name="Rectangle 3207" width="3.328" height="3.802" fill="none"/>
    </clipPath>
  </defs>
  <g id="Group_9345" data-name="Group 9345" transform="translate(-541 -1879)">
    <g id="Ellipse_123" data-name="Ellipse 123" transform="translate(547 1885)" fill="#d8f6ff" stroke="#fff" stroke-width="6">
      <circle cx="55.5" cy="55.5" r="55.5" stroke="none"/>
      <circle cx="55.5" cy="55.5" r="58.5" fill="none"/>
    </g>
    <g id="Group_13" data-name="Group 13" transform="translate(-79.094 -40.094)" clip-path="url(#clip-path)">
      <g id="Group_9352" data-name="Group 9352" transform="translate(-602.196 -8.653)">
        <g id="Group_8928" data-name="Group 8928" transform="translate(1225.932 1943.068)">
          <g id="Group_7754" data-name="Group 7754" transform="translate(0 0)">
            <path id="Path_73586" data-name="Path 73586" d="M109.728,361.512c1.2,4.975-5.065,9.045-4.067,11.852,1.053,2.959,6.772,1.565,8.139-3.757.268-1.043,2.1-8.271,1.51-12.528" transform="translate(-83.562 -173.731)" fill="#ffcb24"/>
            <path id="Path_73587" data-name="Path 73587" d="M115.7,365.45c-.107-.685-.149-.715-.882-.715-.652,0-1.554.348-1.11.886,1.54,1.864-.64,8.494-5.763,10.671-5.062,2.151-.919-3.689-1.75-2.789-1.736,1.878-2.059,4.267-.655,5.692.984,1,2.479.73,3.829.316a7.13,7.13,0,0,0,3.352-2.537,16.066,16.066,0,0,0,2.518-4.706,14.573,14.573,0,0,0,.46-6.818" transform="translate(-83.13 -177.458)" fill="#4a85ba"/>
            <path id="Path_73550" data-name="Path 73550" d="M127.792,94.193a.718.718,0,0,0-.139-1.005l-12.817-9.7a.718.718,0,0,0-1.006.139l-1.4,1.854.235.178,1.212-1.6.324.245-1.2,1.588.235.178,1.2-1.588.235.178-1.2,1.589.235.178,1.2-1.589.235.178-1.2,1.589.235.178,1.2-1.589.235.178-1.2,1.589.235.178,1.2-1.588.235.177-1.2,1.589.235.178,1.2-1.588.235.178-1.2,1.588.235.178,1.2-1.588.235.178-1.2,1.588.235.178,1.2-1.588.235.178-1.2,1.589.235.178,1.2-1.589.235.178-1.2,1.589.235.178,1.2-1.589.235.178-1.2,1.589.235.178,1.2-1.589.235.178-1.2,1.588.235.178,1.2-1.589.166.126.068.052-1.2,1.588.235.178,1.2-1.588.235.178-1.2,1.588.235.178,1.2-1.589.235.178-1.2,1.588.235.178,1.2-1.589.235.178-1.2,1.589.235.178,1.2-1.589.235.178-1.2,1.589.235.178,1.2-1.589.244.185-1.2,1.588.235.178,1.2-1.588,5.643,4.269Z" transform="translate(-86.907 -40.551)" fill="#789fb2" opacity="0.473"/>
            <path id="Path_73551" data-name="Path 73551" d="M137.033,167.432H94.827c-1.773,0-3.211-1.126-3.211-2.516V105.259c0-1.389,1.438-2.516,3.211-2.516h42.206c1.774,0,3.211,1.127,3.211,2.516v59.658c0,1.389-1.437,2.516-3.211,2.516" transform="translate(-80.207 -43.735)" fill="url(#linear-gradient)"/>
            <path id="Path_73552" data-name="Path 73552" d="M195.631,21.191c.242.021-1.442-1.165-.841-5.717C196.564,2.047,186.457-.207,184.055.014c-3.736.344-10.436,4.166-9.792,13.056.373,5.151,3.476,5.995,2.62,10.436,7.884,3.141,12.969-2.822,18.749-2.314" transform="translate(-116.971 0)" fill="#002045"/>
            <path id="Path_73582" data-name="Path 73582" d="M261.223,335.5l12.546.989c.85-1.531.85-3.571-3.065-5.967-2.067-1.265-7.308-1.855-6.8-11.718l-7.142,3.571c.471,4.335.418,7.268.607,9.338a4.19,4.19,0,0,0,3.851,3.786" transform="translate(-157.133 -155.112)" fill="#0af"/>
            <g id="Group_8643" data-name="Group 8643" transform="translate(99.633 163.697)" opacity="0.2">
              <g id="Group_7875" data-name="Group 7875">
                <g id="Group_7874" data-name="Group 7874" clip-path="url(#clip-path-2)">
                  <path id="Path_73254" data-name="Path 73254" d="M259.426,325.892a12.95,12.95,0,0,1,5.582,1.246c.3.075.6.158.891.254-1.286-1.589-2.222-4.145-1.993-8.582l-7.142,3.571c.151,1.39.247,2.628.315,3.744a12.345,12.345,0,0,1,2.345-.232" transform="translate(-256.765 -318.809)" fill="#1d426d"/>
                </g>
              </g>
            </g>
            <path id="Path_73553" data-name="Path 73553" d="M226.577,169.052c.758-12.215-.627-51.694-6.025-54.993-1.926-1.177-14.107-3.258-22.871-3.866-4.016-.278-.8,2.746-.946,6.668-.094,2.476-7,5.587-7.494,9.367-1.725,13.321-7.054,93.529-6.677,102.125,0,0,.758-.642,2.882.275.829.358,4.884,1.65,4.642.55,0,0-.8-24.544,6.529-46.724,8.842-26.753,9.126-38.887,9.562-40.393,1.007-3.484,14.646,81.362,14.646,81.362s7.038-5.033,6.972-5.612a314,314,0,0,1-1.219-48.758" transform="translate(-121.021 -53.605)" fill="url(#linear-gradient-2)"/>
            <path id="Path_73583" data-name="Path 73583" d="M168.7,325.015c-.287,4.184-1.871,5.7-4.591,6.8-1.727.7-6.011,2.432-7.652,3.316-3.316,1.785-3.65,5-1.786,5.016,3.845.039,16.664-1.785,21.03-2.76,2.847-.636-.029-5.4.226-8.973" transform="translate(-106.912 -158.132)" fill="#0af"/>
            <g id="Group_8644" data-name="Group 8644" transform="translate(58.368 166.883)" opacity="0.2">
              <g id="Group_7878" data-name="Group 7878">
                <g id="Group_7877" data-name="Group 7877" clip-path="url(#clip-path-3)">
                  <path id="Path_73257" data-name="Path 73257" d="M181.992,330.022a12.968,12.968,0,0,1,5.3,1.114,10.67,10.67,0,0,1-.24-2.72l-7.227-3.4c-.242,3.543-1.419,5.168-3.425,6.255h.126a13,13,0,0,1,5.466-1.248" transform="translate(-176.399 -325.015)" fill="#1d426d"/>
                </g>
              </g>
            </g>
            <path id="Path_73554" data-name="Path 73554" d="M194.807,39.286c-.051-4.182-.048-8.576-.048-8.576l-8.078,6.155.245,3.732c.01.242.028.473.047.7-1.187.7-3.375,1.785-4.833,2.55l2.041,12.47L199.825,51.9l1.7-12.356a45.058,45.058,0,0,0-6.718-.255" transform="translate(-120.824 -14.941)" fill="#f0cbb0"/>
            <path id="Path_73555" data-name="Path 73555" d="M162.872,65.538,160.8,64.91a81.927,81.927,0,0,1-10.033,14.539c-1.369,1.5-7.547,1.619-7.793,1.955l-.68,4.875,9.676-.875c1.519-.258,2.129-.113,2.8-.949,3.036-3.8,7.2-9.15,10.066-13.038a3.79,3.79,0,0,0-1.956-5.877" transform="translate(-101.436 -31.581)" fill="#f0ba92"/>
            <path id="Path_73556" data-name="Path 73556" d="M215,84.516c-.065-.377-11.061-6.717-13.7-15.773-1.669-5.72-1.721-9.775-1.217-12.56a6.415,6.415,0,0,0-.463-3.856l-.44-.944A6.413,6.413,0,0,0,194.2,47.74l-.1-.012c-4.849,3.721-1.829,15.047-13.124,14.83-5.895-.113-2.72-7.482-6.292-10.486a7.943,7.943,0,0,0-1.785,1.53,42.824,42.824,0,0,1-6.207,9.183l7.652,5.441c.68,2.267.425,5.262,4.478,7.142,7.822,3.628,2.231,22.624,2.231,22.624,1.187,1.255,9.367,4.452,17.511,1.88C218.323,93.63,215,84.516,215,84.516" transform="translate(-113.308 -23.221)" fill="#0af"/>
            <path id="Path_73557" data-name="Path 73557" d="M198.565,32.694,189.8,38.837l1.494,4.476a3.878,3.878,0,0,0,2.8-.454c4.691-2.466,4.475-10.165,4.475-10.165" transform="translate(-124.55 -15.905)" fill="#f0ba92"/>
            <path id="Path_73558" data-name="Path 73558" d="M207.176,22.559a19.6,19.6,0,0,1-1.723,7.038,1.154,1.154,0,0,0,.107.044c1.026.314,2.158-1.047,2.528-3.04.335-1.8-.071-3.5-.912-4.042" transform="translate(-132.168 -10.975)" fill="#f0ba92"/>
            <path id="Path_73559" data-name="Path 73559" d="M194.76,15.53c.093,7.368-4.606,10.693-7.023,11.707-2.9,1.216-5.958-2.242-7.2-5.983-.544-1.632.37-2.045-.4-3.117-.567-.793-.4-2.854-.453-3.571-.482-6.709,4.768-7.739,6.247-7.693,4.3.135,8.743,1.794,8.83,8.656" transform="translate(-119.614 -3.343)" fill="#f0cbb0"/>
            <path id="Path_73560" data-name="Path 73560" d="M192.2,8.6c-2.589-4.254-7.644-4.161-7.644-4.161a8.189,8.189,0,0,0-8.155,6.933c0,.031-.009.063-.013.094-1.26,9.481,2.034,8.414,2.034,8.414s-1.942-5.825,1.3-8.412a15.848,15.848,0,0,0,4.089-4.5,5.058,5.058,0,0,0,1.212,1.585c1.42,1.224,3.1,1.725,4.205,3.2a10.241,10.241,0,0,1,1.224,9.977,10.548,10.548,0,0,0,.144-9.3c1.712,2.278,1.751,6.412,1.751,6.412s2.762-5.453-.151-10.24" transform="translate(-117.887 -2.162)" fill="#002045"/>
            <path id="Path_73561" data-name="Path 73561" d="M.2.835A6.68,6.68,0,0,0,3.012.412c.245-.094.139-.492-.109-.4A6.367,6.367,0,0,1,.2.424C-.067.406-.065.817.2.835" transform="matrix(0.951, -0.309, 0.309, 0.951, 65.321, 13.919)" fill="#1d426d" stroke="#1d426d" stroke-width="0.1"/>
            <path id="Path_73562" data-name="Path 73562" d="M.2.835A6.675,6.675,0,0,0,3.012.411c.245-.093.139-.491-.109-.4A6.379,6.379,0,0,1,.2.424C-.066.406-.065.817.2.835" transform="translate(59.669 15.299) rotate(-16)" fill="#1d426d" stroke="#1d426d" stroke-width="0.1"/>
            <path id="Path_73563" data-name="Path 73563" d="M188.329,31.585a12.294,12.294,0,0,1-.346,2.907.206.206,0,0,0,.094.232,2.514,2.514,0,0,0,1.77-.164c.249-.085.142-.482-.109-.4a6.249,6.249,0,0,1-.742.216,1.239,1.239,0,0,1-.711-.011l.095.233a12.758,12.758,0,0,0,.36-3.016c.02-.264-.391-.263-.411,0" transform="translate(-123.664 -15.269)" fill="#1d426d" stroke="#1d426d" stroke-width="0.1"/>
            <line id="Line_50" data-name="Line 50" y2="39.958" transform="translate(35.671 137.906)" fill="none" stroke="#2b557f" stroke-linecap="round" stroke-width="6.971"/>
            <path id="Path_73564" data-name="Path 73564" d="M131.7,222.575c1.36-9.153-10.713-14-13.774-20.5-2.672-5.674-21.573-7.925-26.073-.265-3.472,5.91-16.89,13.425-15.757,21.294Z" transform="translate(-69.201 -95.799)" fill="url(#linear-gradient-3)"/>
            <path id="Union_7" data-name="Union 7" d="M10.543,33.173a7.708,7.708,0,0,1-7.7-7.7V4.261H0V3.317C0,1.483,1.037,0,2.317,0H6.512C7.791,0,8.829,1.483,8.829,3.317v.944H5.885V25.473a4.663,4.663,0,0,0,4.658,4.656H60.9a4.661,4.661,0,0,0,4.658-4.656V4.261H62.8V3.317C62.8,1.483,63.84,0,65.122,0h4.191c1.28,0,2.316,1.483,2.316,3.317v.944H68.605V25.473a7.711,7.711,0,0,1-7.7,7.7Z" transform="translate(0 101.618)" fill="url(#linear-gradient)"/>
            <path id="Path_73567" data-name="Path 73567" d="M133.616,255.057h0a8.665,8.665,0,0,0-8.665-8.665H88.044a8.665,8.665,0,0,0-8.665,8.665,3.068,3.068,0,0,0,3.068,3.068h48.1a3.068,3.068,0,0,0,3.068-3.068" transform="translate(-70.826 -119.878)" fill="#1d426d"/>
            <path id="Path_73568" data-name="Path 73568" d="M134.232,163.218c-1.272-3.762-6.952-3.206-8.389-6.008-2.137-4.168-1.708-11.486-3.514-14.336-8.049-12.7-18-8.712-18.456-13.1-.67-6.463-8.843-3.31-8.229-.206.039.195.063.384.083.571-.043.207-.079.424-.1.655-.525,5.07-15.127.456-20.228,13.719-2.277,5.92-.567,11.223-3.061,13.263-2.431,1.989-4.534,2.437-6.6,5.47,0,0,2.975-1.048,7.4,1.559,2.835,1.672,3.511,6.487,8.049,11.11.458,1.025,6.235,6.915,19.045,7.368a24.8,24.8,0,0,0,17.345-6.348c4.081-3.628,7.8-9.218,9.523-11.677,2.38-3.4,7.142-2.04,7.142-2.04" transform="translate(-64.188 -61.304)" fill="#ffcb24"/>
            <path id="Path_73569" data-name="Path 73569" d="M118.652,91.651c-5.691-.965-13.264,4.174-13.82,14.131-.262,4.689.119,20.544-1.709,23.687-.765,0,11.861,3.659,10.713-12.622-.166-2.352,4.867-5.923,7.184-4.251.792.571.289,4.929.4,7.1.283,5.653,5.214,5.611,8.551,5.289.084-4.228.247-13.275.257-15.244.072-14.492-8.952-17.644-11.574-18.09" transform="translate(-82.364 -44.534)" fill="url(#linear-gradient-5)"/>
            <path id="Subtraction_2" data-name="Subtraction 2" d="M7.352,19.668c-1.316,0-2.811-.925-4.208-2.6A18.089,18.089,0,0,1,.038,11.307,9.144,9.144,0,0,1,.182,8.584,3.885,3.885,0,0,1,1.448,6.363,21.474,21.474,0,0,0,7.074,0C8.237,2.892,11,5.552,13.119,7.274c.9.737,1.859,2.391,1.273,6.092a12.307,12.307,0,0,1-2.874,4.279A7.819,7.819,0,0,1,7.979,19.6,2.824,2.824,0,0,1,7.352,19.668Z" transform="translate(27.361 53.632)" fill="#f0cbb0" stroke="rgba(0,0,0,0)" stroke-width="1"/>
            <path id="Path_73573" data-name="Path 73573" d="M121.626,124.443a6.538,6.538,0,0,0,2.8.069c.25-.048.144-.43-.106-.383a6.06,6.06,0,0,1-2.586-.069c-.247-.061-.353.321-.105.382" transform="translate(-91.313 -60.358)" fill="#1d426d"/>
            <path id="Path_73574" data-name="Path 73574" d="M133.99,124.443a6.536,6.536,0,0,0,2.8.069c.25-.048.145-.43-.105-.383a6.059,6.059,0,0,1-2.586-.069c-.248-.061-.353.321-.105.382" transform="translate(-97.328 -60.358)" fill="#1d426d"/>
            <path id="Path_73575" data-name="Path 73575" d="M129.164,127.753a11.948,11.948,0,0,1-.6,2.761.2.2,0,0,0,.071.272,2.467,2.467,0,0,0,1.717-.006c.249-.059.143-.441-.105-.383a2.11,2.11,0,0,1-1.412.046l.071.271a12.225,12.225,0,0,0,.637-2.856c.044-.25-.338-.357-.382-.105" transform="translate(-94.748 -62.088)" fill="#1d426d"/>
            <path id="Path_73584" data-name="Path 73584" d="M127.751,339.7c-.329,3.159-2.5,5.158-.066,8.657,3.217,4.629,3.2,4.184,3.884,4.781,4.209,3.683,7.342,1.494,7.47.427.1-.811-.281-2-1.75-3.372-2.981-2.787-6.189-4.824-3.415-7.811" transform="translate(-93.777 -165.28)" fill="#ffcb24"/>
            <path id="Path_73576" data-name="Path 73576" d="M101.4,301.085s-.567,1.02-4.138,0c-1.636-.467-2.21.34-2.21.34L75.574,244.32a9.165,9.165,0,1,1,17.8-4.114Z" transform="translate(-68.769 -113.073)" fill="url(#linear-gradient-6)"/>
            <path id="Path_73577" data-name="Path 73577" d="M190.519,67.228c-1.057,2.1-10.926,19.759-11.1,19.938-.128.05-16.779,4.087-21.128,3.486l2.834,3.741c3.283.39,15.556-.341,17.019-.68,2.381-.553,4-.17,5.868-2.463,1.152-1.411,8.21-12.354,13.292-20.968a9.667,9.667,0,0,1-6.789-3.054" transform="translate(-109.224 -32.71)" fill="#f0cbb0"/>
            <path id="Path_73578" data-name="Path 73578" d="M217.78,47.909l-2.522,13.66,10.259,4.761c-.793-.51.453-5.328.907-10.826.638-7.735-8.644-7.6-8.644-7.6" transform="translate(-136.938 -23.308)" fill="#0af"/>
            <path id="Path_73579" data-name="Path 73579" d="M138.018,87.008h0a2.333,2.333,0,0,0-.788,3.2l3.587,5.926a2.325,2.325,0,0,0,2.544,1.048l5.536,8.581a.7.7,0,1,0,1.2-.724l-5.536-8.581a2.325,2.325,0,0,0,.251-2.74L141.221,87.8a2.333,2.333,0,0,0-3.2-.788" transform="translate(-98.809 -42.167)" fill="#0af"/>
            <g id="Group_8642" data-name="Group 8642" transform="translate(47.251 58.22)" opacity="0.2">
              <g id="Group_7890" data-name="Group 7890">
                <g id="Group_7889" data-name="Group 7889" clip-path="url(#clip-path-4)">
                  <path id="Path_73291" data-name="Path 73291" d="M158.076,116.949l-2.3-3.564a11,11,0,0,1-1.029.985l1.818,2.817a9.448,9.448,0,0,1,1.511-.238" transform="translate(-154.748 -113.385)" fill="#1d426d"/>
                </g>
              </g>
            </g>
            <path id="Path_73585" data-name="Path 73585" d="M126.019,346.48c.012-.693.442-2.467,1.153-2.646.632-.16.628.972.085,1.408-1.963,1.579,2.3,8.836,8.671,9.647,5.456.695-.2-3.579.848-2.946,2.262,1.366,3.207,3.447,2.193,5.172-.711,1.209-2.225,1.315-3.635,1.243a7.126,7.126,0,0,1-3.87-1.64,16.064,16.064,0,0,1-3.593-3.947,10.762,10.762,0,0,1-1.852-6.292" transform="translate(-93.519 -167.282)" fill="#4a85ba"/>
            <path id="Path_73580" data-name="Path 73580" d="M156.832,109.738c-2.055-.879-3.047-3.656-5.2-3.344-.6.086.389,1.138.255,1.247-.6.482-2.09.879-1.686,1.8,1.233,2.806,2.355,3.865,3.189,3.7,2.55-.51,1.176.227,4.7.4Z" transform="translate(-105.251 -51.752)" fill="#ceb399"/>
            <path id="Path_73581" data-name="Path 73581" d="M126.834,289.258a1.813,1.813,0,0,0,2.21,1.474c4.138-.567,4.308.34,4.308.34l23.438-49.21a9.165,9.165,0,1,0-17.973-3.3Z" transform="translate(-93.917 -112.07)" fill="url(#linear-gradient-6)"/>
          </g>
        </g>
      </g>
    </g>
  </g>
</svg>
