<svg id="Group_16739" data-name="Group 16739" xmlns="http://www.w3.org/2000/svg" xmlns:xlink="http://www.w3.org/1999/xlink" width="1371.04" height="282" viewBox="0 0 1371.04 282">
  <defs>
    <linearGradient id="linear-gradient" x1="0.519" y1="1" x2="0.994" y2="0.025" gradientUnits="objectBoundingBox">
      <stop offset="0" stop-color="#1d426d"/>
      <stop offset="1" stop-color="#227cbe"/>
    </linearGradient>
    <linearGradient id="linear-gradient-2" x1="0.5" x2="0.5" y2="1" gradientUnits="objectBoundingBox">
      <stop offset="0" stop-color="#03a8fa" stop-opacity="0.11"/>
      <stop offset="1" stop-color="#00aefc" stop-opacity="0.757"/>
    </linearGradient>
    <linearGradient id="linear-gradient-5" x1="0.5" x2="0.5" y2="1" gradientUnits="objectBoundingBox">
      <stop offset="0" stop-color="#b8e5fc" stop-opacity="0.91"/>
      <stop offset="1" stop-color="#44b0e3"/>
    </linearGradient>
    <clipPath id="clip-path">
      <rect id="Rectangle_3158" data-name="Rectangle 3158" width="20.555" height="43.601" fill="none"/>
    </clipPath>
    <clipPath id="clip-path-2">
      <rect id="Rectangle_3159" data-name="Rectangle 3159" width="29.326" height="1.503" fill="none"/>
    </clipPath>
    <clipPath id="clip-path-3">
      <rect id="Rectangle_3160" data-name="Rectangle 3160" width="8.192" height="1.503" fill="none"/>
    </clipPath>
    <clipPath id="clip-path-4">
      <rect id="Rectangle_3161" data-name="Rectangle 3161" width="8.193" height="1.503" fill="none"/>
    </clipPath>
    <linearGradient id="linear-gradient-6" x1="0.153" y1="0.027" x2="0.821" y2="0.986" gradientUnits="objectBoundingBox">
      <stop offset="0" stop-color="#01234a"/>
      <stop offset="1" stop-color="#0166a5"/>
    </linearGradient>
    <linearGradient id="linear-gradient-7" x1="0.153" y1="0.027" x2="0.821" y2="0.986" gradientUnits="objectBoundingBox">
      <stop offset="0" stop-color="#163d6a"/>
      <stop offset="1" stop-color="#0166a5"/>
    </linearGradient>
    <linearGradient id="linear-gradient-8" x1="0.109" y1="0.837" x2="0.987" y2="0.04" gradientUnits="objectBoundingBox">
      <stop offset="0" stop-color="#ffe624"/>
      <stop offset="1" stop-color="#f5d319"/>
    </linearGradient>
  </defs>
  <g id="Group_9396" data-name="Group 9396" transform="translate(6175.797 -351.397)">
    <path id="Path_74214" data-name="Path 74214" d="M0,0H1367V219.507H0Z" transform="translate(-6175.797 413.891)" fill="url(#linear-gradient)"/>
    <g id="Group_16740" data-name="Group 16740">
      <path id="Rectangle_3509" data-name="Rectangle 3509" d="M88.2,0h66.548a88.2,88.2,0,0,1,88.2,88.2v88.2a0,0,0,0,1,0,0H88.2A88.2,88.2,0,0,1,0,88.2v0A88.2,88.2,0,0,1,88.2,0Z" transform="translate(-5182.695 457.007)" fill="url(#linear-gradient-2)"/>
      <path id="Rectangle_3674" data-name="Rectangle 3674" d="M102.7,0h62.548a102.7,102.7,0,0,1,102.7,102.7v102.7a0,0,0,0,1,0,0H102.7A102.7,102.7,0,0,1,0,102.7v0A102.7,102.7,0,0,1,102.7,0Z" transform="translate(-5072.695 351.397)" opacity="0.423" fill="url(#linear-gradient-2)"/>
      <path id="Rectangle_3675" data-name="Rectangle 3675" d="M86.123,0h0a86.123,86.123,0,0,1,86.123,86.123V208.391a0,0,0,0,1,0,0H86.123A86.123,86.123,0,0,1,0,122.267V86.123A86.123,86.123,0,0,1,86.123,0Z" transform="translate(-5135.891 523.644) rotate(-90)" opacity="0.423" fill="url(#linear-gradient-2)"/>
      <g id="Group_8923" data-name="Group 8923" transform="translate(-5149.834 440.203)">
        <path id="Path_73539" data-name="Path 73539" d="M115.345,267.556H39.977c-1.1,0-1.983-1.983-1.983-1.983V176.124a3.42,3.42,0,0,1,3.419-3.42h72.5a3.42,3.42,0,0,1,3.419,3.42v89.449a1.983,1.983,0,0,1-1.983,1.983" transform="translate(-37.994 -74.362)" fill="url(#linear-gradient-5)"/>
        <path id="Path_73540" data-name="Path 73540" d="M153.956,193.734H121.508a1,1,0,0,1-1-1v-9.9a1,1,0,0,1,1-1h32.449a1,1,0,0,1,1,1v9.9a1,1,0,0,1-1,1" transform="translate(-79.167 -78.916)" fill="#1d426d"/>
        <path id="Path_73547" data-name="Path 73547" d="M62.055,190.037a3.02,3.02,0,1,1-3.02-3.02,3.02,3.02,0,0,1,3.02,3.02" transform="translate(-46.985 -81.505)" fill="none"/>
        <path id="Path_73546" data-name="Path 73546" d="M62.055,190.037a3.02,3.02,0,1,1-3.02-3.02A3.02,3.02,0,0,1,62.055,190.037Z" transform="translate(-46.985 -81.505)" fill="none" stroke="#1d426d" stroke-width="2"/>
        <path id="Path_73544" data-name="Path 73544" d="M80.26,190.037a3.02,3.02,0,1,1-3.02-3.02,3.02,3.02,0,0,1,3.02,3.02" transform="translate(-56.072 -81.505)" fill="none"/>
        <path id="Path_73545" data-name="Path 73545" d="M80.26,190.037a3.02,3.02,0,1,1-3.02-3.02A3.02,3.02,0,0,1,80.26,190.037Z" transform="translate(-56.072 -81.505)" fill="none" stroke="#0af" stroke-width="2"/>
        <path id="Path_73541" data-name="Path 73541" d="M90.278,277.4a27,27,0,1,1,27-27,27.031,27.031,0,0,1-27,27" transform="translate(-50.61 -99.657)" fill="#0af"/>
        <path id="Path_73542" data-name="Path 73542" d="M88.377,223.4A25.093,25.093,0,1,1,63.284,248.5,25.094,25.094,0,0,1,88.377,223.4m0-3.815A28.908,28.908,0,1,0,117.285,248.5a28.941,28.941,0,0,0-28.908-28.908" transform="translate(-48.71 -97.758)" fill="#fff"/>
        <g id="Group_8641" data-name="Group 8641" transform="translate(14.575 126.062)" opacity="0.4">
          <g id="Group_7754" data-name="Group 7754">
            <g id="Group_7753" data-name="Group 7753" clip-path="url(#clip-path)">
              <path id="Path_73020" data-name="Path 73020" d="M75.711,271.636a29.362,29.362,0,0,1,4.338-5.623l.116-.115a23.766,23.766,0,0,0,6.753-21.938,38.322,38.322,0,0,1-.84-6.5,25.239,25.239,0,0,1,1.562-9.425,25.083,25.083,0,0,0-11.929,43.6" transform="translate(-67.084 -228.035)" fill="#1d426d"/>
            </g>
          </g>
        </g>
        <path id="Path_73543" data-name="Path 73543" d="M148.446,240.709c-1.77,3.994-2.932,10.711-2.932,18.326s1.162,14.332,2.932,18.326a25.074,25.074,0,0,0,0-36.652" transform="translate(-91.645 -108.298)" fill="#fff"/>
        <g id="Group_8638" data-name="Group 8638" transform="translate(43.903 108.113)" opacity="0.4">
          <g id="Group_7757" data-name="Group 7757">
            <g id="Group_7756" data-name="Group 7756" clip-path="url(#clip-path-2)">
              <line id="Line_1" data-name="Line 1" x2="27.822" transform="translate(0.752 0.752)" fill="none" stroke="#0af" stroke-linecap="round" stroke-width="3"/>
            </g>
          </g>
        </g>
        <line id="Line_49" data-name="Line 49" x2="6.689" transform="translate(65.787 108.865)" fill="none" stroke="#0af" stroke-linecap="round" stroke-width="3"/>
        <g id="Group_8640" data-name="Group 8640" transform="translate(51.375 108.113)" opacity="0.6">
          <g id="Group_7760" data-name="Group 7760">
            <g id="Group_7759" data-name="Group 7759" clip-path="url(#clip-path-3)">
              <line id="Line_3" data-name="Line 3" x2="6.689" transform="translate(0.751 0.752)" fill="none" stroke="#0af" stroke-linecap="round" stroke-width="3"/>
            </g>
          </g>
        </g>
        <g id="Group_8639" data-name="Group 8639" transform="translate(57.705 108.113)" opacity="0.8">
          <g id="Group_7763" data-name="Group 7763">
            <g id="Group_7762" data-name="Group 7762" clip-path="url(#clip-path-4)">
              <line id="Line_4" data-name="Line 4" x2="6.689" transform="translate(0.752 0.752)" fill="none" stroke="#0af" stroke-linecap="round" stroke-width="3"/>
            </g>
          </g>
        </g>
        <path id="Path_73510" data-name="Path 73510" d="M285.52,60.735c0,1.08-.447,1.954-1,1.954s-1-.875-1-1.954.447-1.954,1-1.954,1,.875,1,1.954" transform="translate(-160.514 -29.333)" fill="#4a85ba"/>
        <path id="Path_73511" data-name="Path 73511" d="M299.36,102.768c-.4.949-3.6,9.031-6.387,14.484l5.746,2.321c4.17-4.922,8.571-13.667,9.092-15.809.559-2.3-3.342-13.931-3.131-14.216-3.325-1.192-8.193,3.115-10.6.261,3.628,7.152,5.633,12.121,5.281,12.959" transform="translate(-165.228 -44.58)" fill="#f0cbb0"/>
        <path id="Path_73512" data-name="Path 73512" d="M280.718,34.469c-.136.956-.165-7.074,1.266-.633,1.275,5.737-3.033,9.355-4.247,7.368-.059-.1-.233-.826-.335-.846a.194.194,0,0,1-.137-.077c-.113-.17.206-.289.427-.492a12.6,12.6,0,0,0,2.943-5.127" transform="translate(-157.378 -15.626)" fill="#1d426d"/>
        <path id="Path_73524" data-name="Path 73524" d="M212.793,113.5c3.119-6.254,10.077-20.095,9.729-19.747-.651-.29-5.243-4.018-5.27-4.633-.416.194-9.769,22.657-10.366,24.554Z" transform="translate(-122.271 -44.475)" fill="#f0ba92"/>
        <path id="Path_73513" data-name="Path 73513" d="M223.48,76.8a123.626,123.626,0,0,1,6.515-12.943c2.025-2.711,5.733-2.7,8.653-2.549,0,0,4.677-.506,9.965-.592,1.574-.026,6.558.115,8.022.316,2.567.352,4.733.866,5.876,1.812,3.706,3.069,7.239,11.322,8.455,13.782-3.764,5.675-9.052,5.291-8.976,5.617-.2-.26-.626-1.654-1.169-2.87-.027,6.057-.129,27.568.162,28.218.261.58-30.318,8.507-29.66,3.407.955-7.4,2.059-20.213.785-30.666-.025-.2.255-.738-.672,1.23-2.78.521-8.615-3.2-7.956-4.763" transform="translate(-130.525 -30.296)" fill="#0af"/>
        <path id="Path_73548" data-name="Path 73548" d="M230.246,353.677c-1.613,2.111-1.925,5.237-4.449,6.064a79.961,79.961,0,0,0-9.446,4.12,4.016,4.016,0,0,0-1.793,4.822c.8,1.881,21.347-.28,23.069-2.781,1.69-2.455.257-4.653.765-7.706" transform="translate(-125.969 -176.486)" fill="#014b81"/>
        <path id="Path_73549" data-name="Path 73549" d="M276.651,358.813c-.718,2.05-3.072,4.2-3.395,6.657a4.648,4.648,0,0,0,1.149,4.242c1.92,2.07,7.189,2.128,11.291,1.514,3.347-.5,4.19-5.011,2.905-7.088a19.971,19.971,0,0,1-2.92-6.685" transform="translate(-155.342 -178.372)" fill="#014d83"/>
        <path id="Path_73514" data-name="Path 73514" d="M251.671,136.1c2.548-11.582,2.693,5.2,2.794,10.189l1.436,66.924h.482a12.547,12.547,0,0,1,6.756-2.068,12.114,12.114,0,0,1,6.323,1.751c.712-5.8.276-24.622.276-44.134,0-16.1,2.333-34.6,2.413-48.818.07-12.25-3.638-29.882-3.658-30.555a31.582,31.582,0,0,1,.2-5.451,2.271,2.271,0,0,1-2.514.39c-4.01-2.025-2.691-13.468-2.691-14.882l.664-8.573a1.1,1.1,0,0,0-.656-1.1l-2.348-1.032s.555.3.7,2a47.179,47.179,0,0,1-.475,5.4c-.66,5.985-3.837,9.3-8.035,9.3a7.6,7.6,0,0,1-7.6-7.6l-.666-7.781-1.844.092a.5.5,0,0,0-.473.5v8.213c.348,13.493-4.92,19.256-4.92,19.256.013.381-1.833,21.825-1.166,31.488.135,1.953,14.6,18.348,15,16.49" transform="translate(-137.06 -29.318)" fill="url(#linear-gradient-6)"/>
        <path id="Path_73525" data-name="Path 73525" d="M233.943,161.829c-3.252,14.054.155,28.488.869,50.555.572,17.668.446,44.393.564,46.064a12.266,12.266,0,0,1-.446,5.489c.559.15.174-1.043,4.517-.434,1.763.247,4.083,2.346,8.3,1.251.337-.539,1.746-71.312,2.936-79.028.772-5.018,1.479-10.008,1.809-15.038Z" transform="translate(-135.082 -80.754)" fill="url(#linear-gradient-7)"/>
        <path id="Path_73515" data-name="Path 73515" d="M261.705,140.409c-3.7,1.067.383-9.795-7.76-6.834-2.548.927-3.706,3.822-7.024.982-2.527-2.164-7.007-1.161-10.7.292-10.546,4.155-8.139,8.757-8.139,8.757Z" transform="translate(-132.733 -66.401)" fill="#924ad1"/>
        <path id="Path_73516" data-name="Path 73516" d="M265.5,141.533s-5.109,25.681-4.031,25.168l9.642-1.1c1.94-.258,2.608-2.068,3.077-4.357l4.335-16.37Zm.122,20.232-.116,0c-.151.005-.239-.347-.2-.786l2.042-14.115c.075-.388.28-.673.456-.638l.135.027c.176.035.255.373.177.756l-2.142,13.954c-.046.434-.206.792-.357.8m2.108-.079-.115,0c-.152.006-.231-.334-.178-.758l2.352-13.6c.083-.373.293-.646.468-.611l.134.027c.175.035.247.361.161.729L268.1,160.916c-.057.419-.224.765-.376.771m2.505-.822c-.066.4-.242.737-.393.743l-.116,0c-.152.006-.224-.322-.161-.731l2.64-13.094c.09-.358.305-.619.478-.584l.132.027c.173.035.238.348.146.7Zm2.131-.052c-.075.389-.258.711-.41.716l-.116,0c-.152.006-.217-.311-.145-.7l2.906-12.584c.1-.343.315-.592.488-.557l.131.027c.172.035.23.337.132.675Z" transform="translate(-149.432 -70.627)" fill="#ceb218"/>
        <path id="Path_73526" data-name="Path 73526" d="M223.413,169.965l-.173.029c.235-1.722.455-3.446.534-5.184a26.924,26.924,0,0,1,1.077-7.929,2.253,2.253,0,0,1,.24.044,2.894,2.894,0,0,1,1.218.6,3.482,3.482,0,0,1,2.209.516,2.424,2.424,0,0,1,.892.979,3.129,3.129,0,0,1,.688.083,2.753,2.753,0,0,1,2.156,2.465c.546,4.337-4.47,7.581-8.842,8.4" transform="translate(-130.432 -78.286)" fill="#003185"/>
        <path id="Path_73527" data-name="Path 73527" d="M217.963,136.883s-2.771-4.179-10.762-2.21c-6.111,1.506-4.054-5.1-14.362-1.158-9.5,3.628-9.925,7.855-9.925,7.855l3.139,8.095,28.6,2.523Z" transform="translate(-110.309 -65.991)" fill="#42d1c3"/>
        <path id="Path_73528" data-name="Path 73528" d="M232.5,150.566s-7.276-5.456-22.257-2.857-5.6,8.925,1.631,8.925,26.684-1.322,20.627-6.068" transform="translate(-119.961 -73.358)" fill="#42d1c3"/>
        <path id="Path_73529" data-name="Path 73529" d="M205.193,147.82H187.07a3.075,3.075,0,0,0-.489,1.021l3.139,8.1,15.473,1.365Z" transform="translate(-112.137 -73.765)" fill="#42d1c3"/>
        <path id="Path_73530" data-name="Path 73530" d="M233.579,156.426s-15.059,2.328-11.042-4.239c4.7-7.685-18.406,6.746-18.406,6.746v1.643s15.5-6.4,20.131-3.088,9.124,1.42,9.318-1.062" transform="translate(-120.898 -74.819)" fill="#662d91"/>
        <path id="Path_73531" data-name="Path 73531" d="M221.448,164.5s-15.924-9.239-23.5-7.776-15.307,4.84-14.385,5.635-3.346,9.544,2.489,9.32,34.164-1.466,34.164-1.466Z" transform="translate(-110.307 -78.129)" fill="#003185"/>
        <path id="Path_73532" data-name="Path 73532" d="M223.489,141.505s-3.88,25.273-3.991,25.163H183.647a3.911,3.911,0,0,1-3.793-2.96l-2.759-22.2Zm-9.634,20.033a.782.782,0,0,0,.782.783h.33a.782.782,0,0,0,.782-.783V146.774a.782.782,0,0,0-.782-.783h-.33a.782.782,0,0,0-.782.783Zm-6.021,0a.783.783,0,0,0,.783.783h.33a.783.783,0,0,0,.783-.783V146.774a.783.783,0,0,0-.783-.783h-.33a.783.783,0,0,0-.783.783Zm-6.021,0a.783.783,0,0,0,.783.783h.329a.783.783,0,0,0,.783-.783V146.774a.783.783,0,0,0-.783-.783H202.6a.783.783,0,0,0-.783.783Zm-6.021,0a.783.783,0,0,0,.783.783h.33a.783.783,0,0,0,.783-.783V146.774a.783.783,0,0,0-.783-.783h-.33a.783.783,0,0,0-.783.783Zm-6.021,0a.783.783,0,0,0,.783.783h.33a.783.783,0,0,0,.783-.783V146.774a.782.782,0,0,0-.783-.783h-.33a.782.782,0,0,0-.783.783Zm-6.021,0a.783.783,0,0,0,.782.783h.33a.783.783,0,0,0,.783-.783V146.774a.783.783,0,0,0-.783-.783h-.33a.783.783,0,0,0-.782.783Z" transform="translate(-107.406 -70.613)" fill="url(#linear-gradient-8)"/>
        <path id="Path_73533" data-name="Path 73533" d="M217.99,156.065l-4.169-.391V163.8c.868,3.3,5.559,1.951,5.559,1.951s-2.953-4.69-1.39-9.685" transform="translate(-125.73 -77.684)" fill="#74e2d5"/>
        <path id="Path_73534" data-name="Path 73534" d="M221.545,140.854s-5.63-.891-5.328,3.185c.347,4.691,2.721,6.775,2.721,6.775a16.375,16.375,0,0,0-8.8,1.564c-2.548,1.332-1.506,4.807-1.506,4.807s-1.9-.722-1.455-8.106c.3-4.923-2.785-8.018-4.915-8.4,5.849-1.39,19.284.174,19.284.174" transform="translate(-119.962 -69.914)" fill="#42d1c3"/>
        <path id="Path_73517" data-name="Path 73517" d="M269.188,53.32c-.981-.122-1.106-.83-1.307-1.8a24.385,24.385,0,0,1-.215-5.918l-9.825.379c-.01.239,2.108,7.106-1.392,7.675,0,0,.459,7.52,6.4,7.09,5.993-.434,6.4-7.419,6.341-7.427" transform="translate(-147.002 -22.756)" fill="#f0ba92"/>
        <path id="Path_73518" data-name="Path 73518" d="M248.112,21.734a26.7,26.7,0,0,0,.073,3.76c.11,1.325,1.067.957.883,2.429a7.921,7.921,0,0,0,.11,2.8c.833,4.639,2.909,6.2,3.239,6.551,2.135,2.282,3.147,2.411,4.747,2.392a4.73,4.73,0,0,0,3.987-1.6c6.477-6.684,5.621-13.48,5.585-13.842-.068-.678-18.625-2.486-18.625-2.486" transform="translate(-142.826 -10.847)" fill="#f0cbb0"/>
        <path id="Path_73519" data-name="Path 73519" d="M288.684,114.539c-1.476,4.527-7.664,17.173-8.677,19.013-1.236,2.247-4.072,8.71-6.111,10.194-1.15.837-3.113,4.486-3.113,4.486s-.036.723,1.074.471,1.9-2.369,2.221-1.612c.229.536-.235,2.967-.6,4.754-.115.559-1.408.236-1.213.775.683,1.891,5.452-.125,6.921-2a11.956,11.956,0,0,0,1.147-4.592,11.307,11.307,0,0,1,1.9-5.19c3.4-4.877,7.745-11.937,10.281-16.623.829-1.058-3.827-9.678-3.827-9.678" transform="translate(-154.155 -57.157)" fill="#f0cbb0"/>
        <path id="Path_73520" data-name="Path 73520" d="M267.648,21.189c-1.891-.019-4.44.285-5.9.179a.38.38,0,0,0-.386.507c.338.939,1.566,2.21,6.04,2,4.069-.19,3.394,5.976,4.33,5.376,1.143-.734.568-3.928,1.653-4.783a.382.382,0,0,0-.016-.624L271.021,22.3a12.423,12.423,0,0,0-3.373-1.115" transform="translate(-149.447 -10.575)" fill="#1d426d"/>
        <path id="Path_73535" data-name="Path 73535" d="M247.551,24.042c.191.637-.3-.754,1.172-1.753,1.8-1.219,2.264-.759,2.353-.854.073-.078.224-.907.323-.95a6.955,6.955,0,0,1,1.492-.464l-4.689-.1c-.574-.013-.744.53-1.018,1.034-.447.824.251,2.7.367,3.09" transform="translate(-142.307 -9.941)" fill="#1d426d"/>
        <path id="Path_73536" data-name="Path 73536" d="M266.171,35.249a6.332,6.332,0,0,1,2.8-1.02" transform="translate(-151.855 -17.083)" fill="none" stroke="#1d426d" stroke-width="0.3"/>
        <path id="Path_73537" data-name="Path 73537" d="M254.966,35.634a6.089,6.089,0,0,0-2.8-1.02" transform="translate(-144.865 -17.275)" fill="none" stroke="#1d426d" stroke-width="0.3"/>
        <path id="Path_73538" data-name="Path 73538" d="M261.125,38.387l-.385,3.531A1,1,0,0,0,261.525,43a2.469,2.469,0,0,0,1.351,0" transform="translate(-149.14 -19.156)" fill="none" stroke="#1d426d" stroke-width="0.3"/>
        <path id="Path_73521" data-name="Path 73521" d="M266.725,13.818c-.034.488.192.094-.264-.084a27.346,27.346,0,0,0-5.092-1.482c-14.293-2.675-13.865-.025-13.865-.025l.019-2.814c-.6-3.215,1.472-9.657,10.121-9.406,8.735.631,10.777,6.1,9.777,10.708-.565,2.606-.7,3.1-.7,3.1" transform="translate(-142.502 -0.001)" fill="#ffcb24"/>
        <path id="Path_73522" data-name="Path 73522" d="M261.849,21.074a43.544,43.544,0,0,0-12.358-2.223c-3.842-.109-6.554-.113-6.788,1.195-.053.291.232.843,0,.813-4.661-.6-7.657-6.151-1.148-6.287,9.155-.191,16.852,4.159,20.294,6.5" transform="translate(-137.7 -7.269)" fill="#45c8ff"/>
        <path id="Path_73523" data-name="Path 73523" d="M284.063,27.714c-.435.451-.5.985-.664,2.038-.143.91-.413,2.077-.413,2.077,1.41-2.773-.036,2.6.025,2.463.075-.172,2.124-3.582,2.082-5.665-.015-.74-.55-1.41-1.03-.913" transform="translate(-160.244 -13.744)" fill="#f0ba92"/>
      </g>
    </g>
    <text id="Welcome_to_the_Merrill_Community_Trusted_Reliable_Safe." data-name="Welcome to the Merrill Community!
Trusted, Reliable &amp; Safe." transform="translate(-6061.797 517.397)" fill="#fff" font-size="26" font-family="Inter" font-weight="700"><tspan x="0" y="0">Welcome to the Merrill Community!</tspan><tspan fill="#0af"><tspan x="0" y="31">Trusted, Reliable &amp; Safe.</tspan></tspan></text>
  </g>
</svg>
