<svg xmlns="http://www.w3.org/2000/svg" xmlns:xlink="http://www.w3.org/1999/xlink" width="111" height="111" viewBox="0 0 123 123">
  <defs>
    <clipPath id="clip-path">
      <circle id="Ellipse_124" data-name="Ellipse 124" cx="55.5" cy="55.5" r="55.5" transform="translate(626.094 1925.094)" fill="#d8f6ff" stroke="#707070" stroke-width="1"/>
    </clipPath>
    <linearGradient id="linear-gradient" x1="0.479" y1="1" x2="1.109" y2="-0.716" gradientUnits="objectBoundingBox">
      <stop offset="0" stop-color="#0af" stop-opacity="0.659"/>
      <stop offset="1" stop-color="#4bc5ff"/>
    </linearGradient>
    <linearGradient id="linear-gradient-2" x1="0.157" y1="1" x2="0.642" y2="0.099" gradientUnits="objectBoundingBox">
      <stop offset="0" stop-color="#0af" stop-opacity="0.376"/>
      <stop offset="1" stop-color="#3bc2ff"/>
    </linearGradient>
    <linearGradient id="linear-gradient-3" x1="0.153" y1="0.027" x2="0.821" y2="0.986" gradientUnits="objectBoundingBox">
      <stop offset="0" stop-color="#0af"/>
      <stop offset="1" stop-color="#0166a5"/>
    </linearGradient>
    <clipPath id="clip-path-2">
      <rect id="Rectangle_3658" data-name="Rectangle 3658" width="1.943" height="1.503" fill="none"/>
    </clipPath>
  </defs>
  <g id="Group_9345" data-name="Group 9345" transform="translate(-541 -1879)">
    <g id="Ellipse_123" data-name="Ellipse 123" transform="translate(547 1885)" fill="#fff" stroke="#fff" stroke-width="6">
      <circle cx="55.5" cy="55.5" r="55.5" stroke="none"/>
      <circle cx="55.5" cy="55.5" r="58.5" fill="none"/>
    </g>
    <g id="Mask_Group_13" data-name="Mask Group 13" transform="translate(-79.094 -40.094)" clip-path="url(#clip-path)">
      <g id="Group_9332" data-name="Group 9332" transform="translate(581.343 1877.541)">
        <path id="Path_74176" data-name="Path 74176" d="M61.408,0H96.5a61.408,61.408,0,0,1,0,122.815H61.408A61.408,61.408,0,0,1,61.408,0Z" transform="translate(0 35.737)" fill="#d8f6ff" opacity="0.901"/>
        <g id="Group_9327" data-name="Group 9327" transform="translate(34.166 96.836)">
          <path id="Path_74138" data-name="Path 74138" d="M47.691,280.251H14.967a.834.834,0,0,1-.834-.832l-.007-3.132H48.532l-.007,3.132a.834.834,0,0,1-.834.832" transform="translate(-12.771 -276.287)" fill="url(#linear-gradient)"/>
          <path id="Path_74139" data-name="Path 74139" d="M48.508,305.624H18.929a1.258,1.258,0,0,1-1.258-1.258l-.008-16.026H49.775l-.008,16.026a1.258,1.258,0,0,1-1.259,1.258" transform="translate(-15.161 -284.43)" fill="url(#linear-gradient-2)"/>
          <path id="Path_74140" data-name="Path 74140" d="M45.7,292.571H11.31a1.383,1.383,0,0,1-1.365-1.4V283.1a1.383,1.383,0,0,1,1.365-1.4v.6a.779.779,0,0,0-.761.794v8.068a.779.779,0,0,0,.761.794H45.7a.779.779,0,0,0,.76-.794V283.1a.779.779,0,0,0-.76-.794v-.6a1.383,1.383,0,0,1,1.365,1.4v8.068a1.383,1.383,0,0,1-1.365,1.4" transform="translate(-9.945 -279.949)" fill="#ffcb24"/>
          <path id="Path_74141" data-name="Path 74141" d="M59.254,313.17h-10.7a1.015,1.015,0,1,1,0-2.03h10.7a1.015,1.015,0,1,1,0,2.03" transform="translate(-35.348 -299.837)" fill="#ffcb24"/>
        </g>
        <g id="Group_9331" data-name="Group 9331" transform="translate(60.642 -3.218)">
          <path id="Path_74142" data-name="Path 74142" d="M130.807,336.826a8.967,8.967,0,0,1-4,3.445,53.92,53.92,0,0,0-6.066,3.353,2.7,2.7,0,0,0-.9,3.342c.653,1.209,14.277-1.529,15.272-3.312.977-1.751-.12-3.132.028-5.208" transform="translate(-111.917 -218.474)" fill="#3893e2"/>
          <path id="Path_74143" data-name="Path 74143" d="M165.692,156.21c.491-7.852,3.251-20.805.894-33.728a30.931,30.931,0,0,0-1.869-7.111c-2.887-6.148-4.226-7.355-4.226-7.355l-2.763,3.251-12.021,2.842s.49,3.511-.435,10.6c-1.117,8.564-2.845,20.925-2.254,35.443,0,0,.93,24.764,1.174,30.291,0,0,.2.813,1.869.65,1.12-.109,2.6-.813,4.511.529,0,0,3.944-57.284,4.556-59.386.652-2.24,2.88,59.792,2.88,59.792s.451-2.23,4.084-2.54c2.621-.223,3.015.906,3.032.532.732-15.523.081-26.007.569-33.809" transform="translate(-127.046 -70.061)" fill="url(#linear-gradient-3)"/>
          <path id="Path_74144" data-name="Path 74144" d="M185.316,338.455c-.258,1.438-1.364,2.988-1.317,4.651.023.79-.175,1.986.992,2.826,2.032,1.463,6.283.309,7.66-.2a3.1,3.1,0,0,0,1.285-4.746,15.066,15.066,0,0,1-2.768-4.4" transform="translate(-153.702 -218.318)" fill="#3893e2"/>
          <path id="Path_74145" data-name="Path 74145" d="M201.836,189.886l4.8.02.2-2.118s.183-.792-4.812-1.165c-.2-.015-.307,1.033-.267,1.891.021.458.048.915.078,1.372" transform="translate(-165.217 -121.048)" fill="#ffcb24"/>
          <path id="Path_74146" data-name="Path 74146" d="M167.9,156.21c.491-7.852,3.251-20.805.894-33.728a30.932,30.932,0,0,0-1.869-7.111c-2.887-6.148-4.226-7.355-4.226-7.355l-2.763,3.251-12.021,2.842-.573,12.941s9.607-9.988,9.993,5.185c.652-2.24,2.88,59.792,2.88,59.792s.451-2.23,4.084-2.54c2.621-.223,3.015.906,3.032.532.732-15.523.081-26.007.569-33.809" transform="translate(-129.253 -70.061)" fill="#0af"/>
          <path id="Path_74147" data-name="Path 74147" d="M205.663,192.219c.04-.858.3-2.246.1-2.242a6.679,6.679,0,0,1-4.772,1.133l-.865,12.259s2.876,4.475,3.352,4.28a67.211,67.211,0,0,0,2.182-15.43" transform="translate(-164.165 -123.225)" fill="#ffcb24"/>
          <path id="Path_74148" data-name="Path 74148" d="M111.85,87.2q-1.18-.72-2.285-1.552a.553.553,0,0,0-.424-.056.56.56,0,0,0-.329.253.554.554,0,0,0-.056.424.643.643,0,0,0,.253.329q1.1.831,2.285,1.552a.55.55,0,0,0,.555-.95" transform="translate(-104.886 -55.504)" fill="#1d426d"/>
          <path id="Path_74149" data-name="Path 74149" d="M107.4,86.339a22.056,22.056,0,0,0,3.5,1.763.552.552,0,0,0,.676-.384.566.566,0,0,0-.384-.676c-.287-.115-.488-.2-.781-.333s-.561-.263-.838-.4q-.828-.422-1.618-.916a.555.555,0,0,0-.752.2.561.561,0,0,0,.2.752" transform="translate(-103.847 -55.339)" fill="#1d426d"/>
          <path id="Path_74150" data-name="Path 74150" d="M124.277,92.346c-.228,1.784.063,3.553-.016,5.337-.013.282.1-.209-.018.058a1.249,1.249,0,0,1,.638-.578,4.388,4.388,0,0,1,.585.03c.1-.09.064.123-.037-.031-.14-.213.01.054-.233-.193a35.1,35.1,0,0,1-2.962-3.544,1.326,1.326,0,0,0-1.755-.46,1.291,1.291,0,0,0-.46,1.755c.774,1.024,4.759,7.275,6.518,4.14a5.294,5.294,0,0,0,.264-2.787,21.1,21.1,0,0,1,.042-3.728,1.291,1.291,0,0,0-1.283-1.283,1.314,1.314,0,0,0-1.283,1.283" transform="translate(-112.084 -59.065)" fill="#f0ba92"/>
          <path id="Path_74151" data-name="Path 74151" d="M106.48,82.728a1.115,1.115,0,0,0-.741.9c1.1.489,4.706,5.409,4.966,5.71.425.492.8,1.019.864.922.09-.143,1.229-1.6,1.652-2.267,0,0-2.779-7.4-6.741-5.267" transform="translate(-102.944 -53.408)" fill="#1d426d"/>
          <path id="Path_74152" data-name="Path 74152" d="M107.375,86.54a.733.733,0,0,1-.614-.331L97.9,72.718a.733.733,0,1,1,1.226-.8L107.987,85.4a.733.733,0,0,1-.612,1.136" transform="translate(-97.783 -46.43)" fill="#0af"/>
          <path id="Path_74153" data-name="Path 74153" d="M133.386,9.764a8.737,8.737,0,0,1-6.744,11.388c-5.278.981-10.55-2.582-12.371-7.835-2.139-6.171,2.3-13.545,6.307-12.959,1.969.288,2.712-.63,4.339-.275,3.724.811,7.37,5.928,8.469,9.682" transform="translate(-108.114 0)" fill="#1d426d"/>
          <path id="Path_74154" data-name="Path 74154" d="M279.65,329.195c.72.129-5.7,1.125-10.286,1.967a65.5,65.5,0,0,1-7.64-1.544c-1.625-.732,5.395,1.984,5.12,2.031-6.235,1.074-13.483,1.861-15.523,1.626-6.339-.732-10.669-6.03-10.669-6.03l19-9.672s4.958,8.94,19.993,11.622" transform="translate(-190.452 -205.985)" fill="#3893e2"/>
          <path id="Path_74155" data-name="Path 74155" d="M247.83,334.307l-7.178,3.792s4.33,5.3,10.669,6.03c2.04.235,5.29.292,11.524-.783a47.592,47.592,0,0,1-9.346-3.217c-5.669-2.911-5.669-5.822-5.669-5.822" transform="translate(-190.453 -216.841)" fill="#2babfa"/>
          <path id="Path_74156" data-name="Path 74156" d="M146.064,55.963c.429-.007,3.915,0,5.092,4.967l.471,5.193.761,3.486a6.958,6.958,0,0,1-3.564,7.646,9.14,9.14,0,0,1-9.852-.871l-5.409-6.142L130,69.61s.776-6.873,3.734-8.894,10.6-4.723,12.334-4.753" transform="translate(-118.948 -36.299)" fill="#ffcb24"/>
          <path id="Path_74157" data-name="Path 74157" d="M155.7,65.266c2.428,4-4.3,8.946-5.981-3.288,0,0-1.483-7.247-.243-9.374a24.257,24.257,0,0,0-2.463,1.54,1.478,1.478,0,0,0-.66,1.18l-.178,4.877c-.016,3.926-5.1,5.2-5.621,2.118l-.6-5.016s-.934.452-1.421.745c-.255.153-.982.672-.982.672l-.569,8.6a11,11,0,0,0,1.034,7.026,49.15,49.15,0,0,1,4.634,8.317c1.86,4.118,15.608-9.117,15.608-9.117,1.982-.35-3.894-10.484-2.555-8.277" transform="translate(-123.083 -34.112)" fill="#0af"/>
          <path id="Path_74158" data-name="Path 74158" d="M147.765,46.541c-1-2.882-2.151-6.412-2.151-6.412l-3.849,5.591.933,2.319s1.234,3.465,3.281,3.177a3.836,3.836,0,0,0,1.785-4.675" transform="translate(-126.309 -26.029)" fill="#f0ba92"/>
          <path id="Path_74159" data-name="Path 74159" d="M135.133,15.819c1.2,4.724-.723,9.166-4.3,9.922s-7.446-2.462-8.647-7.186.723-9.166,4.3-9.922,7.446,2.462,8.647,7.186" transform="translate(-113.38 -5.529)" fill="#f0cbb0"/>
          <path id="Path_74160" data-name="Path 74160" d="M121.916,9.114s1.607,2.6-2.52,8.985c-1.53,2.367,1.513,6.11,1.513,6.11s-3.183.552-5.009-6.721c-.52-2.072,1.444-7.042,2.938-7.617a14.335,14.335,0,0,1,3.079-.757" transform="translate(-109.478 -5.912)" fill="#1d426d"/>
          <path id="Path_74161" data-name="Path 74161" d="M172.286,131.871c.844,1.46.852,2.36.512,2.542a1.969,1.969,0,0,1-2.167-1.663c-.3-1.283-.353-2.39-.014-2.573s1.008.553,1.668,1.694" transform="translate(-144.873 -84.418)" fill="#1d426d"/>
          <path id="Path_74162" data-name="Path 74162" d="M162.545,77.9a21.49,21.49,0,0,1,1.443,2.9c-.024-.06-.1-.279.005.015.049.136.1.272.142.41.091.277.175.557.248.839q.092.355.163.715.043.217.076.435c.009.058.072.647.046.32a8.924,8.924,0,0,1-.015,1.636c0,.012-.068.5-.018.2-.017.1-.038.2-.06.3a6.016,6.016,0,0,1-.2.716c-.021.059-.158.294-.138.347-.041-.106.174-.346.03-.073-.039.073-.075.147-.114.22a10.275,10.275,0,0,1-.562.918c-.207.3-.426.6-.654.887-.049.063-.286.342-.018.024l-.21.251q-.219.257-.445.507c-.624.692-1.284,1.351-1.964,1.987-.751.7-1.528,1.376-2.324,2.025q-.6.489-1.212.959-.267.2-.537.406l-.324.24q-.216.158,0,0l-.217.156a38.965,38.965,0,0,1-5.478,3.342,1.56,1.56,0,0,0-.619,2.1,1.582,1.582,0,0,0,2.1.618,45.192,45.192,0,0,0,10.46-7.339,27.808,27.808,0,0,0,3.907-4.294,8.92,8.92,0,0,0,1.736-5.422,16.05,16.05,0,0,0-3.936-9.7c-.524-.615.042.814-.691,1.255a1.571,1.571,0,0,0-.619,2.1" transform="translate(-131.262 -48.255)" fill="#f0cbb0"/>
          <rect id="Rectangle_3657" data-name="Rectangle 3657" width="1.467" height="92.019" transform="translate(8.571 39.125) rotate(-32.96)" fill="#1d426d"/>
          <path id="Path_74163" data-name="Path 74163" d="M238.8,325.615a.733.733,0,0,1-.33-1.388l19.458-9.805a.733.733,0,1,1,.66,1.31l-19.458,9.805a.723.723,0,0,1-.329.079" transform="translate(-188.772 -203.891)" fill="#0af"/>
          <path id="Path_74164" data-name="Path 74164" d="M142.476,141.876a6.851,6.851,0,0,0-3.053.4c-.9.362-1.721.846-1.652,1.891.207,3.144,5.42,5.038,5.164,3.438-.047-.3-.529-.736.9-1.224a2.113,2.113,0,0,0,1.328-1.52,2.315,2.315,0,0,0-.446-2.065,3.13,3.13,0,0,0-2.222-.779" transform="translate(-123.717 -92.005)" fill="#002045"/>
          <path id="Path_74165" data-name="Path 74165" d="M155.958,130c-2.362,2.079-5.018,4.154-8.286,4.3l2.689,3.775a52.144,52.144,0,0,0,6.765-3.185c.134-.07,1.169-.7,1.03-.641-1.218.5-3.159-3.527-2.2-4.251" transform="translate(-130.143 -84.326)" fill="#002045"/>
          <path id="Path_74166" data-name="Path 74166" d="M105.848,85.281s-.914-.865-1.158-.335c-.385.833-.735,3.194,2.134,4.815.773.437,1.076.391,1.282.283-.052-.13,1.156-.5-2.258-4.763" transform="translate(-102.096 -54.986)" fill="#1d426d"/>
          <path id="Path_74167" data-name="Path 74167" d="M159.122,29.148a13.1,13.1,0,0,1,.371,4.829.721.721,0,0,0,.078.006c.717-.015,1.153-1.115.973-2.457-.163-1.216-.775-2.21-1.421-2.377" transform="translate(-137.569 -18.905)" fill="#f0ba92"/>
          <path id="Path_74168" data-name="Path 74168" d="M141.768,23.965a6.908,6.908,0,0,0-2.919-6.14,12.749,12.749,0,0,0-3.26-1.377A4.484,4.484,0,0,1,132.66,13.9l.956-.365a3.141,3.141,0,0,0,.836,1.317c1.349,1.14,3.363,1.332,4.745,2.5a7.1,7.1,0,0,1,2.571,6.612" transform="translate(-120.404 -8.776)" fill="#1d426d"/>
          <g id="Group_9330" data-name="Group 9330" transform="translate(25.831 18.379)" opacity="0.5">
            <g id="Group_9329" data-name="Group 9329">
              <g id="Group_9328" data-name="Group 9328" clip-path="url(#clip-path-2)">
                <path id="Path_74169" data-name="Path 74169" d="M172.58,53.59a3.884,3.884,0,0,1,.657.063c-.236-.829-.673-1.391-1.116-1.347s-.752.661-.827,1.5a6.741,6.741,0,0,1,1.286-.217" transform="translate(-171.294 -52.304)" fill="#0af"/>
              </g>
            </g>
          </g>
          <path id="Path_74170" data-name="Path 74170" d="M182.535,62.286a20.123,20.123,0,0,0-5.348-4.551l-1.841,1.282-.529,4.868s3.869,4.6,3.839,4.5a52.622,52.622,0,0,0,3.878-6.1" transform="translate(-147.748 -37.448)" fill="#ffcb24"/>
          <path id="Path_74171" data-name="Path 74171" d="M142.209,7.482c-1.148-1.8-6.058-3.668-7.553-3.1-2.611.995-1.009,3.4-1.009,3.4a4.121,4.121,0,0,0,1.237,1.077c1.582.853,3.4,1.049,4.991,2.038a6.262,6.262,0,0,1,.749.481c2.188,1.181,3.177,5.012,3.177,5.012s2.438-2.585-1.592-8.909" transform="translate(-120.728 -2.776)" fill="#1d426d"/>
          <path id="Path_74172" data-name="Path 74172" d="M107.236,88.039a11.6,11.6,0,0,0,3.128,1.055,1.132,1.132,0,0,0,1.353-.768,1.109,1.109,0,0,0-.768-1.353,9.822,9.822,0,0,1-1.387-.388c-.257-.084-.512-.171-.766-.264-.11-.04-.219-.081-.328-.124-.233-.092.137.073-.121-.057-1.261-.635-2.376,1.261-1.11,1.9" transform="translate(-103.553 -55.789)" fill="#1d426d"/>
          <path id="Path_74173" data-name="Path 74173" d="M144.662,35.154a4.52,4.52,0,0,0,1.835-.621.137.137,0,0,0-.139-.237,4.2,4.2,0,0,1-1.7.583.142.142,0,0,0-.137.138.138.138,0,0,0,.137.137" transform="translate(-128.101 -22.232)" fill="#1d426d" stroke="#1d426d" stroke-width="0.1"/>
          <path id="Path_74174" data-name="Path 74174" d="M132.03,39.533a4.519,4.519,0,0,0,1.835-.621.137.137,0,0,0-.139-.237,4.194,4.194,0,0,1-1.7.583.142.142,0,0,0-.137.138.138.138,0,0,0,.137.137" transform="translate(-119.909 -25.072)" fill="#1d426d" stroke="#1d426d" stroke-width="0.1"/>
          <path id="Path_74175" data-name="Path 74175" d="M141.891,41.478a8.269,8.269,0,0,1,.125,1.953.14.14,0,0,0,.1.169,1.7,1.7,0,0,0,1.144-.327c.155-.086.016-.323-.139-.237a1.469,1.469,0,0,1-.932.3l.1.169a8.5,8.5,0,0,0-.115-2.026c-.018-.174-.293-.176-.275,0" transform="translate(-126.39 -26.819)" fill="#1d426d" stroke="#1d426d" stroke-width="0.1"/>
        </g>
      </g>
    </g>
  </g>
</svg>
