<svg xmlns="http://www.w3.org/2000/svg" xmlns:xlink="http://www.w3.org/1999/xlink" width="34" height="34" viewBox="0 0 34 34">
  <defs>
    <linearGradient id="linear-gradient" x1="0.923" x2="0.05" y2="1" gradientUnits="objectBoundingBox">
      <stop offset="0" stop-color="#f8fff4"/>
      <stop offset="1" stop-color="#cef4ff"/>
    </linearGradient>
    <clipPath id="clip-path">
      <rect id="Rectangle_3566" data-name="Rectangle 3566" width="15.275" height="17.246" fill="none" stroke="#0af" stroke-width="0.75"/>
    </clipPath>
  </defs>
  <g id="Group_9033" data-name="Group 9033" transform="translate(-12.707 0.293)">
    <path id="Path_73993" data-name="Path 73993" d="M17,0A17,17,0,1,1,0,17,17,17,0,0,1,17,0Z" transform="translate(12.707 -0.293)" fill="url(#linear-gradient)"/>
    <g id="Group_9031" data-name="Group 9031" transform="translate(22.069 8.084)">
      <g id="Group_8833" data-name="Group 8833" transform="translate(0 0)">
        <g id="Group_8829" data-name="Group 8829" clip-path="url(#clip-path)">
          <rect id="Rectangle_3565" data-name="Rectangle 3565" width="14.761" height="16.513" rx="2.517" transform="translate(0.257 0.366)" fill="none" stroke="#0af" stroke-width="0.75"/>
          <path id="Path_73994" data-name="Path 73994" d="M5.91,0H0" transform="translate(8.777 3.069)" fill="none" stroke="#1d426d" stroke-width="0.75"/>
          <path id="Path_73992" data-name="Path 73992" d="M2.506,0H0" transform="translate(4.462 3.069)" fill="none" stroke="#1d426d" stroke-width="0.75"/>
          <path id="Path_73808" data-name="Path 73808" d="M18.772,11.9a4.213,4.213,0,0,1,.377,5.957,4.272,4.272,0,0,1-.381.38" transform="translate(-8.233 -5.137)" fill="none" stroke="#0af" stroke-width="0.75"/>
          <path id="Path_73809" data-name="Path 73809" d="M13.3,17.412a4.226,4.226,0,1,1-1.2-7.082" transform="translate(-2.77 -4.311)" fill="none" stroke="#1d426d" stroke-width="0.75"/>
        </g>
      </g>
    </g>
  </g>
</svg>
