<svg xmlns="http://www.w3.org/2000/svg" xmlns:xlink="http://www.w3.org/1999/xlink" width="341" height="151" viewBox="0 0 341 151">
  <defs>
    <linearGradient id="linear-gradient" x1="0.011" y1="0.033" x2="0.95" y2="1" gradientUnits="objectBoundingBox">
      <stop offset="0" stop-color="#fcba4f"/>
      <stop offset="0.537" stop-color="#a01a72"/>
      <stop offset="1" stop-color="#340833"/>
    </linearGradient>
    <clipPath id="clip-path">
      <rect id="Rectangle_3520" data-name="Rectangle 3520" width="151" height="130.973" fill="none"/>
    </clipPath>
    <clipPath id="clip-path-3">
      <rect id="Rectangle_3517" data-name="Rectangle 3517" width="123" height="124" fill="#ffe9d3"/>
    </clipPath>
    <clipPath id="clip-path-4">
      <rect id="Rectangle_3518" data-name="Rectangle 3518" width="132" height="86.972" fill="#f8d6f4"/>
    </clipPath>
  </defs>
  <g id="Group_8907" data-name="Group 8907" transform="translate(-512.5 -1765.5)">
    <path id="Path_73821" data-name="Path 73821" d="M330.313,0H9.687C4.337,0,0,5.127,0,11.45v127.1C0,144.873,4.337,150,9.687,150H330.313c5.35,0,9.687-5.127,9.687-11.45V11.45C340,5.127,335.663,0,330.313,0Z" transform="translate(513 1766)" stroke="rgba(0,0,0,0)" stroke-width="1" fill="url(#linear-gradient)"/>
    <g id="Group_8891" data-name="Group 8891" transform="translate(17321 9848.311)">
      <text id="Special_Instant_20_off_for_all_Services" data-name="Special Instant
20% off for all Services" transform="translate(-16762.576 -7996.311)" fill="#fdf29e" font-size="11" font-family="SegoeUI, Segoe UI"><tspan x="0" y="0">Special Instant</tspan><tspan font-size="14" font-family="SegoeUI-Bold, Segoe UI" font-weight="700"><tspan x="0" y="13">20%</tspan><tspan y="13" xml:space="preserve" font-size="11" font-family="SegoeUI, Segoe UI" font-weight="400"> off for all Services</tspan></tspan></text>
      <text id="zazzle_s_skin_solution" data-name="zazzle’s
skin solution" transform="translate(-16762.576 -8028.311)" fill="#fff" font-size="20" font-family="SegoeUI-Bold, Segoe UI" font-weight="700"><tspan x="0" y="0">zazzle’s</tspan><tspan x="0" y="17">skin solution</tspan></text>
      <text id="Lorem_ipsum_dolor_sit_amet_consetetur" data-name="Lorem ipsum dolor sit amet consetetur" transform="translate(-16633.576 -7970.311)" fill="#f8c987" font-size="7" font-family="SegoeUI, Segoe UI"><tspan x="-119" y="0">Lorem ipsum dolor sit amet consetetur</tspan></text>
      <line id="Line_274" data-name="Line 274" x1="130" transform="translate(-16763.598 -7978.5)" fill="none" stroke="#f8c987" stroke-width="0.5" opacity="0.536"/>
    </g>
    <g id="Group_8905" data-name="Group 8905" transform="translate(702 1785)">
      <g id="Group_8904" data-name="Group 8904" clip-path="url(#clip-path)">
        <g id="Group_8903" data-name="Group 8903">
          <g id="Group_8902" data-name="Group 8902" clip-path="url(#clip-path)">
            <g id="Group_8898" data-name="Group 8898" opacity="0.154" style="mix-blend-mode: normal;isolation: isolate">
              <g id="Group_8897" data-name="Group 8897">
                <g id="Group_8896" data-name="Group 8896" clip-path="url(#clip-path-3)">
                  <path id="Path_73846" data-name="Path 73846" d="M89.5,0C55.534,0,28,27.759,28,62s27.534,62,61.5,62S151,96.243,151,62,123.466,0,89.5,0" transform="translate(-28 0)" fill="#ffe9d3"/>
                </g>
              </g>
            </g>
            <g id="Group_8901" data-name="Group 8901" transform="translate(19 44)" opacity="0.1" style="mix-blend-mode: normal;isolation: isolate">
              <g id="Group_8900" data-name="Group 8900">
                <g id="Group_8899" data-name="Group 8899" clip-path="url(#clip-path-4)">
                  <path id="Path_73847" data-name="Path 73847" d="M3.647,130.973A64.915,64.915,0,0,1,0,109.5C0,73.326,29.549,44,66,44s66,29.326,66,65.5a64.916,64.916,0,0,1-3.648,21.473Z" transform="translate(0 -44)" fill="#f8d6f4"/>
                </g>
              </g>
            </g>
            <path id="Path_73848" data-name="Path 73848" d="M105.833,130.973H67.872L68.1,31.431A11.729,11.729,0,0,1,79.827,19.7h5.092A34.243,34.243,0,0,1,119.16,53.947l-1.436,76.989Z" transform="translate(-36.032 0)" fill="#fff"/>
            <path id="Path_73849" data-name="Path 73849" d="M79.459,130.938h30.775V110.1c-7.839-1.792-27.622-7.239-28.207-1.833-.107.968,1.745,19.245-2.562,22.676" transform="translate(-38.693 0)" fill="#6773ff"/>
            <path id="Path_73850" data-name="Path 73850" d="M102.716,130.937h5.426c-2.266-4.458-1.4-24.691-1.975-23.8v-3.851c-2.677.107-17.345-1.479-23.8-1.451-3.786.018-4.642,7.664-4.89,7.811,12.5,2.5,9.606,18.245,25.242,21.293" transform="translate(-34.619 0)" fill="#5a98fc"/>
            <path id="Path_73851" data-name="Path 73851" d="M132.825,82.635c-2.708-5.123-8.112-4.916-6.235-16.563.791-4.91,1.441-16.744-3.481-20.568a29.719,29.719,0,0,0-10.933-7.281c-.7-.289-1.394-.6-2.074-.928-3.024-1.469-4.138-3.85-3.457-7.16a41.836,41.836,0,0,0,.679-4.483c.051-.534.076-1.067.089-1.59,0-.137,0-.272.005-.407,0-.494,0-.984-.035-1.464,0-.059-.009-.116-.013-.175-.032-.45-.083-.887-.144-1.331-.023-.164-.048-.333-.075-.49-.062-.369-.134-.735-.213-1.1-.048-.213-.1-.413-.153-.618-.08-.3-.164-.6-.258-.887-.072-.213-.142-.423-.213-.627s-.164-.427-.251-.64q-.235-.574-.508-1.12c-.069-.139-.138-.28-.213-.416-.136-.252-.275-.5-.421-.747-.047-.077-.1-.151-.144-.222a16.509,16.509,0,0,0-1.018-1.447c-.025-.03-.047-.062-.073-.092a16.264,16.264,0,0,0-2.135-2.2,18.615,18.615,0,0,0-7.863-3.895,23.414,23.414,0,0,0-12.529.6,2.942,2.942,0,0,1-2.775-.377C58.719,2.739,55.847,26.739,57.357,31.359c.074.222.148.45.222.678,1.858,5.756,1.894,11.337-1.674,16.331-27.547,38.564,3.9,61.188,3.949,61.178.021-2-.016-25.041.058-32.574.006-.741.016-1.441.025-2.089V74.75c0-.258.007-.508.012-.747v-.26c0-.188.007-.37.011-.543,0-.1,0-.191.006-.282,0-.153.007-.3.011-.444,0-.088,0-.173.007-.255,0-.136.009-.26.013-.382a1.908,1.908,0,0,1,.007-.2c0-.122.01-.228.016-.333a1.006,1.006,0,0,1,.007-.145c.007-.138.017-.258.025-.353.724-7.821,4.207-12.113,11.3-13.651A7.9,7.9,0,0,1,74.5,55.767a10.12,10.12,0,0,0,5.86-6.1c.268-.809.711-1.7-.711-2.034-5.2-1.22-7.578-4.835-8.295-9.858a33.584,33.584,0,0,1,.469-13.883c.222-.819,2.264,3.435,12.034,2.52a6.729,6.729,0,0,1,5.981,5.722c.178.81.162,1.815,1.565,1.271a1.219,1.219,0,0,1,1.494.854v.015a2.5,2.5,0,0,1-.64,2.963c-1.663,1.109-1.469,2.55-1.419,4.13a42.716,42.716,0,0,1-.282,5.094c-.382,4.407,1.892,7.415,5.583,9.516l3.923,1.552c4.837.887,8.1,3.522,9.547,8.334,2.123,7.085-.076,58.083-.012,65.07h2.3c19.544-5.123,8.36-24.728,12.972-33.8,1.312-2.581,5.86-3.933,8.072-.247,0,0,3.318-7.743-.123-14.257" transform="translate(-27.976 0)" fill="#1b132c"/>
            <path id="Path_73852" data-name="Path 73852" d="M105.336,55.972l3.923,1.55c-1.873,4.435-2.94,8.981-1.552,13.755.717,2.47,2.17,4.679,2.626,7.273a20.164,20.164,0,0,1-.035,7.882c-1.509,6.911-1.281,22.2-1.332,23.362-9.614-9.713-25.622,4.639-31.522-1.445,2.581-.092,7.558-10.6,1.585-22.812a17.856,17.856,0,0,1,1.2-11.955c2.314-5.4,2.077-10.928.31-16.445a7.9,7.9,0,0,1,3.146-1.388c-.187,5.4,4.781,10.775,11.719,10.283,5.211-.368,9.82-4.84,9.927-10.064" transform="translate(-37.149 0)" fill="#ffc05a"/>
          </g>
        </g>
      </g>
    </g>
  </g>
</svg>
