<svg xmlns="http://www.w3.org/2000/svg" xmlns:xlink="http://www.w3.org/1999/xlink" width="210" height="167.528" viewBox="0 0 210 167.528">
  <defs>
    <linearGradient id="linear-gradient" x1="0.5" x2="0.5" y2="1" gradientUnits="objectBoundingBox">
      <stop offset="0" stop-color="#0af" stop-opacity="0.345"/>
      <stop offset="1" stop-color="#89d5f8"/>
    </linearGradient>
    <linearGradient id="linear-gradient-2" x1="0.923" x2="0.05" y2="1" gradientUnits="objectBoundingBox">
      <stop offset="0" stop-color="#f8fff4"/>
      <stop offset="1" stop-color="#cef4ff"/>
    </linearGradient>
    <linearGradient id="linear-gradient-3" x1="0.5" x2="0.5" y2="1" gradientUnits="objectBoundingBox">
      <stop offset="0" stop-color="#0af" stop-opacity="0.141"/>
      <stop offset="1" stop-color="#dbf3fe"/>
    </linearGradient>
    <clipPath id="clip-path">
      <rect id="Rectangle_3154" data-name="Rectangle 3154" width="8.076" height="16.976" stroke="rgba(0,0,0,0)" stroke-width="1" fill="url(#linear-gradient)"/>
    </clipPath>
    <linearGradient id="linear-gradient-6" x1="0.5" x2="0.5" y2="1" gradientUnits="objectBoundingBox">
      <stop offset="0" stop-color="#0af" stop-opacity="0.537"/>
      <stop offset="1" stop-color="#8fc3db"/>
    </linearGradient>
  </defs>
  <g id="Group_17784" data-name="Group 17784" transform="translate(-730 -601)">
    <rect id="Rectangle_3156" data-name="Rectangle 3156" width="210" height="130" rx="65" transform="translate(730 626)" opacity="0.901" fill="url(#linear-gradient-2)"/>
    <g id="Group_8932" data-name="Group 8932" transform="translate(11.457 -48)">
      <g id="Group_8926" data-name="Group 8926" transform="translate(773.085 649)">
        <g id="Group_7755" data-name="Group 7755">
          <path id="Path_73608" data-name="Path 73608" d="M98.834,281.816h8.076v-56.88H98.834Z" transform="translate(-91.129 -126.869)" fill="url(#linear-gradient-3)"/>
          <path id="Path_73616" data-name="Path 73616" d="M277.559,358.506c-1.836,3.286-3.769,3.673-6.9,5.316-.692.363-1.543.451-2.067,1.054a1.746,1.746,0,0,0-.133,2.215,2.343,2.343,0,0,0,1.819.514c5.615-.068,15.16-.454,16.585-.707.451-.08.609-.808.575-1.28-.089-1.27-.056-2.95-.718-4.018-.129-.208-.281.016-.505-.065a1.105,1.105,0,0,0-.633.028c-1.206.293-2.468-2.578-3.673-2.285" transform="translate(-186.607 -202.205)" fill="#36bcff"/>
          <path id="Path_73617" data-name="Path 73617" d="M219.585,364.935c-7.249,3.673-9.859,5.092-10.405,5.7a1.688,1.688,0,0,0-.139,2.215,2.545,2.545,0,0,0,1.9.514q8.648-.051,17.286-.548a1.439,1.439,0,0,0,.692-.159,1.343,1.343,0,0,0,.418-1.28,7.654,7.654,0,0,0-1.2-3.582,1.129,1.129,0,0,0-.528-.5,1.215,1.215,0,0,0-.662.028l-3.78.878" transform="translate(-153.088 -205.832)" fill="#0af"/>
          <rect id="Rectangle_3513" data-name="Rectangle 3513" width="1.595" height="12.903" transform="translate(65.82 48.397)" fill="#1d426d"/>
          <path id="Path_73609" data-name="Path 73609" d="M234.912,186.963c.306,1.888-2.693,4.212-6.7,5.191s-7.5.242-7.8-1.645,2.693-4.212,6.7-5.191,7.5-.242,7.8,1.645" transform="translate(-159.69 -104.281)" fill="#175587"/>
          <path id="Path_73592" data-name="Path 73592" d="M237.833,70.086a1.174,1.174,0,1,1-1.134-1.479,1.341,1.341,0,0,1,1.134,1.479" transform="translate(-168.249 -38.696)" fill="#296da5"/>
          <path id="Path_73593" data-name="Path 73593" d="M237.191,22.219a3.51,3.51,0,0,0-.972-1.75,3.714,3.714,0,0,0-2.144-.692c-1.871-.155-5.019-3.034-6.836-2.561a19.779,19.779,0,0,0-.759,3.18c-.156,1.366.165,2.432-.052,2.722-.311.663-2.879,3.608-3.088,3.965-.424.723.187,1.15.945,1.566,1.437.79-.062,3.967.442,4.715,1.152,1.709,4.5,1.724,5.381,3.586a4.126,4.126,0,0,1,.092,2.493c-.278,1.545-.632,3.076-1.052,4.588a1.749,1.749,0,0,1,.9-.492,54.869,54.869,0,0,1,9.284-1.389c-.712-4.44-.74-6.063.114-8.881.576-1.9-1.7-9.143-2.251-11.05" transform="translate(-161.274 -9.679)" fill="#f0cbb0"/>
          <path id="Path_73594" data-name="Path 73594" d="M236.531,79.256c.045-.155.085-.311.128-.466a.546.546,0,0,0-.128.466" transform="translate(-168.787 -44.441)" fill="#ceb399"/>
          <path id="Path_73595" data-name="Path 73595" d="M236.531,79.256c.045-.155.085-.311.128-.466a.546.546,0,0,0-.128.466" transform="translate(-168.787 -44.441)" fill="#c6a081"/>
          <path id="Path_73596" data-name="Path 73596" d="M195.594,67.884a50.45,50.45,0,0,1-26.814-18.961,1.221,1.221,0,0,1-.272-.578,1,1,0,0,1,.216-.633,3.732,3.732,0,0,1,4.09-1.121,13.745,13.745,0,0,1,3.911,2.244c5.9,4.121,12.937,8.062,21.816,9.074" transform="translate(-130.422 -26.176)" fill="#36bcff"/>
          <path id="Path_73597" data-name="Path 73597" d="M235.474,145.314c5.887,41.838,18.413,55.567,23.77,86.945,0,.58,2.223-.1,5.316,3.576,1.507,1.79,4.2.372,4.253-.1-1.746-9.437-2.508-22.975-4.254-32.412-1.486-8.033-5.97-17.713-5.746-25.752.284-10.189,2.691-14.3,1.427-24.545-.791-6.414-3.223-12.532-5.623-18.529" transform="translate(-168.2 -75.862)" fill="#185d95"/>
          <path id="Path_73588" data-name="Path 73588" d="M251.5,79.115c.29-3.407-2.465-12.974-7.611-17.758-.383-.356,1.309,1.754-8.566,2.387-.555.035-1.553,2.073-2.436,2.793,1.557.07-2.224,9.189-.307,19.1,3.407,17.615,18.444-.936,18.92-6.524" transform="translate(-166.248 -34.584)" fill="#36bcff"/>
          <path id="Path_73589" data-name="Path 73589" d="M250.056,77.051c-.653,2.634-4.3,2.446-5.767,0-.783-1.306-3.805-9.8-8.906-10.3-1.219-.091-3.792.857-4.2,1.94a6.978,6.978,0,0,1,2.339-.63c7.16-.349,8.054,12.876,8.171,18.849.193,9.859-9.69,6.862-10.511.918-.108-.778.32,11.229.072,10.583,0,0,.77,67.275-.677,99.108,4.543-.483,3.673,6.379,10.382,2.5.271-9.6,1.159-20.032,1.43-29.63.23-8.17,3.254-31.054,5.579-38.913,1.105-3.736,3.828-4.105,5.44-3.766,2.65.558,3.223,6.341,3.766,2.51,2.232-15.76-1.758-24.943-3.05-29.583" transform="translate(-165.435 -37.647)" fill="#1d426d"/>
          <path id="Path_73590" data-name="Path 73590" d="M232.65,21.922c.383.94.814,1.868,1.094,2.746.39,1.224-.287,3.944.994,4.037.338.024,1.173-1.694,2.424-1.2.275.108.347.472.4.762.525,2.675,1.168,10.437,6.02,10.2,1.352-.066,1.161-1.752,2.012-2.959,1.089-1.545,3.085-2.629,4.416-3.963-4.608-1.406-15.384-8.886-17.364-9.62" transform="translate(-166.607 -12.363)" fill="#1d426d"/>
          <path id="Path_73598" data-name="Path 73598" d="M106.91,110.542V46.207a4.45,4.45,0,0,1,4.445-4.445h23.557V33.686H111.354a12.535,12.535,0,0,0-12.52,12.521v64.335Z" transform="translate(-91.129 -19)" fill="url(#linear-gradient-3)"/>
          <g id="Group_8645" data-name="Group 8645" transform="translate(7.704 83.859)">
            <g id="Group_7743" data-name="Group 7743" clip-path="url(#clip-path)">
              <rect id="Rectangle_3153" data-name="Rectangle 3153" width="8.076" height="16.976" transform="translate(0)" stroke="rgba(0,0,0,0)" stroke-width="1" fill="url(#linear-gradient)"/>
            </g>
          </g>
          <path id="Path_73599" data-name="Path 73599" d="M173.664,41.475H162.941a1.308,1.308,0,0,1-1.308-1.308V32.756a1.308,1.308,0,0,1,1.308-1.308h10.723a1.308,1.308,0,0,1,1.308,1.308v7.412a1.308,1.308,0,0,1-1.308,1.308" transform="translate(-126.551 -17.737)" fill="url(#linear-gradient-6)"/>
          <path id="Path_73591" data-name="Path 73591" d="M247.835,25.346s-5.319,3.026-10.643-5.781a14.224,14.224,0,0,0-5.858-5.5A19.9,19.9,0,0,1,241.068,8.8c2.84-.5,14.439,6.273,8.2,15.652" transform="translate(-165.861 -4.945)" fill="#ffcb24"/>
          <path id="Path_73600" data-name="Path 73600" d="M232.045,4.766C229.707,2.9,224.156-1.962,221.14.861c-3.984,3.728,5.491,9.409,5.491,9.409s-.265-3.212,5.414-5.5" transform="translate(-159.561 0.001)" fill="#36bcff"/>
          <path id="Path_73601" data-name="Path 73601" d="M160.811,40.326a.674.674,0,0,0,.755-.407l.871-1.408s-.548-2.1-.871-2.258c-1.836-.393-2.637-.462-4.143-.769a3.89,3.89,0,0,1,2.058-1.032,4.591,4.591,0,0,1,4.325,1.624,4.09,4.09,0,0,1,.585,4.533,8.335,8.335,0,0,0-.889,2.561,3.812,3.812,0,0,1-.991,2.394c-.186.207-.29.24-.534.143-.749-.3-1.513-.558-2.266-.846a.623.623,0,0,0-.889.355c-.111.236-.213.478-.3.724a.707.707,0,0,0,.422.987c.481.208.964.412,1.451.606,1.1.438,1.118.442.7,1.545a24.281,24.281,0,0,1-1.225,2.957,1.283,1.283,0,0,1-2.4-.912,4.809,4.809,0,0,1,.2-.634c.235-.655.475-1.307.732-2.015-.705.229-.863.812-1.077,1.313-.917,2.15-1.81,4.31-2.7,6.472-1.235,3-2.458,6.006-3.691,9.008-.128.31-.215.737-.6.768a2.481,2.481,0,0,1-1.673-.58c-.413-.312-.141-.746-.01-1.113q3.959-11.048,7.925-22.093c.245-.683.762-1.41-.269-1.944a.488.488,0,0,1-.2-.59c.13-.269,3.836.437,4.709.609" transform="translate(-119.106 -19.405)" fill="#1d426d"/>
          <path id="Path_73602" data-name="Path 73602" d="M172.887,59.049a1.52,1.52,0,0,0-.525,1.141c-.024.329.251.475.521.58.654.256,1.312.5,1.963.763.535.217.772-.089.974-.506s.285-.851-.191-1.1a12.551,12.551,0,0,0-2.353-.906,1.115,1.115,0,0,0-.39.028" transform="translate(-132.601 -33.283)" fill="#1d426d"/>
          <path id="Path_73603" data-name="Path 73603" d="M174.475,102.774c-1.787,1.968-3.464,2.437-4.362,1.621s-.679-2.609,1.108-4.576,3.761-2.719,4.66-1.9.382,2.89-1.406,4.858" transform="translate(-131.038 -55.043)" fill="#1d426d"/>
          <path id="Path_73604" data-name="Path 73604" d="M196.4,70.639c-1.817,1.151-2.777,1.948-5.293,6.1-1.759,2.9-3.754,7.735-5.7,10.969a1.283,1.283,0,0,1-1.785.42c-2.271-1.434-7.488-4.761-9.4-6.249-1.574-1.227-5.519,3.063-3.683,5.141,2.637,2.984,6.265,7.239,8.892,9.23s5.039,4.495,8.219,3.622c3.233-.888,5.568-3.646,7.507-6.381l.007-.009.032-.018c.263-.288,12.761-13.251,8.593-21.522,0,0-3.045-4.059-7.394-1.3" transform="translate(-131.31 -39.302)" fill="#0af"/>
          <path id="Path_73605" data-name="Path 73605" d="M156.452,73.877a2.986,2.986,0,0,0-3.7-1.452c-4.484,1.714-4.9,10.154-2.685,9.063.412-.2.664-1.4,2.017.469A9.157,9.157,0,0,0,154.2,84.12c1.767,1.077,3.9,5.735,3.881,5.553-.386-3.264,3.435-6.978,5.9-6.179-3.719-1.865-4.294-2.539-4.869-3.193s-.9-3.25-2.659-6.423" transform="translate(-119.288 -40.738)" fill="#1d426d"/>
          <path id="Path_73610" data-name="Path 73610" d="M240.94,184.988h-2.655v-.044h2.655Zm.035-.6-2.694-.153,0-.022c.013-.244.031-.5.061-.75l0-.022,2.681.305,0,.022c-.022.209-.039.406-.048.6Zm.135-1.186-2.659-.462v-.022c.043-.249.092-.484.148-.719l-.065-.03.092,0,0,0,2.607.606,0,.017c-.048.2-.088.4-.123.589Zm.266-1.164-.022,0-2.568-.759.009-.022c.074-.253.148-.484.231-.715l.008-.017,2.542.907-.009.022c-.07.187-.131.379-.188.567Zm.4-1.125-2.485-1.055.009-.022c.1-.222.2-.453.314-.684l.013-.017,2.415,1.2-.009.017c-.087.174-.17.358-.248.545Zm.527-1.073-.017-.009-2.328-1.325.009-.017c.126-.218.257-.436.392-.645l.026-.009,0,0,2.24,1.461,0,.013c-.105.157-.2.327-.314.51Zm.646-1-2.175-1.6.013-.017c.148-.2.3-.4.462-.593l.013-.017,2.084,1.718-.013.017c-.126.153-.253.314-.371.471Zm.758-.924-.013-.013-1.966-1.818.017-.017c.175-.187.349-.371.523-.536l.018-.017,1.87,1.944-.013.018c-.131.126-.27.266-.418.427Zm.885-.8-.039-.044-1.744-2.032.017-.013c.187-.161.384-.318.584-.471l.017-.013,1.652,2.162h-.039c-.148.113-.3.235-.449.362Zm.925-.754-1.513-2.232.017-.013c.2-.135.409-.27.632-.4l.022-.009,1.382,2.319-.022.009c-.157.1-.323.2-.5.323Zm1.02-.61-1.246-2.394.022-.009c.222-.118.449-.227.676-.331l.021-.009,1.1,2.464-.017.008q-.281.125-.537.262Zm1.086-.488-.96-2.524.018-.008c.227-.083.457-.166.71-.245l.022-.009,0,.022.81,2.55-.021.009c-.183.057-.366.122-.563.2Zm1.142-.34,0-.022-.035.009.026-.04-.658-2.59.022,0c.239-.061.488-.113.732-.161l.027.017.51,2.629h-.022c-.205.04-.392.083-.575.131Zm1.164-.253-.358-2.677h.022q.373-.052.746-.078l.022,0,.2,2.694h-.022c-.2.017-.4.035-.593.061Zm1.212-.1-.022-.022-.052-2.676h.287l.022.021-.022,2.677h-.213Z" transform="translate(-169.778 -96.942)" fill="#1f7fbf"/>
          <path id="Path_73611" data-name="Path 73611" d="M240.236,181.921l-1.5.8-1.589-.99.063-1.87,1.546-.824a2.631,2.631,0,0,0-2.676,4.5l-.869,9.139,1.736.166.837-8.794a2.629,2.629,0,0,0,2.453-2.126" transform="translate(-167.936 -100.843)" fill="#ffcb24"/>
          <path id="Path_73612" data-name="Path 73612" d="M219.934,184.48c-3.061-4.173-3.589-6.823-3.245-8.915-.47-.354-.97-.658-1.522-1-.273-.166-.559-.34-.859-.531a4.135,4.135,0,0,1-2.009-4.021,3.352,3.352,0,0,1,5.924-1.785,4.035,4.035,0,0,1,.553,4.435l-.126.28a13.184,13.184,0,0,0-.845,2.223c1.367,1.186,2.587,3.022,4.131,7.334l-.945.338c-1.282-3.581-2.288-5.334-3.37-6.458-.092,1.8.6,4.06,3.124,7.5Zm-4.331-16.46a2.274,2.274,0,0,0-.671.1,2.4,2.4,0,0,0-1.641,2.031,3.1,3.1,0,0,0,1.553,3.039c.295.187.575.358.844.522.443.269.857.522,1.253.8a17.276,17.276,0,0,1,.793-1.973l.125-.277a3.057,3.057,0,0,0-.389-3.359,2.5,2.5,0,0,0-1.866-.879" transform="translate(-155.104 -94.199)" fill="#1f7fbf"/>
          <path id="Path_73613" data-name="Path 73613" d="M232.133,212.024l1.024-14.111s-1.022.647-7.2,1.416c-1.971.245-5.071.387-5.48-1.4,0,0,4.21,16.025,4.79,25.5,0,0,6.862,1.353,6.862-11.405" transform="translate(-159.741 -111.629)" fill="#ffcb24"/>
          <path id="Path_73606" data-name="Path 73606" d="M173.368,37.633l-2.645-.422-1.687,2.08.778,2.032.18.469,2.645.422,1.687-2.08Z" transform="translate(-130.727 -20.988)" fill="url(#linear-gradient-6)"/>
          <path id="Path_73607" data-name="Path 73607" d="M172.406,42.07l-2.893-.455-1.048-2.7,1.846-2.244,2.893.454,1.048,2.7Zm-2.576-.84,2.4.377,1.529-1.858-.867-2.235-2.4-.376-1.529,1.858Z" transform="translate(-130.402 -20.682)" fill="#1d426d"/>
          <path id="Union_9" data-name="Union 9" d="M19.677,23V15.037H17.192v2.136c0,.533-.584.966-1.309.966H7.6c-.721,0-1.306-.434-1.306-.966v-.511H0V6.781H6.326A1.279,1.279,0,0,1,7.6,6.022h8.282c.724,0,1.309.434,1.309.967V9.124h2.485V1.161a1.161,1.161,0,0,1,2.323,0V23a1.161,1.161,0,0,1-2.323,0Z" transform="translate(0 80.265)" fill="url(#linear-gradient-6)"/>
        </g>
      </g>
    </g>
  </g>
</svg>
