<svg id="Group_17780" data-name="Group 17780" xmlns="http://www.w3.org/2000/svg" xmlns:xlink="http://www.w3.org/1999/xlink" width="1366" height="476.946" viewBox="0 0 1366 476.946">
  <defs>
    <linearGradient id="linear-gradient" x1="0.003" x2="0.5" y2="1" gradientUnits="objectBoundingBox">
      <stop offset="0" stop-color="#015e8d"/>
      <stop offset="1" stop-color="#1d426d"/>
    </linearGradient>
    <linearGradient id="linear-gradient-2" x1="0.5" x2="0.5" y2="1" gradientUnits="objectBoundingBox">
      <stop offset="0" stop-color="#03a8fa" stop-opacity="0.11"/>
      <stop offset="1" stop-color="#00aefc" stop-opacity="0.757"/>
    </linearGradient>
    <linearGradient id="linear-gradient-3" x1="0.251" y1="0.446" x2="0.894" y2="0.943" gradientUnits="objectBoundingBox">
      <stop offset="0" stop-color="#05adf8" stop-opacity="0.059"/>
      <stop offset="0.695" stop-color="#00aefc" stop-opacity="0.686"/>
      <stop offset="1" stop-color="#33b8ff"/>
    </linearGradient>
    <linearGradient id="linear-gradient-4" x1="0.826" y1="0.06" x2="0.136" y2="0.922" gradientUnits="objectBoundingBox">
      <stop offset="0" stop-color="#0a5c86"/>
      <stop offset="0.03" stop-color="#248acb"/>
      <stop offset="1" stop-color="#1e4774"/>
    </linearGradient>
    <linearGradient id="linear-gradient-5" x1="0.826" y1="0.06" x2="0.136" y2="0.922" gradientUnits="objectBoundingBox">
      <stop offset="0" stop-color="#388bc7"/>
      <stop offset="1" stop-color="#1f89cb"/>
    </linearGradient>
    <linearGradient id="linear-gradient-6" x1="0.085" y1="0.987" x2="0.837" y2="0.021" gradientUnits="objectBoundingBox">
      <stop offset="0" stop-color="#b4e6ff"/>
      <stop offset="1" stop-color="#1bb4eb"/>
    </linearGradient>
  </defs>
  <path id="Path_73990" data-name="Path 73990" d="M0,0H1366V452H0Z" fill="url(#linear-gradient)"/>
  <g id="Group_9397" data-name="Group 9397" transform="translate(1)">
    <path id="Subtraction_4" data-name="Subtraction 4" d="M4419.194-4750.8H4224.748v-226.562a56.285,56.285,0,0,1,4.451-22.047,56.655,56.655,0,0,1,5.222-9.621,57.094,57.094,0,0,1,6.917-8.383,57.057,57.057,0,0,1,8.382-6.917,56.633,56.633,0,0,1,9.621-5.222,56.286,56.286,0,0,1,22.047-4.451h137.806a142.614,142.614,0,0,1,28.538,2.877,140.885,140.885,0,0,1,26.581,8.25,141.6,141.6,0,0,1,24.053,13.056,142.58,142.58,0,0,1,20.957,17.291,142.58,142.58,0,0,1,17.291,20.957,141.6,141.6,0,0,1,13.055,24.053,140.849,140.849,0,0,1,8.251,26.58,142.613,142.613,0,0,1,2.877,28.537,142.614,142.614,0,0,1-2.877,28.538,140.864,140.864,0,0,1-8.251,26.581,141.628,141.628,0,0,1-13.055,24.053,142.58,142.58,0,0,1-17.291,20.957,142.58,142.58,0,0,1-20.957,17.291,141.659,141.659,0,0,1-24.053,13.056,140.885,140.885,0,0,1-26.581,8.25A142.614,142.614,0,0,1,4419.194-4750.8Z" transform="translate(-3998 5203)" opacity="0.664" fill="url(#linear-gradient-2)"/>
    <path id="Rectangle_3677" data-name="Rectangle 3677" d="M110,0H499.187a0,0,0,0,1,0,0V284.763a110,110,0,0,1-110,110H0a0,0,0,0,1,0,0V110A110,110,0,0,1,110,0Z" opacity="0.423" fill="url(#linear-gradient-3)"/>
  </g>
  <g id="Group_16732" data-name="Group 16732">
    <path id="Union_15" data-name="Union 15" d="M2892.49-142.149a28.37,28.37,0,0,1-9.287-17.772h16.16l.049-.225a12.407,12.407,0,0,0,11.983,9.223q.389,0,.778-.025v-.016a12.4,12.4,0,0,0,11.62-12.356V-322h16v158.681a28.246,28.246,0,0,1-6.46,18.008h0a28.317,28.317,0,0,1-21.938,10.387A28.332,28.332,0,0,1,2892.49-142.149Z" transform="translate(-2655.891 611.869)" fill="url(#linear-gradient-4)"/>
    <path id="Path_73857" data-name="Path 73857" d="M255.6,316.626c-3.68,6.585-7.553,7.359-13.832,10.653-1.386.727-3.093.9-4.141,2.112s-1.347,3.261-.266,4.438c.9.978,2.35,1.046,3.646,1.03,11.252-.135,30.378-.91,33.234-1.416.9-.16,1.22-1.62,1.153-2.564-.178-2.544-.113-5.911-1.439-8.051-.258-.416-.564.031-1.013-.129a2.218,2.218,0,0,0-1.268.057c-2.416.586-4.945-5.167-7.36-4.58" transform="translate(181 102.456)" fill="#1d426d"/>
    <path id="Path_73858" data-name="Path 73858" d="M206.079,322.242c-14.526,7.359-19.755,10.2-20.851,11.413s-1.408,3.261-.278,4.438c.939.978,2.457,1.039,3.812,1.031q17.33-.1,34.637-1.1a2.892,2.892,0,0,0,1.387-.318,2.691,2.691,0,0,0,.839-2.564,15.336,15.336,0,0,0-2.411-7.178,2.258,2.258,0,0,0-1.059-1,2.44,2.44,0,0,0-1.326.057l-7.575,1.759" transform="translate(181 102.456)" fill="#1d426d"/>
    <rect id="Rectangle_3525" data-name="Rectangle 3525" width="3.196" height="25.856" transform="translate(385.706 200.402)" fill="#1d426d"/>
    <path id="Path_73859" data-name="Path 73859" d="M223.593,167.246c.612,3.783-5.4,8.439-13.418,10.4s-15.022.485-15.634-3.3,5.4-8.439,13.418-10.4,15.022-.486,15.634,3.3" transform="translate(181 102.456)" fill="#175587"/>
    <path id="Path_73860" data-name="Path 73860" d="M212.285,62.9c0,1.637-1.017,2.963-2.272,2.963s-2.272-1.326-2.272-2.963,1.018-2.963,2.272-2.963,2.272,1.326,2.272,2.963" transform="translate(181 102.456)" fill="#296da5"/>
    <path id="Path_73861" data-name="Path 73861" d="M225.034,25.126a7.032,7.032,0,0,0-1.947-3.507,7.444,7.444,0,0,0-4.3-1.386c-3.749-.31-10.057-6.08-13.7-5.133a39.586,39.586,0,0,0-1.521,6.371c-.312,2.737.331,4.874-.1,5.454-.623,1.328-5.768,7.23-6.188,7.946-.85,1.449.376,2.3,1.893,3.138,2.879,1.582-.125,7.948.886,9.448,2.308,3.425,9.012,3.455,10.782,7.186a8.266,8.266,0,0,1,.183,5c-.557,3.1-1.267,6.163-2.109,9.194a3.506,3.506,0,0,1,1.8-.986,110,110,0,0,1,18.6-2.783c-1.426-8.9-1.482-12.149.228-17.8,1.154-3.808-3.4-18.321-4.51-22.143" transform="translate(181 102.456)" fill="#f0cbb0"/>
    <path id="Path_73862" data-name="Path 73862" d="M208.579,69.77c.09-.31.17-.624.257-.935a1.092,1.092,0,0,0-.257.935" transform="translate(181 102.456)" fill="#ceb399"/>
    <path id="Path_73863" data-name="Path 73863" d="M208.579,69.77c.09-.31.17-.624.257-.935a1.092,1.092,0,0,0-.257.935" transform="translate(181 102.456)" fill="#c6a081"/>
    <path id="Path_73864" data-name="Path 73864" d="M203.15,83.572a101.092,101.092,0,0,1-53.73-37.995,2.442,2.442,0,0,1-.546-1.158,2.009,2.009,0,0,1,.432-1.268c1.71-2.5,5.285-3.079,8.2-2.246s5.355,2.762,7.837,4.5c11.82,8.255,25.92,16.151,43.711,18.18" transform="translate(181 102.456)" fill="#ffcb24" opacity="0.556"/>
    <path id="Path_73865" data-name="Path 73865" d="M208.08,142.6c11.8,83.832,36.9,111.347,47.626,174.222,0,1.162,4.454-.193,10.652,7.166,3.02,3.586,8.417.745,8.522-.194-3.5-18.91-5.026-46.037-8.524-64.948-2.977-16.1-11.963-35.493-11.514-51.6.569-20.417,5.393-28.645,2.859-49.184-1.585-12.853-6.458-25.111-11.267-37.128" transform="translate(181 102.456)" fill="#185d95"/>
    <path id="Path_73866" data-name="Path 73866" d="M243.851,89.234c.581-6.827-4.939-26-15.252-35.584-.768-.713,2.623,3.515-17.164,4.782-1.111.071-3.112,4.153-4.882,5.6,3.121.14-4.457,18.413-.615,38.279,6.827,35.3,36.959-1.875,37.912-13.073" transform="translate(181 102.456)" fill="#ffcb24"/>
    <path id="Path_73867" data-name="Path 73867" d="M242.687,82.384c-1.308,5.278-8.617,4.9-11.556,0-1.569-2.616-7.625-19.635-17.845-20.63-2.442-.182-7.6,1.718-8.412,3.888.326-.582,4.271-1.241,4.688-1.262,14.347-.7,16.139,25.8,16.374,37.77.387,19.755-19.416,13.751-21.062,1.84-.216-1.559.642,22.5.145,21.207,0,0,1.544,134.808-1.356,198.595,9.1-.968,7.359,12.783,20.8,5.008.543-19.234,2.323-40.14,2.866-59.374.461-16.372,6.52-62.227,11.179-77.975,2.215-7.486,7.671-8.226,10.9-7.546,5.31,1.118,6.459,12.706,7.546,5.03,4.472-31.58-3.523-49.982-6.112-59.279" transform="translate(181 102.456)" fill="#1d426d"/>
    <path id="Path_74215" data-name="Path 74215" d="M32.946,147.574V25.917a8.415,8.415,0,0,1,8.405-8.406H85.9V2.239H41.351A23.7,23.7,0,0,0,17.675,25.917V147.574Z" transform="translate(250.63 129.642)" fill="url(#linear-gradient-5)"/>
    <path id="Path_73868" data-name="Path 73868" d="M205.351,19.154c.78,1.932,1.657,3.839,2.226,5.641.794,2.515-.585,8.1,2.021,8.3.687.05,2.387-3.481,4.931-2.472.559.223.711.97.822,1.566,1.068,5.5,2.375,21.451,12.245,20.964,2.751-.135,2.362-3.6,4.093-6.081,2.215-3.18,6.275-5.4,8.983-8.146-9.373-2.889-31.293-18.264-35.322-19.771" transform="translate(180.473 101.604)" fill="#0c2c52"/>
    <path id="Path_73870" data-name="Path 73870" d="M166.841,47.569H145.354a2.62,2.62,0,0,1-2.621-2.621V30.1a2.62,2.62,0,0,1,2.621-2.621h21.487a2.62,2.62,0,0,1,2.621,2.621V44.948a2.62,2.62,0,0,1-2.621,2.621" transform="translate(181 102.456)" fill="#378bc8"/>
    <rect id="Rectangle_3528" data-name="Rectangle 3528" width="26.729" height="20.093" transform="translate(323.732 129.932)" fill="none"/>
    <path id="Union_14" data-name="Union 14" d="M2782.44-292.742c-.827-.626-.283-1.5-.02-2.231q7.934-22.139,15.882-44.27c.49-1.368,1.527-2.824-.54-3.9a.978.978,0,0,1-.4-1.182c.261-.54,7.686.876,9.436,1.22l-.014,0a1.351,1.351,0,0,0,1.512-.814l1.744-2.822s-1.1-4.216-1.744-4.523c-3.678-.788-5.285-.926-8.3-1.541a7.8,7.8,0,0,1,4.124-2.068,9.2,9.2,0,0,1,8.667,3.254,8.2,8.2,0,0,1,1.173,9.084c-.711,1.669-1.647,3.318-1.78,5.132a7.637,7.637,0,0,1-1.985,4.8c-.373.414-.581.482-1.069.287-1.5-.6-3.032-1.118-4.542-1.7a1.247,1.247,0,0,0-1.69.5,1.225,1.225,0,0,0-.09.209c-.222.473-.427.958-.6,1.45a1.417,1.417,0,0,0,.644,1.9,1.293,1.293,0,0,0,.2.082c.964.419,1.931.826,2.907,1.214,2.205.878,2.241.885,1.4,3.1a48.639,48.639,0,0,1-2.454,5.926,2.572,2.572,0,0,1-3.386,1.326,2.573,2.573,0,0,1-1.414-3.153,9.558,9.558,0,0,1,.4-1.271c.471-1.312.95-2.62,1.468-4.037-1.413.46-1.73,1.627-2.158,2.632-1.837,4.308-3.627,8.636-5.41,12.967-2.475,6.012-4.925,12.037-7.4,18.05-.257.621-.43,1.476-1.211,1.539l-.154,0A4.971,4.971,0,0,1,2782.44-292.742Zm25.528-35.673c-1.3-.529-2.623-1.016-3.933-1.529-.544-.211-1.091-.5-1.044-1.163a3.05,3.05,0,0,1,1.051-2.285v.005a2.243,2.243,0,0,1,.782-.058,25.232,25.232,0,0,1,4.713,1.816c.952.494.788,1.365.383,2.2-.313.644-.668,1.156-1.306,1.156A1.73,1.73,0,0,1,2807.969-328.415Z" transform="translate(-2469.973 487.482)" stroke="rgba(0,0,0,0)" stroke-width="1" fill="url(#linear-gradient-6)"/>
    <path id="Path_73875" data-name="Path 73875" d="M159.38,96.467c-3.581,3.943-6.941,4.884-8.741,3.249s-1.36-5.228,2.221-9.17S160.4,85.1,162.2,86.734s.764,5.791-2.817,9.734" transform="translate(181 102.456)" fill="#1d426d"/>
    <path id="Path_73877" data-name="Path 73877" d="M146.7,67.051a5.985,5.985,0,0,0-7.409-2.91c-8.986,3.435-9.818,20.347-5.38,18.16.825-.406,1.33-2.8,4.041.94a18.352,18.352,0,0,0,4.24,4.335c3.541,2.158,7.819,11.492,7.776,11.126-.773-6.54,6.884-13.982,11.816-12.382-7.453-3.736-8.6-5.087-9.756-6.4-1.173-1.337-1.8-6.513-5.328-12.87" transform="translate(181 102.456)" fill="#1d426d"/>
    <path id="Path_73878" data-name="Path 73878" d="M215.593,177.929h-5.32v-.087h5.32Zm.07-1.2-5.4-.307.009-.044c.026-.488.061-1,.121-1.5l.01-.044,5.373.612-.009.044c-.044.419-.079.812-.1,1.2Zm.27-2.377-5.328-.926v-.044c.087-.5.183-.97.3-1.441l-.13-.061.184-.009.009.009,5.223,1.214-.008.035c-.1.4-.176.8-.245,1.179Zm.534-2.333-.044-.009-5.146-1.52.017-.044c.149-.507.3-.97.463-1.433l.017-.035,5.094,1.817-.017.044c-.14.376-.263.76-.376,1.136Zm.8-2.254-4.98-2.114.018-.044c.192-.446.4-.909.629-1.372l.026-.035,4.84,2.4-.018.035c-.174.349-.34.716-.5,1.092Zm1.056-2.149-.035-.017-4.664-2.656.018-.035c.253-.437.515-.874.786-1.293l.052-.017.009.009,4.494,2.93-.008.026c-.211.314-.411.655-.629,1.022Zm1.294-2.009-4.359-3.2.026-.035c.3-.4.6-.8.926-1.188l.026-.035,4.176,3.442-.026.035c-.253.307-.507.629-.743.944Zm1.519-1.852-.025-.026-3.94-3.643.034-.035c.35-.376.7-.743,1.048-1.075l.035-.035,3.748,3.9-.026.035c-.262.253-.541.534-.839.856Zm1.773-1.607-.078-.087-3.494-4.071.035-.026c.375-.323.769-.637,1.171-.944l.035-.026,3.311,4.333h-.079c-.3.227-.6.472-.9.725Zm1.853-1.511-3.031-4.473.035-.026c.393-.271.82-.542,1.267-.812l.044-.018,2.769,4.648-.044.017c-.315.193-.647.4-1,.646Zm2.043-1.223-2.5-4.8.044-.018c.446-.236.9-.454,1.354-.664l.043-.018,2.211,4.937-.035.017q-.564.251-1.075.524Zm2.176-.979-1.918-5.058.036-.017c.454-.167.916-.333,1.423-.49l.044-.018.01.044,1.624,5.111-.043.017c-.367.114-.734.245-1.128.394Zm2.289-.681-.009-.044-.07.018.052-.08-1.319-5.189.044-.009c.48-.122.978-.227,1.467-.323l.053.035,1.022,5.268h-.044c-.411.08-.786.166-1.153.262Zm2.333-.507-.717-5.364h.044q.749-.1,1.5-.157l.044-.009.411,5.4h-.044c-.41.035-.8.07-1.188.122Zm2.429-.192-.045-.044-.1-5.363h.576l.045.043-.045,5.364h-.431Z" transform="translate(181 102.456)" fill="#1f7fbf"/>
    <path id="Path_73879" data-name="Path 73879" d="M217.748,164.034l-3.005,1.6-3.184-1.983.126-3.748,3.1-1.652a5.272,5.272,0,0,0-5.362,9.015l-1.742,18.314,3.479.332,1.676-17.621a5.267,5.267,0,0,0,4.915-4.26" transform="translate(181 102.456)" fill="#ffcb24"/>
    <path id="Path_73880" data-name="Path 73880" d="M202.639,182.4c-6.134-8.361-7.192-13.671-6.5-17.864-.943-.709-1.943-1.319-3.051-1.994-.548-.333-1.12-.682-1.722-1.063a8.286,8.286,0,0,1-4.027-8.056,6.717,6.717,0,0,1,11.871-3.577,8.086,8.086,0,0,1,1.109,8.886l-.252.56a26.365,26.365,0,0,0-1.694,4.454c2.739,2.377,5.184,6.055,8.278,14.7l-1.894.677c-2.568-7.175-4.585-10.688-6.753-12.94-.183,3.6,1.2,8.135,6.26,15.033Zm-8.678-32.984a4.568,4.568,0,0,0-1.344.2,4.811,4.811,0,0,0-3.287,4.07,6.215,6.215,0,0,0,3.111,6.089c.591.375,1.152.718,1.69,1.046.887.54,1.717,1.046,2.511,1.593a34.688,34.688,0,0,1,1.588-3.953l.25-.555a6.127,6.127,0,0,0-.78-6.731,5.011,5.011,0,0,0-3.739-1.762" transform="translate(181 102.456)" fill="#1f7fbf"/>
    <path id="Path_73881" data-name="Path 73881" d="M217.9,203.036l2.051-28.276s-2.049,1.3-14.419,2.838c-3.95.492-10.161.775-10.981-2.8,0,0,8.437,32.112,9.6,51.092,0,0,13.751,2.712,13.751-22.854" transform="translate(181 102.456)" fill="#ffcb24"/>
    <path id="Path_73882" data-name="Path 73882" d="M157.778,33.355l-5.3-.845L149.1,36.677l1.559,4.071.36.94,5.3.845,3.381-4.167Z" transform="translate(181 102.456)" fill="#199de3"/>
    <path id="Path_73883" data-name="Path 73883" d="M156.5,42.854l-5.8-.912-2.1-5.407,3.7-4.5,5.8.911,2.1,5.407Zm-5.162-1.687,4.8.755L159.2,38.2l-1.738-4.479-4.8-.754L149.6,36.689Z" transform="translate(181 102.456)" fill="#1d426d"/>
    <rect id="Rectangle_3529" data-name="Rectangle 3529" width="5.923" height="11.846" transform="translate(286.973 283.294)" fill="#2489ca"/>
    <path id="Path_73884" data-name="Path 73884" d="M113.424,210.972h0a2.324,2.324,0,0,1-2.319-2.324V164.877a2.324,2.324,0,0,1,4.648-.007v43.778a2.323,2.323,0,0,1-2.324,2.324" transform="translate(181 102.456)" fill="#378bc8"/>
    <path id="Path_73885" data-name="Path 73885" d="M103.5,198.9H86.9c-1.448,0-2.621-.867-2.621-1.937v-20.4c0-1.07,1.173-1.937,2.621-1.937h16.6c1.448,0,2.621.867,2.621,1.937v20.4c0,1.069-1.173,1.937-2.621,1.937" transform="translate(181 102.456)" fill="#378bc8"/>
    <path id="Path_73871" data-name="Path 73871" d="M237.286,40.881s-10.66,6.063-21.327-11.587A28.5,28.5,0,0,0,204.22,18.266s7.512-10.84,19.506-10.551c7.4-.162,28.856,11.442,16.423,31.364" transform="translate(181 102.456)" fill="#0af"/>
    <path id="Path_73872" data-name="Path 73872" d="M218.076,9.553C213.393,5.81,202.269-3.93,196.224,1.727c-7.984,7.47,11,18.854,11,18.854s-.53-6.436,10.849-11.028" transform="translate(183.015 128.658) rotate(-7)" fill="#ffcb24"/>
  </g>
</svg>
