<svg xmlns="http://www.w3.org/2000/svg" width="33.1" height="33.1" viewBox="0 0 33.1 33.1">
  <g id="Group_8984" data-name="Group 8984" transform="translate(-346.45 -1118.9)">
    <path id="Path_74177" data-name="Path 74177" d="M16,0A16,16,0,1,1,0,16,16,16,0,0,1,16,0Z" transform="translate(347 1119.45)" fill="#f1feee"/>
    <ellipse id="Ellipse_125" data-name="Ellipse 125" cx="12.5" cy="15" rx="12.5" ry="15" transform="translate(347 1120.45)" fill="#0af" opacity="0.15"/>
    <ellipse id="Ellipse_126" data-name="Ellipse 126" cx="9.002" cy="12" rx="9.002" ry="12" transform="translate(347 1123.45)" fill="#0af" opacity="0.25"/>
    <g id="Group_8957" data-name="Group 8957" transform="translate(38.55 -134.864)">
      <path id="Path_73916" data-name="Path 73916" d="M19.47,12.6l3.873.52-3.607,3.5.859,4.935-4.456-2.329-4.457,2.329.855-4.936-3.607-3.5,4.979-.719,2.228-4.488,1.9,3.413" transform="translate(309 1255)" fill="none" stroke="#21436d" stroke-linecap="round" stroke-linejoin="round" stroke-width="1.1"/>
    </g>
    <g id="Group_8983" data-name="Group 8983" transform="translate(-0.004)">
      <circle id="Ellipse_107" data-name="Ellipse 107" cx="16" cy="16" r="16" transform="translate(347.004 1119.45)" fill="none" stroke="#0af" stroke-width="1.1"/>
    </g>
  </g>
</svg>
