<svg xmlns="http://www.w3.org/2000/svg" xmlns:xlink="http://www.w3.org/1999/xlink" width="341" height="151" viewBox="0 0 341 151">
  <defs>
    <linearGradient id="linear-gradient" x1="0.989" y1="0.033" x2="0.05" y2="1" gradientUnits="objectBoundingBox">
      <stop offset="0" stop-color="#0c044a"/>
      <stop offset="0.512" stop-color="#023b89"/>
      <stop offset="1" stop-color="#2b8fe5"/>
    </linearGradient>
    <clipPath id="clip-path">
      <path id="Rectangle_3629" data-name="Rectangle 3629" d="M10,0H136a0,0,0,0,1,0,0V150a0,0,0,0,1,0,0H10A10,10,0,0,1,0,140V10A10,10,0,0,1,10,0Z" transform="translate(70 1300)" fill="#fff"/>
    </clipPath>
    <clipPath id="clip-path-2">
      <rect id="Rectangle_3630" data-name="Rectangle 3630" width="283.825" height="286.304" fill="none"/>
    </clipPath>
  </defs>
  <g id="Group_9266" data-name="Group 9266" transform="translate(-142.5 -1290.5)">
    <path id="Path_73829" data-name="Path 73829" d="M9.687,0H330.313C335.663,0,340,5.127,340,11.45v127.1c0,6.324-4.337,11.45-9.687,11.45H9.687C4.337,150,0,144.874,0,138.55V11.45C0,5.127,4.337,0,9.687,0Z" transform="translate(143 1291)" stroke="rgba(0,0,0,0)" stroke-width="1" fill="url(#linear-gradient)"/>
    <g id="Group_8895" data-name="Group 8895" transform="translate(292.502 1325.307)">
      <text id="Special_Instant_20_off_for_all_services" data-name="Special Instant
20% off for all services" transform="translate(150.52 65.383)" fill="#5cff8c" font-size="11" font-family="SegoeUI, Segoe UI"><tspan x="-70" y="0">Special Instant</tspan><tspan font-size="14" font-family="SegoeUI-Bold, Segoe UI" font-weight="700"><tspan x="-115" y="12">20%</tspan><tspan y="12" xml:space="preserve" font-size="11" font-family="SegoeUI, Segoe UI" font-weight="400"> off for all services</tspan></tspan></text>
      <text id="Lorem_ipsum_dolor_sit_amet_consetetur" data-name="Lorem ipsum dolor sit amet consetetur" transform="translate(150.52 91.383)" fill="#59c3ff" font-size="7" font-family="SegoeUI, Segoe UI" opacity="0.819"><tspan x="-119" y="0">Lorem ipsum dolor sit amet consetetur</tspan></text>
      <line id="Line_275" data-name="Line 275" x1="130" transform="translate(20.498 82.193)" fill="none" stroke="#2e6486" stroke-width="0.5"/>
    </g>
    <g id="Group_9269" data-name="Group 9269" transform="translate(292.502 1297.307)">
      <text id="Looking_good_is_not_an_act_It_s_a_habit" data-name="Looking good is not an act
It’s a habit" transform="translate(150.52 67.383)" fill="#10acfc" font-size="13.85" font-family="BebasKai, Bebas Kai"><tspan x="-127" y="0">Looking good is not an act</tspan><tspan x="-52" y="12">It’s a habit</tspan></text>
    </g>
    <g id="Mask_Group_12" data-name="Mask Group 12" transform="translate(73 -9)" clip-path="url(#clip-path)">
      <g id="Group_9267" data-name="Group 9267" transform="translate(-76.848 1291.478)">
        <g id="Group_9268" data-name="Group 9268">
          <g id="Group_9267-2" data-name="Group 9267" transform="translate(-3.968 3.997)" clip-path="url(#clip-path-2)">
            <path id="Path_74052" data-name="Path 74052" d="M4.114,328.987l9.369,10.647a20.845,20.845,0,0,0-3.8-6.327,18.158,18.158,0,0,0-5.568-4.32" transform="translate(268.838 -192.3)" fill="#90dea7"/>
            <path id="Path_74053" data-name="Path 74053" d="M0,324.873l17.874,20.311a23.356,23.356,0,0,0-.2-2.79L2.456,325.1A16,16,0,0,0,0,324.873" transform="translate(265.951 -189.896)" fill="#90dea7"/>
            <path id="Path_74054" data-name="Path 74054" d="M.584,325.9l22.165,25.188c.163-.7.293-1.409.39-2.121L2.45,325.457a16.517,16.517,0,0,0-1.866.443" transform="translate(260.472 -190.237)" fill="#90dea7"/>
            <path id="Path_74055" data-name="Path 74055" d="M3.911,329.616l24.546,27.893q.4-.849.732-1.732L5.435,328.784a16.7,16.7,0,0,0-1.524.832" transform="translate(253.206 -192.182)" fill="#90dea7"/>
            <path id="Path_74056" data-name="Path 74056" d="M9.324,335.331,34.879,364.37q.529-.7,1-1.431L10.584,334.2q-.646.532-1.26,1.133" transform="translate(244.541 -195.346)" fill="#90dea7"/>
            <path id="Path_74057" data-name="Path 74057" d="M17.464,341.317q-.543.682-1.02,1.4L41.81,371.547q.635-.544,1.237-1.159Z" transform="translate(234.766 -199.507)" fill="#90dea7"/>
            <path id="Path_74058" data-name="Path 74058" d="M25.948,350.063c-.278.555-.531,1.125-.758,1.7l23.946,27.212a16.664,16.664,0,0,0,1.5-.861Z" transform="translate(223.981 -204.62)" fill="#90dea7"/>
            <path id="Path_74059" data-name="Path 74059" d="M36.2,360.651q-.262,1.029-.426,2.079l21.036,23.905a15.972,15.972,0,0,0,1.83-.484Z" transform="translate(212.1 -210.809)" fill="#90dea7"/>
            <path id="Path_74060" data-name="Path 74060" d="M48.875,373.747a23.4,23.4,0,0,0,.123,2.7l15.859,18.021a16.036,16.036,0,0,0,2.379.14Z" transform="translate(198.72 -218.463)" fill="#90dea7"/>
            <path id="Path_74061" data-name="Path 74061" d="M67.105,391.978a20.983,20.983,0,0,0,4.135,7.263,17.97,17.97,0,0,0,6.391,4.7Z" transform="translate(181.659 -229.12)" fill="#90dea7"/>
            <path id="Path_74062" data-name="Path 74062" d="M87.188,143.152c0,79.061,56.4,143.152,125.974,143.152s125.974-64.091,125.974-143.152S282.735,0,213.162,0,87.188,64.091,87.188,143.152" transform="translate(-87.188)" fill="#90dea7"/>
            <path id="Path_74063" data-name="Path 74063" d="M442.85,133.675l9.369,10.647a20.85,20.85,0,0,0-3.8-6.327,18.159,18.159,0,0,0-5.568-4.32" transform="translate(-330.309 -78.136)" fill="#fff"/>
            <path id="Path_74064" data-name="Path 74064" d="M438.736,129.561l17.874,20.311a23.35,23.35,0,0,0-.2-2.79l-15.219-17.294a16.011,16.011,0,0,0-2.456-.227" transform="translate(-333.196 -75.731)" fill="#fff"/>
            <path id="Path_74065" data-name="Path 74065" d="M439.32,130.588l22.166,25.188c.162-.7.293-1.408.39-2.121l-20.69-23.511a16.512,16.512,0,0,0-1.866.443" transform="translate(-338.675 -76.073)" fill="#fff"/>
            <path id="Path_74066" data-name="Path 74066" d="M442.647,134.3,467.193,162.2q.4-.849.732-1.732l-23.754-26.993a16.755,16.755,0,0,0-1.524.832" transform="translate(-345.94 -78.017)" fill="#fff"/>
            <path id="Path_74067" data-name="Path 74067" d="M448.06,140.018l25.555,29.039q.529-.7,1-1.431L449.32,138.885q-.645.532-1.26,1.133" transform="translate(-354.606 -81.181)" fill="#fff"/>
            <path id="Path_74068" data-name="Path 74068" d="M456.2,146.005q-.543.682-1.019,1.4l25.366,28.825c.423-.362.837-.747,1.236-1.159Z" transform="translate(-364.38 -85.343)" fill="#fff"/>
            <path id="Path_74069" data-name="Path 74069" d="M464.683,154.75c-.278.555-.531,1.125-.758,1.7l23.946,27.212a16.671,16.671,0,0,0,1.5-.861Z" transform="translate(-375.165 -90.455)" fill="#fff"/>
            <path id="Path_74070" data-name="Path 74070" d="M474.94,165.339q-.262,1.029-.426,2.079l21.037,23.905a15.97,15.97,0,0,0,1.83-.484Z" transform="translate(-387.047 -96.644)" fill="#fff"/>
            <path id="Path_74071" data-name="Path 74071" d="M487.611,178.434a23.4,23.4,0,0,0,.123,2.7l15.859,18.021a15.993,15.993,0,0,0,2.379.14Z" transform="translate(-400.427 -104.299)" fill="#fff"/>
            <path id="Path_74072" data-name="Path 74072" d="M505.841,196.666a20.987,20.987,0,0,0,4.135,7.263,17.976,17.976,0,0,0,6.391,4.7Z" transform="translate(-417.488 -114.956)" fill="#fff"/>
            <path id="Path_74073" data-name="Path 74073" d="M44.685,324.4c5.184-5.858,8.485-13.784,14.327-18.78a34.278,34.278,0,0,1,9.243-5.326A83.017,83.017,0,0,1,92.2,294.218a1.28,1.28,0,0,1,.9.135,1.552,1.552,0,0,1,.464,1.15c.322,3.964-2.616,7.241-5.508,9.488a46.1,46.1,0,0,1-14.908,7.771c-8.32,2.516-17.583,2.691-24.488,8.534Z" transform="translate(173.896 -171.965)" fill="#27ac81"/>
            <path id="Path_74074" data-name="Path 74074" d="M110.039,303.112C97.2,306.1,84.062,310.135,73.888,319.525a100.255,100.255,0,0,0-10.824,12.5l-9.4,12.131" transform="translate(154.164 -177.176)" fill="none" stroke="#fff" stroke-width="1"/>
            <path id="Path_74075" data-name="Path 74075" d="M67.569,289.067c5.545-22.979,19.542-43.161,37.907-54.66.822-.515,1.871-1.005,2.643-.4a3.028,3.028,0,0,1,.773,2.287c.33,8.787-3.825,17.129-9.287,23.359s-12.2,10.77-18.585,15.736-12.643,10.617-16.48,18.254" transform="translate(151.318 -136.619)" fill="#54c293"/>
            <path id="Path_74076" data-name="Path 74076" d="M122.838,242.217c-19.962,23.192-40.3,47.586-49.815,78.17" transform="translate(134.288 -141.581)" fill="none" stroke="#fff" stroke-width="1"/>
            <path id="Path_74077" data-name="Path 74077" d="M162.747,235.675c-.733,4.269.7,8.469,1.5,12.582a37.69,37.69,0,0,1,.459,12.24,29.336,29.336,0,0,1-8.093,16.549,21.95,21.95,0,0,1-8.079,5.287c-.062.022-.086-.084-.026-.11a26.751,26.751,0,0,0,12.776-12.1,29.271,29.271,0,0,0,2.984-8.834,36.744,36.744,0,0,0-.249-12.631c-.789-4.267-2.294-8.6-1.336-13,.01-.045.069-.026.061.02" transform="translate(64.526 -137.731)" fill="#1d2b5e"/>
            <path id="Path_74078" data-name="Path 74078" d="M154.766,217.28c-2.694,3.131-2.537,7.818-1.7,11.775.489,2.3,1.177,4.542,1.739,6.82.55,2.23,1.03,4.486,1.379,6.769,1.232,8.05.671,16.958-3.893,23.626-2.57,3.753-6.355,5.953-9.531,8.939-.066.062-.162-.041-.1-.109,2.729-2.823,6.067-4.8,8.535-7.961a24.765,24.765,0,0,0,4.547-10.777,41.168,41.168,0,0,0-.023-13.464c-.346-2.32-.828-4.611-1.381-6.877-.548-2.247-1.22-4.457-1.7-6.724-.871-4.081-.889-9.029,2.077-12.067Z" transform="translate(74.916 -126.975)" fill="#1d2b5e"/>
            <path id="Path_74079" data-name="Path 74079" d="M171.309,221.187c-2.305,2.475-2.9,6.419-2.632,10.01s1.267,7.068,1.616,10.65A30.864,30.864,0,0,1,168.678,255c-2.7,7.664-8.19,13.609-13.978,18.6-2.953-4.436-5.792-9.16-6.941-14.567s-.3-11.677,3.28-15.475Z" transform="translate(58.668 -129.289)" fill="#1d2b5e"/>
            <path id="Path_74080" data-name="Path 74080" d="M181.994,240.574a34.364,34.364,0,0,1,2.046,20.351,41.13,41.13,0,0,1-8.295,17.768,45.869,45.869,0,0,1-7.524,7.507c-.131.1-.25-.137-.124-.241A46.644,46.644,0,0,0,179.986,271.6a38.872,38.872,0,0,0,4.444-19.508,33.3,33.3,0,0,0-2.524-11.457c-.027-.066.056-.123.086-.057" transform="translate(37.676 -140.604)" fill="#1d3268"/>
            <path id="Path_74081" data-name="Path 74081" d="M175.377,240.98a52.335,52.335,0,0,1,2.384,22.367,36.849,36.849,0,0,1-2.922,10.442,47.437,47.437,0,0,1-5.312,8.828,85.985,85.985,0,0,1-7.615,8.838c-.052.053-.126-.03-.077-.088,4.355-5.128,8.951-10.021,12.1-16.27a40.372,40.372,0,0,0,3.778-21.589,61.8,61.8,0,0,0-2.455-12.49.064.064,0,1,1,.122-.039" transform="translate(46.547 -140.829)" fill="#1d3268"/>
            <path id="Path_74082" data-name="Path 74082" d="M107.716,58.379c3.423-.062,6.912-.114,10.185,1.027a11.67,11.67,0,0,1,7.467,7.372c1.257,4.145-.174,8.657-1.589,12.736l-3.12,8.992a41.043,41.043,0,0,0-12.733-20.845Z" transform="translate(118.591 -34.108)" fill="#1d2b5e"/>
            <path id="Path_74083" data-name="Path 74083" d="M248.958,292.1c-8.471-.4-16.936-1.3-25.41-1.033a32.744,32.744,0,0,1,4.461-8.84c3.762-4.819,9.436-6.928,14.5-9.823a55.724,55.724,0,0,0,21.553-23.057c1.832-3.584,3.327-7.375,4.817-11.158a50.465,50.465,0,0,0,1.855-5.271,38.354,38.354,0,0,1,1.271-4.5c1.605-3.926,5.2-6.2,8.575-8.214a77.907,77.907,0,0,0,2.478,17.03,7.085,7.085,0,0,0-.85,2.036c-2.323,14.96-.774,30.36-8.518,43.56a39.191,39.191,0,0,1-8.4,9.5c-5.444.085-10.888.033-16.33-.226" transform="translate(-80.967 -128.715)" fill="#e5e5e5"/>
            <path id="Path_74084" data-name="Path 74084" d="M170.222,306.792c7.744-13.2,6.2-28.6,8.518-43.56a7.079,7.079,0,0,1,.85-2.036,74.5,74.5,0,0,0,5.347,14.365l3.624,5.568c6.953,8.943,13.554,25.861,13.6,31.822-11.428.793-28.9,3.157-40.34,3.336a39.2,39.2,0,0,0,8.4-9.5" transform="translate(22.501 -152.676)" fill="#fff"/>
            <path id="Path_74085" data-name="Path 74085" d="M164.606,244.848c-1.73-33.074,55.446-49.064,75.185-65.175,11.872-11.6,23.271-32.565,41.513-26.111,4.87,2.351,7.448,9.107,7.963,14.808-3.615,9.458-18.829,8.38-22.769,12.377-13.867,13.327-8.233,37.5-17.521,53.312-14.355,17.008-40.823,9.186-53.635,28.608-2.928-7.288-30.16-9.521-30.737-17.819" transform="translate(-65.613 -89.054)" fill="#1d2b5e"/>
            <path id="Path_74086" data-name="Path 74086" d="M286.51,185.4c-2.191,3.918-6.073,5.845-9.811,7.244-2.243.84-4.532,1.553-6.71,2.606a17.871,17.871,0,0,0-5.526,4.088c-6.6,7.287-7.521,18.343-10.147,27.815a39.864,39.864,0,0,1-15.195,22.437c-7.892,5.916-17.131,8.914-26.29,11.127-9.05,2.186-19.291,3.423-26.242,11.135a25.229,25.229,0,0,0-2.068,2.639c-.119.174-.384-.056-.27-.238,5.405-8.691,15.385-11.082,23.982-13.044,9.467-2.161,19.087-4.64,27.587-10.052a41.4,41.4,0,0,0,17.145-20.848c3.322-9.373,3.782-20.139,9.255-28.448a19.948,19.948,0,0,1,4.161-4.66,22.216,22.216,0,0,1,6.018-3.236c4.14-1.588,8.593-2.669,12.008-5.97a12.39,12.39,0,0,0,2.065-2.621Z" transform="translate(-70.04 -108.354)" fill="#1d3268"/>
            <path id="Path_74087" data-name="Path 74087" d="M321.344,173.745c-3.178,3.854-7.745,5.326-12,7.015a30.916,30.916,0,0,0-6.513,3.286,21.25,21.25,0,0,0-5.439,5.789c-6.119,9.334-6.8,21.657-12.539,31.219a25.5,25.5,0,0,1-11.518,10.166c-4.958,2.26-10.308,3.253-15.585,3.976-12.1,1.658-24.36,1.339-36.405,3.577a64.093,64.093,0,0,0-16.484,5.2c-4.741,2.313-9.53,5.383-12.793,10.037a20.336,20.336,0,0,0-2.04,3.685c-.11.257-.446.032-.337-.224,2.173-5.087,6.21-8.711,10.485-11.394a55.321,55.321,0,0,1,15.645-6.543c11.662-3.02,23.675-3,35.542-4.079a85.194,85.194,0,0,0,17.447-2.979c4.958-1.526,9.814-4.018,13.4-8.3,7.233-8.642,8.016-21.425,13.163-31.443a27.946,27.946,0,0,1,4.3-6.309,20.192,20.192,0,0,1,5.843-4.3c4.259-2.124,8.985-3.113,12.952-5.964a16.2,16.2,0,0,0,2.789-2.511c.053-.061.135.032.083.1" transform="translate(-106.883 -101.491)" fill="#1d3268"/>
            <path id="Path_74088" data-name="Path 74088" d="M76.192,137.815l.027.106c.461,2.315.964,4.655,1.541,6.979,1.986,8.038,4.832,15.9,9.843,22a.857.857,0,0,0,1.5-.674c-.008-10.4,3.148-19.549,10.207-26.659,4.6-4.915,8.7-10.789,14.175-14.463,3.5-2.35,7.658-1.932,11.434-3.067.042-.013.085-.031.128-.049,5.417-2.521,3.028-5.706,2.641-10.075-.027-.29-.043-.589-.046-.894a2.581,2.581,0,0,1,.782-1.6c.093-.1.19-.2.287-.295.709-.718,1.448-1.369,1.092-2.645a2.812,2.812,0,0,0-.24-.58.848.848,0,0,1-.089-.247,1.038,1.038,0,0,1,.039-.634,1.019,1.019,0,0,1,.256-.4c.833-.783.813-1.381.484-1.927-.546-.9-1.944-1.663-1.8-2.917a2.311,2.311,0,0,1,.445-1.061,1.137,1.137,0,0,1,.113-.132c.77-.774,2.668-1.817,3.26-2.927.352-.651.248-1.324-.8-1.979-3.133-1.676-6.958-2.385-9.041-5.5a1.056,1.056,0,0,1-.131-.277c-3.647-11.647-5.227-20.667-16.727-25.89a.79.79,0,0,0-.3-.07l-4.228-.172a.835.835,0,0,0-.689.339c-6.892,9.073-7.627,22.136-6.621,34.011.1,1.289.236,2.561.38,3.815.093.818-.7,1.4-1.313.959-3.016-2.174-7.02-1.381-7.229,3.635a10.878,10.878,0,0,0,4.441,8.377,7.339,7.339,0,0,0,3.744,1.548,4.386,4.386,0,0,0,3.171-.99l.1-.079a.778.778,0,0,1,1.173.176,1.068,1.068,0,0,1,.171.889c-1.518,6.354-8.422,9.6-13.966,10.323-7.756,1.126-11.082,4.056-8.2,13.041" transform="translate(123.891 -36.106)" fill="#ffd19d"/>
            <path id="Path_74089" data-name="Path 74089" d="M112.441,109.905c-.63.376-1.265.918-1.971.816a3.129,3.129,0,0,1,.181-1.815,4.509,4.509,0,0,1,3.137-1.973c.658-.149,1.316-.3,1.975-.447a1.346,1.346,0,0,1,.448-.036,1.121,1.121,0,0,1,.325.093,3.146,3.146,0,0,1,1.418,3.049c-.939.227-1.846-.286-2.781-.344a4.747,4.747,0,0,0-2.731.656" transform="translate(125.435 -62.219)" fill="#ffbd85"/>
            <path id="Path_74090" data-name="Path 74090" d="M169.424,152.856a10.878,10.878,0,0,0,4.442,8.378c-.318-.665-.6-1.355-.86-2.055a2.715,2.715,0,0,1-.124-2.108,2.226,2.226,0,0,1,1.069-.885,18.482,18.482,0,0,0,5.951-4.1c1.622-1.9,2.528-4.875,1.529-7.277l-3.845-.356c.1,1.289.236,2.561.38,3.815.093.818-.7,1.4-1.313.959-3.016-2.174-7.02-1.382-7.229,3.634" transform="translate(40.032 -84.433)" fill="#d19767"/>
            <path id="Path_74091" data-name="Path 74091" d="M182.25,162.3a2.562,2.562,0,0,0-1.16-2.07,3.23,3.23,0,0,0-3.758-.128,3.4,3.4,0,0,0-1.054,3.93,5.952,5.952,0,0,1,1.269-2.018,1.823,1.823,0,0,1,.985-.607.83.83,0,0,1,.916.578c.215.8-.812,1.466-.712,2.3.151,1.25,1.748.75,2.467,1.27a3.19,3.19,0,0,1,1.134,1.137q-.167-1.164-.334-2.328a2.033,2.033,0,0,1,.008-1.01,4.112,4.112,0,0,0,.241-1.051" transform="translate(37.131 -93.265)" fill="#d19767"/>
            <path id="Path_74092" data-name="Path 74092" d="M144.279,102.8l.763,11.572.015.255.922,13.965.023.334,1.138,17.266.019.264,1.766,26.8s11.759-17.327,32.381-27.227,30.2-1.483,41.236-8.905,5.227-19.474,13.846-31.2,20.421-10.059,26.229-12.532c5.378-2.292,4.526-8.408,3.566-13.23-.015-.066-.027-.132-.042-.2q-.093-.469-.186-.924a6.244,6.244,0,0,1-.128-1.606c0-.106.012-.207.023-.308.267-2.878,2.466-5.011,3.926-6.864.043-.053.082-.105.124-.158a6.769,6.769,0,0,0,.992-1.624c1.018-2.64-3.194-6.274-1.5-8.949a11.97,11.97,0,0,1,2.5-2.609c.046-.04.089-.075.132-.115a11.024,11.024,0,0,0,2.3-2.393l.066-.1a4.921,4.921,0,0,0,.693-1.993c-11.481-13.688-32.656-4.136-41.368,6.424s-7.407,21.449-27.154,23.43A31.34,31.34,0,0,0,198,84.153h0q-.372.145-.732.3h0c-10.927,4.765-13.145,15.241-25.392,22.466-15.1,8.91-27.587-4.123-27.587-4.123" transform="translate(-44.015 -26.616)" fill="#1d3877"/>
            <path id="Path_74093" data-name="Path 74093" d="M109.371,124.634a1.3,1.3,0,0,1-.989-.452l.009-.017a1.571,1.571,0,0,0,1.361-.119l.08-.041a1.789,1.789,0,0,1,1.51-.036c1.452.35,2.714.578,3.977-.487.127-.108.287.1.211.24a2.507,2.507,0,0,1-1.985,1.3,3.633,3.633,0,0,1-1.148-.081,2.087,2.087,0,0,1-.813.3l-.005-.04a2.062,2.062,0,0,0,.716-.279c-.1-.023-.2-.047-.305-.072-.079-.02-.152-.034-.229-.052a1.957,1.957,0,0,1-1.408.387v-.042a1.783,1.783,0,0,0,.88-.423l.031-.029c-.124-.024-.249-.046-.373-.066a1.555,1.555,0,0,1-.669.385,1.408,1.408,0,0,1-.817-.085l0-.04a1.309,1.309,0,0,0,.87-.347c-.107-.013-.22-.025-.331-.037a1.72,1.72,0,0,1-.576.133" transform="translate(128.65 -72.16)" fill="#1d1d56"/>
            <path id="Path_74094" data-name="Path 74094" d="M287.547,146.144a8.756,8.756,0,0,1-1.512,6.32,11.21,11.21,0,0,1-5.29,4.053,43.1,43.1,0,0,1-7.467,1.9q-4.121.848-8.243,1.7c-4.5.933-9.363,2.06-12.752,5.828-2.992,3.326-4.294,8.006-5.684,12.363-1.381,4.327-2.97,8.652-6.12,11.716-3.615,3.517-8.307,5.085-12.906,6.02-2.675.544-5.376.905-8.056,1.418a78.125,78.125,0,0,0-8,1.975,75.045,75.045,0,0,0-15.489,6.582,90.265,90.265,0,0,0-13.355,10.018,100.158,100.158,0,0,0-11.825,11.343q-1.331,1.576-2.549,3.266l-.026-.029a73.517,73.517,0,0,1,10.957-11.882,137.585,137.585,0,0,1,12.555-10.4,65.257,65.257,0,0,1,14.424-7.444,82.209,82.209,0,0,1,15.688-4.195c5.016-.842,10.186-1.534,14.761-4.2a17.657,17.657,0,0,0,5.462-4.846,25.016,25.016,0,0,0,3.084-6.158c1.52-4.167,2.487-8.646,4.578-12.521a15.732,15.732,0,0,1,3.943-4.867,18.3,18.3,0,0,1,6.014-3.039,67.358,67.358,0,0,1,6.982-1.636l8.218-1.664c4.591-.929,10.121-2.22,12.137-7.688a8.141,8.141,0,0,0,.442-3.922Z" transform="translate(-65.355 -85.424)" fill="#1d2b5e"/>
            <path id="Path_74095" data-name="Path 74095" d="M330.419,56.785c-6.472,3.007-11.283,9.019-15.966,14.688-4.525,5.478-9.35,11.176-15.718,13.774-4.1,1.674-8.508,1.829-12.8,2.312a33.3,33.3,0,0,0-6.6,1.288,20.5,20.5,0,0,0-5.951,3.165c-3.6,2.7-6.671,6.217-10.161,9.1a39.579,39.579,0,0,1-11.364,6.8,24,24,0,0,1-12.5,1.261,19.407,19.407,0,0,1-5.971-2.1,26.64,26.64,0,0,1-5.431-4.166c-.868-.829-1.711-1.691-2.553-2.552l.045-.051a54.19,54.19,0,0,0,5.461,4.911,19.867,19.867,0,0,0,5.983,3.079,22.615,22.615,0,0,0,12.984-.049,35.892,35.892,0,0,0,11.725-6.207c3.574-2.74,6.665-6.148,10.116-9.064a24.526,24.526,0,0,1,5.315-3.546,23.655,23.655,0,0,1,6.316-1.836c4.295-.7,8.685-.671,12.919-1.833,6.911-1.9,12.09-7.454,16.873-13.114,4.593-5.437,9.108-11.423,15.143-14.843a23.445,23.445,0,0,1,2.124-1.065Z" transform="translate(-129.005 -33.163)" fill="#1d3268"/>
            <path id="Path_74096" data-name="Path 74096" d="M420.233,138.3c-2.691.085-5.148,1.442-7.394,3.028a82.453,82.453,0,0,0-6.539,5.305c-4.066,3.549-8.1,7.26-12.793,9.708a22.513,22.513,0,0,1-7.073,2.388,32.325,32.325,0,0,1-7.953.062,44.841,44.841,0,0,1-13.914-3.751,46.335,46.335,0,0,1-13.8-9.376c-.067-.067.029-.171.1-.11a52.6,52.6,0,0,0,12.437,8.625,45.294,45.294,0,0,0,14.05,4.2,36.675,36.675,0,0,0,7.609.246,21.719,21.719,0,0,0,7.535-2.067c4.79-2.271,8.908-5.949,12.988-9.518a81.022,81.022,0,0,1,7.145-5.744c2.313-1.6,4.85-2.984,7.609-3.033Z" transform="translate(-264.646 -80.813)" fill="#1d3268"/>
            <path id="Path_74097" data-name="Path 74097" d="M372.1,110.712a24.885,24.885,0,0,1-15.667,8.484c-6.9,1.1-13.852-.121-20.662-1.382-7.058-1.307-14.22-2.7-21.389-1.786a27.539,27.539,0,0,0-10.067,3.251,56.259,56.259,0,0,0-8.459,6.214c-5.175,4.358-10.648,9.2-17.243,10.163a15.644,15.644,0,0,1-2.469.16c-.117,0-.117-.206,0-.206,6.816.024,12.7-4.507,17.967-8.934a87.207,87.207,0,0,1,8.244-6.46,27.757,27.757,0,0,1,9.275-3.932c6.747-1.472,13.667-.592,20.388.6,7.13,1.268,14.331,2.941,21.585,2.394,6-.452,12.2-2.453,16.851-6.952a22.557,22.557,0,0,0,1.577-1.7c.045-.053.114.027.071.08" transform="translate(-189.221 -64.656)" fill="#1d3268"/>
            <path id="Path_74098" data-name="Path 74098" d="M267.828,207.542c-3.452.109-6.592,2.1-9.059,4.744a27.436,27.436,0,0,0-5.718,9.683,38.089,38.089,0,0,0-1.769,12.191,119.745,119.745,0,0,1-.715,13.289,63.815,63.815,0,0,1-2.688,12.676,36.251,36.251,0,0,1-4.781,9.337A44.367,44.367,0,0,1,228,282.52c-6.7,3.65-13.924,5.852-21.12,7.816q-1.347.367-2.7.729c-.125.034-.178-.184-.053-.219,7.326-2.023,14.713-4.021,21.65-7.448a46.066,46.066,0,0,0,16.083-12.682,35.811,35.811,0,0,0,5.24-9.173,58,58,0,0,0,3.026-12.788,105.037,105.037,0,0,0,.894-13.64,42.079,42.079,0,0,1,1.491-12.276,28.357,28.357,0,0,1,5.063-9.5c2.146-2.618,4.885-4.867,8.009-5.636a9.434,9.434,0,0,1,2.236-.264c.059,0,.058.1,0,.1" transform="translate(-58.656 -121.253)" fill="#1d2b5e"/>
            <path id="Path_74099" data-name="Path 74099" d="M343.217,217.283a42.732,42.732,0,0,0-5.851,9.406c-1.761,3.618-3.295,7.369-4.9,11.079a79.892,79.892,0,0,1-4.935,10.119,29.9,29.9,0,0,1-8.008,8.534c-7.18,5.208-15.638,7.13-23.914,8.719-4.6.883-9.2,1.754-13.745,2.935a137.8,137.8,0,0,0-13.317,4.168,52.331,52.331,0,0,0-12.3,6.283,92.248,92.248,0,0,0-10.479,9.058c-.823.8-1.645,1.6-2.482,2.375-.111.1-.269-.069-.16-.183a107.147,107.147,0,0,1,10.049-9.362,49.564,49.564,0,0,1,11.407-6.967,109.726,109.726,0,0,1,13.264-4.623c4.473-1.295,8.993-2.338,13.544-3.213,8.585-1.651,17.437-3.008,25.257-7.644a31.62,31.62,0,0,0,9.15-8,49.764,49.764,0,0,0,5.412-9.925c1.65-3.7,3.189-7.466,4.89-11.137a53.261,53.261,0,0,1,5.487-9.78,24.246,24.246,0,0,1,1.585-1.891Z" transform="translate(-148.273 -126.981)" fill="#1d3268"/>
            <path id="Path_74100" data-name="Path 74100" d="M158.52,104.69c-.015.048-.035.092-.05.14.043-.053.082-.105.124-.158Z" transform="translate(67.291 -61.184)" fill="#1d2b5e"/>
            <path id="Path_74101" data-name="Path 74101" d="M169.582,158.9a36.52,36.52,0,0,0,2.8,3.071,42.264,42.264,0,0,0,23.724,11.4c1.374.2,2.757.33,4.135.4,10.919.568,21.683-2.93,31.289-8.672A90.875,90.875,0,0,0,245.6,154.6c4.639-4.171,8.731-9.222,13.722-12.87,10.47-7.661,23.464-6.771,35.3-8.848,7.662-1.347,15.972-4.479,21.311-11,0-.106.012-.207.024-.308-6.854,8.492-17.815,10.789-27.561,11.9-5.831.664-11.7,1.1-17.431,2.609a35.359,35.359,0,0,0-15.031,8.069c-2.257,2.05-4.364,4.3-6.54,6.464-2.149,2.134-4.371,4.176-6.671,6.1a84.5,84.5,0,0,1-14.26,9.781c-9.746,5.231-20.549,7.99-31.332,6.683-.348-.044-.7-.088-1.045-.141A42.843,42.843,0,0,1,169.76,158.7c-.112-.133-.29.07-.178.2" transform="translate(-94.118 -71.063)" fill="#1d2b5e"/>
            <path id="Path_74102" data-name="Path 74102" d="M168.687,192.138a23.253,23.253,0,0,0,3.663,1.681,33.545,33.545,0,0,0,16.01,1.078c.144-.018.283-.04.422-.061a65.48,65.48,0,0,0,14.969-4.2,75.195,75.195,0,0,0,25.826-17.855,113.366,113.366,0,0,0,10.493-13.469c3.415-4.9,7.1-9.416,12.1-12.24,10.438-5.914,22.465-4.7,33.694-6.552,7.868-1.293,16.483-4.686,21.524-11.915-.016-.066-.027-.132-.042-.2-6.373,9.108-17.4,11.616-27.1,12.57-10.582,1.039-22.144.929-31.32,7.92-4.41,3.366-7.628,8.224-10.872,12.91a87.635,87.635,0,0,1-10.57,12.751,74,74,0,0,1-26.57,16.883,62.88,62.88,0,0,1-12.565,3.195q-1.51.211-3.024.33a29.363,29.363,0,0,1-16.53-3.018c-.116-.066-.216.128-.1.194" transform="translate(-85.216 -75.056)" fill="#1d2b5e"/>
            <path id="Path_74103" data-name="Path 74103" d="M152.663,114.553q1.318,1.789,2.784,3.428a40.965,40.965,0,0,0,17.385,11.505,36.62,36.62,0,0,0,12.832,1.919,38.476,38.476,0,0,0,16.579-4.431,40.789,40.789,0,0,0,7.586-5.156c2.288-1.966,4.41-4.167,6.613-6.257a35.613,35.613,0,0,1,7.407-5.7,27.138,27.138,0,0,1,8.8-2.719c5.855-.907,11.933-.753,17.567-3.032C260.284,100.034,265.6,88.633,273.1,80.8c7.059-7.37,17.164-11.3,26.573-9.015.047-.04.089-.075.132-.115a25.149,25.149,0,0,0-14.81.933,33.23,33.23,0,0,0-13.273,9.341c-3.713,4.158-6.854,8.91-10.482,13.156-3.849,4.5-8.232,8.083-13.656,9.614-5.828,1.637-11.9,1.346-17.769,2.7a23.735,23.735,0,0,0-8.061,3.424,49.566,49.566,0,0,0-6.629,5.658,86.3,86.3,0,0,1-7.055,6.446,39.888,39.888,0,0,1-8.007,4.827,37.719,37.719,0,0,1-17.311,3.379,36.024,36.024,0,0,1-9.936-1.91,42.748,42.748,0,0,1-20.064-14.779c-.054-.071-.143.031-.089.1" transform="translate(-71.79 -41.474)" fill="#1d2b5e"/>
            <path id="Path_74104" data-name="Path 74104" d="M83.216,167.293c.306.049.6.128.914.159a4.935,4.935,0,0,0,1.019-.062,8.828,8.828,0,0,0,1.839-.418,10.1,10.1,0,0,0,1.13-.467,1.037,1.037,0,0,1,.039-.633,8.947,8.947,0,0,1-1.3.6,11.222,11.222,0,0,1-1.762.5c-.294.057-.6.083-.894.128-.333.048-.647.14-.98.162Z" transform="translate(165.243 -96.956)" fill="#d1a167"/>
            <path id="Path_74105" data-name="Path 74105" d="M117.227,106.348a5.966,5.966,0,0,0-3.023,2.23l.039-.57a7.079,7.079,0,0,1,5.961-4.629.673.673,0,0,1,.574.167.8.8,0,0,1,.067.726" transform="translate(121.17 -60.426)" fill="#1d2b5e"/>
            <path id="Path_74106" data-name="Path 74106" d="M175.514,186.194a6.854,6.854,0,0,0-1.212.308c-.658.211-1.309.449-1.959.682a4.389,4.389,0,0,0,3.171-.99" transform="translate(45.299 -108.835)" fill="#d1a167"/>
            <path id="Path_74107" data-name="Path 74107" d="M147.766,210.469l.027.106c.461,2.315.964,4.655,1.541,6.979a19.833,19.833,0,0,1,2.4-2.618c2.412-2.2,5.254-3.691,7.883-5.539a38.861,38.861,0,0,0,6.9-6.24,9.674,9.674,0,0,0,1.954-2.857,8.587,8.587,0,0,1,1.975-2.661,12.866,12.866,0,0,1,5.691-3.925,3.667,3.667,0,0,0,1.169-.438,1.226,1.226,0,0,0,.539-1.166c-.121-.648-.807-.88-1.365-1.065a11.018,11.018,0,0,1-3.983-2.611c-.575-.546-1.094-1.166-1.668-1.711-.245-.232-.77-.746-1.1-.639a1.844,1.844,0,0,1,.209,1.027c-1.52,6.352-8.422,9.594-13.965,10.319-7.756,1.126-11.082,4.056-8.2,13.041" transform="translate(52.317 -108.761)" fill="#ffbd85"/>
            <path id="Path_74108" data-name="Path 74108" d="M85.411,177.266c-.039.682.65,1.118,1.25,1.21.19.027.387.044.581.066-.027-.29-.043-.59-.047-.893a2.585,2.585,0,0,1,.782-1.6c.093-.1.19-.2.287-.295-.488.114-.975.233-1.468.352-.6.145-1.347.457-1.386,1.161" transform="translate(164.334 -102.732)" fill="#ffbd85"/>
            <path id="Path_74109" data-name="Path 74109" d="M76.061,147.465a2.305,2.305,0,0,1,.445-1.06,1.137,1.137,0,0,1,.112-.132c.771-.774,2.668-1.817,3.26-2.926a6.4,6.4,0,0,1-2.005.805,3.1,3.1,0,0,0-2.056,1.465,1.8,1.8,0,0,0,.244,1.848" transform="translate(176.281 -83.789)" fill="#ffbd85"/>
            <path id="Path_74110" data-name="Path 74110" d="M229.682,196.383c-2.924,6.414-9.615,8.746-14.937,11.706a21.842,21.842,0,0,0-7.879,6.751,26.825,26.825,0,0,0-3.816,10.006,70.454,70.454,0,0,0-.856,12.831c-.005,4.132-.011,8.263-.253,12.388-.457,7.779-1.627,15.832-4.793,22.833a18.437,18.437,0,0,1-2.684,4.4,12.993,12.993,0,0,1-4,3.083,34.41,34.41,0,0,1-4.833,1.932q-2.745.922-5.545,1.616c-.921.228-1.846.405-2.781.548-.095.015-.14-.143-.041-.169a102.069,102.069,0,0,0,10.834-3.257,17.354,17.354,0,0,0,4.589-2.473,13.719,13.719,0,0,0,3.393-4.181,42.14,42.14,0,0,0,3.842-10.9,79.19,79.19,0,0,0,1.7-11.936c.294-4.053.357-8.118.359-12.183a94.469,94.469,0,0,1,.555-12.642,30.806,30.806,0,0,1,3.008-10.1,19.573,19.573,0,0,1,6.61-7.261c5.333-3.564,11.982-5.228,16.087-10.839a16.792,16.792,0,0,0,1.355-2.209c.03-.058.105-.007.079.052" transform="translate(-10.654 -114.745)" fill="#1d2b5e"/>
            <path id="Path_74111" data-name="Path 74111" d="M254.149,180.709a48.368,48.368,0,0,0,8.63,4.356c4.542,1.989,12.533,1.347,14.047-4.8.031-.128.058-.256.082-.387a.075.075,0,0,0,.008-.027c-3.249.827-6.3-1.76-9.568-1.751-4.2-.334-8.464,1.153-12.476,2.389h0l-.6.184c-.039.013-.081.022-.12.035" transform="translate(-86.013 -104.075)" fill="#54c293"/>
            <path id="Path_74112" data-name="Path 74112" d="M254.17,183.241c.38.1.759.194,1.138.282a45.8,45.8,0,0,0,10.6,1.39,29.563,29.563,0,0,0,5.99-.59,26.778,26.778,0,0,0,4.832-1.492c.031-.128.058-.255.081-.387A26.05,26.05,0,0,1,271.842,184a29.3,29.3,0,0,1-5.935.585A45.815,45.815,0,0,1,255.37,183.2l-.6-.145h0l-.6.185" transform="translate(-85.914 -106.643)" fill="#fff"/>
            <path id="Path_74113" data-name="Path 74113" d="M291.32,343.176c.015-.009.035-.013.05-.022.155-.07.306-.136.457-.2,8.418-3.762,14.508-6.741,17.2-17.688l-.136.066c-.19.1-.383.189-.581.286-6.644,3.172-15.728,5.465-16.858,14.907-.132.656-.05,2.077-.136,2.653" transform="translate(-131.718 -190.124)" fill="#74c289"/>
            <path id="Path_74114" data-name="Path 74114" d="M291.69,343.246c.155-.07.306-.136.457-.2a27.12,27.12,0,0,1,6.6-7.867c1.293-1.043,2.679-1.945,4-2.97a32.463,32.463,0,0,0,6.466-6.785c-.19.1-.384.189-.581.286a32.024,32.024,0,0,1-6.048,6.226c-1.313,1.016-2.7,1.918-4.011,2.97a27.629,27.629,0,0,0-6.884,8.342" transform="translate(-132.037 -190.216)" fill="#fff"/>
            <path id="Path_74115" data-name="Path 74115" d="M377.7,105.812c.011.005.021.015.032.021.1.063.194.126.29.189,5.352,3.474,9.344,5.879,15.61,2.832l-.089-.054c-.126-.073-.252-.151-.382-.229-4.319-2.656-9.268-7.159-14.163-3.811-.363.2-.992.856-1.3,1.051" transform="translate(-247.908 -60.539)" fill="#fff"/>
            <path id="Path_74116" data-name="Path 74116" d="M377.947,108.8c.1.064.194.126.29.189a15.031,15.031,0,0,1,6.493.623c1.039.336,2.053.787,3.1,1.149a18.521,18.521,0,0,0,5.931,1.006c-.126-.073-.252-.15-.382-.229a18.361,18.361,0,0,1-5.492-.992c-1.035-.358-2.049-.81-3.1-1.153a15.253,15.253,0,0,0-6.838-.594" transform="translate(-248.118 -63.511)" fill="#74c289"/>
            <path id="Path_74117" data-name="Path 74117" d="M435.843,240.784c.352-.295,1.831,1.131,2.091,1.373,3.7,4.176,9.327,3.212,13.73,1.148l-.112-.066c-.109-.057-.213-.119-.317-.184-5.1-3.018-9.572-7.735-14.973-2.68-.085.079-.174.167-.263.255-.05.049-.1.1-.155.154" transform="translate(-327.192 -139.203)" fill="#54c293"/>
            <path id="Path_74118" data-name="Path 74118" d="M436.151,243.677a8.564,8.564,0,0,1,1.3-.1,12.9,12.9,0,0,1,3.337.493c2.277.62,4.48,1.641,6.811,2.072a13.934,13.934,0,0,0,2.529.233,13.469,13.469,0,0,0,1.572-.092c-.108-.057-.213-.119-.317-.185-.418.039-.837.057-1.255.057a14.005,14.005,0,0,1-2.5-.229c-2.3-.427-4.5-1.448-6.8-2.068a13.017,13.017,0,0,0-3.384-.5,8.215,8.215,0,0,0-1.042.062c-.085.079-.174.167-.263.255" transform="translate(-327.345 -142.249)" fill="#fff"/>
            <path id="Path_74119" data-name="Path 74119" d="M390.363,333.459c-3.009-13.957-11.188-25.693-19.847-36.166-5.412-6.546-11.348-12.976-18.788-16.009-1.247-.508-2.881-.8-3.686.4a3.949,3.949,0,0,0-.3,2.763c1.134,7.328,5.733,13.42,11.013,17.82s11.318,7.453,16.946,11.255,11.033,8.606,13.957,15.263Z" transform="translate(-233.641 -164.16)" fill="#27ac81"/>
            <path id="Path_74120" data-name="Path 74120" d="M340.246,294.081,358.1,311.33a94.481,94.481,0,0,1,9.882,10.585c5.711,7.512,9.325,16.738,12.858,25.817" transform="translate(-221.414 -171.897)" fill="none" stroke="#fff" stroke-width="1"/>
            <path id="Path_74121" data-name="Path 74121" d="M429.3,70.937a3.118,3.118,0,1,0,3.092-3.514,3.323,3.323,0,0,0-3.092,3.514" transform="translate(-308.624 -39.41)" fill="#fff"/>
            <path id="Path_74122" data-name="Path 74122" d="M221.718,127.665a1.213,1.213,0,1,0,1.2-1.368,1.294,1.294,0,0,0-1.2,1.368" transform="translate(-21.365 -73.823)" fill="#fff"/>
            <path id="Path_74123" data-name="Path 74123" d="M401.635,270.606a.607.607,0,1,0,.6-.684.647.647,0,0,0-.6.684" transform="translate(-265.859 -157.775)" fill="#fff"/>
            <path id="Path_74124" data-name="Path 74124" d="M326.177,283.96a.607.607,0,1,0,.6-.684.647.647,0,0,0-.6.684" transform="translate(-162.813 -165.581)" fill="#fff"/>
            <path id="Path_74125" data-name="Path 74125" d="M444.573,121.814a.607.607,0,1,0,.6-.684.647.647,0,0,0-.6.684" transform="translate(-324.496 -70.803)" fill="#fff"/>
            <path id="Path_74126" data-name="Path 74126" d="M247.427,120.169a.607.607,0,1,0,.6-.684.647.647,0,0,0-.6.684" transform="translate(-55.27 -69.842)" fill="#fff"/>
            <path id="Path_74127" data-name="Path 74127" d="M336.385,296.611a2.515,2.515,0,1,0,2.495-2.835,2.681,2.681,0,0,0-2.495,2.835" transform="translate(-180.538 -171.719)" fill="#fff"/>
          </g>
        </g>
      </g>
    </g>
    <text id="Body_Hair" data-name="Body &amp; Hair" transform="translate(445 1349)" fill="#5cff8c" font-size="33" font-family="BebasKai, Bebas Kai"><tspan x="-131" y="0">Body &amp; Hair</tspan></text>
  </g>
</svg>
