<svg xmlns="http://www.w3.org/2000/svg" xmlns:xlink="http://www.w3.org/1999/xlink" width="210" height="167" viewBox="0 0 210 167">
  <defs>
    <linearGradient id="linear-gradient" x1="0.923" x2="0.05" y2="1" gradientUnits="objectBoundingBox">
      <stop offset="0" stop-color="#f8fff4"/>
      <stop offset="1" stop-color="#cef4ff"/>
    </linearGradient>
    <linearGradient id="linear-gradient-2" x1="0.5" x2="0.5" y2="1" gradientUnits="objectBoundingBox">
      <stop offset="0" stop-color="#0af" stop-opacity="0.129"/>
      <stop offset="1" stop-color="#b1e6ff"/>
    </linearGradient>
    <clipPath id="clip-path">
      <rect id="Rectangle_3158" data-name="Rectangle 3158" width="17.768" height="37.689" fill="none"/>
    </clipPath>
    <clipPath id="clip-path-2">
      <rect id="Rectangle_3159" data-name="Rectangle 3159" width="25.35" height="1.299" fill="none"/>
    </clipPath>
    <clipPath id="clip-path-3">
      <rect id="Rectangle_3160" data-name="Rectangle 3160" width="7.082" height="1.299" fill="none"/>
    </clipPath>
    <linearGradient id="linear-gradient-3" x1="0.153" y1="0.027" x2="0.821" y2="0.986" gradientUnits="objectBoundingBox">
      <stop offset="0" stop-color="#01234a"/>
      <stop offset="1" stop-color="#0166a5"/>
    </linearGradient>
    <linearGradient id="linear-gradient-4" x1="0.153" y1="0.027" x2="0.821" y2="0.986" gradientUnits="objectBoundingBox">
      <stop offset="0" stop-color="#163d6a"/>
      <stop offset="1" stop-color="#0166a5"/>
    </linearGradient>
    <linearGradient id="linear-gradient-5" x1="0.109" y1="0.837" x2="0.987" y2="0.04" gradientUnits="objectBoundingBox">
      <stop offset="0" stop-color="#ffe624"/>
      <stop offset="1" stop-color="#f5d319"/>
    </linearGradient>
  </defs>
  <g id="Group_17782" data-name="Group 17782" transform="translate(-179 -601.313)">
    <rect id="Rectangle_3509" data-name="Rectangle 3509" width="210" height="130" rx="65" transform="translate(179 626)" fill="url(#linear-gradient)"/>
    <g id="Group_8923" data-name="Group 8923" transform="translate(-5.226 -40.279)">
      <path id="Path_73539" data-name="Path 73539" d="M104.857,254.7H39.709c-.947,0-1.715-1.715-1.715-1.715V175.66A2.956,2.956,0,0,1,40.95,172.7h62.666a2.956,2.956,0,0,1,2.956,2.956v77.321a1.714,1.714,0,0,1-1.715,1.715" transform="translate(184.146 541.684)" fill="url(#linear-gradient-2)"/>
      <path id="Path_73540" data-name="Path 73540" d="M149.421,192.12H121.372a.866.866,0,0,1-.866-.866V182.7a.866.866,0,0,1,.866-.866h28.049a.866.866,0,0,1,.866.866v8.558a.866.866,0,0,1-.866.866" transform="translate(137.368 536.51)" fill="#1d426d"/>
      <path id="Path_73547" data-name="Path 73547" d="M61.236,189.628a2.61,2.61,0,1,1-2.611-2.611,2.611,2.611,0,0,1,2.611,2.611" transform="translate(173.93 533.568)" fill="none"/>
      <path id="Path_73546" data-name="Path 73546" d="M61.236,189.628a2.61,2.61,0,1,1-2.611-2.611A2.611,2.611,0,0,1,61.236,189.628Z" transform="translate(173.93 533.568)" fill="none" stroke="#1d426d" stroke-width="2"/>
      <path id="Path_73544" data-name="Path 73544" d="M79.442,189.628a2.61,2.61,0,1,1-2.611-2.611,2.611,2.611,0,0,1,2.611,2.611" transform="translate(163.607 533.568)" fill="none"/>
      <path id="Path_73545" data-name="Path 73545" d="M79.442,189.628a2.61,2.61,0,1,1-2.611-2.611A2.611,2.611,0,0,1,79.442,189.628Z" transform="translate(163.607 533.568)" fill="none" stroke="#0af" stroke-width="2"/>
      <path id="Path_73541" data-name="Path 73541" d="M86.617,270.074a23.34,23.34,0,1,1,23.339-23.339,23.366,23.366,0,0,1-23.339,23.339" transform="translate(169.813 512.946)" fill="#0af"/>
      <path id="Path_73542" data-name="Path 73542" d="M84.458,222.885a21.691,21.691,0,1,1-21.691,21.691,21.691,21.691,0,0,1,21.691-21.691m0-3.3a24.988,24.988,0,1,0,24.989,24.989,25.017,25.017,0,0,0-24.989-24.989" transform="translate(171.971 515.104)" fill="#fff"/>
      <g id="Group_8641" data-name="Group 8641" transform="translate(234.739 738.35)" opacity="0.4">
        <g id="Group_7754" data-name="Group 7754">
          <g id="Group_7753" data-name="Group 7753" clip-path="url(#clip-path)">
            <path id="Path_73020" data-name="Path 73020" d="M74.541,265.724a25.381,25.381,0,0,1,3.75-4.861l.1-.1A20.544,20.544,0,0,0,84.228,241.8a33.126,33.126,0,0,1-.726-5.619,21.817,21.817,0,0,1,1.35-8.147,21.682,21.682,0,0,0-10.311,37.689" transform="translate(-67.084 -228.035)" fill="#1d426d"/>
          </g>
        </g>
      </g>
      <path id="Path_73543" data-name="Path 73543" d="M148.049,240.709c-1.53,3.452-2.535,9.259-2.535,15.842s1,12.389,2.535,15.841a21.675,21.675,0,0,0,0-31.683" transform="translate(123.192 503.128)" fill="#fff"/>
      <g id="Group_8638" data-name="Group 8638" transform="translate(260.091 722.834)" opacity="0.4">
        <g id="Group_7757" data-name="Group 7757">
          <g id="Group_7756" data-name="Group 7756" clip-path="url(#clip-path-2)">
            <line id="Line_1" data-name="Line 1" x2="24.05" transform="translate(0.65 0.65)" fill="none" stroke="#0af" stroke-linecap="round" stroke-width="3"/>
          </g>
        </g>
      </g>
      <line id="Line_49" data-name="Line 49" x2="5.782" transform="translate(279.007 723.484)" fill="none" stroke="#0af" stroke-linecap="round" stroke-width="3"/>
      <g id="Group_8640" data-name="Group 8640" transform="translate(266.549 722.834)" opacity="0.6">
        <g id="Group_7760" data-name="Group 7760">
          <g id="Group_7759" data-name="Group 7759" clip-path="url(#clip-path-3)">
            <line id="Line_3" data-name="Line 3" x2="5.782" transform="translate(0.65 0.65)" fill="none" stroke="#0af" stroke-linecap="round" stroke-width="3"/>
          </g>
        </g>
      </g>
      <g id="Group_8639" data-name="Group 8639" transform="translate(272.021 722.834)" opacity="0.8">
        <g id="Group_7763" data-name="Group 7763">
          <g id="Group_7762" data-name="Group 7762" clip-path="url(#clip-path-3)">
            <line id="Line_4" data-name="Line 4" x2="5.782" transform="translate(0.65 0.65)" fill="none" stroke="#0af" stroke-linecap="round" stroke-width="3"/>
          </g>
        </g>
      </g>
      <path id="Path_73510" data-name="Path 73510" d="M285.249,60.47c0,.933-.387,1.689-.864,1.689s-.864-.756-.864-1.689.387-1.689.864-1.689.864.756.864,1.689" transform="translate(44.948 608.266)" fill="#4a85ba"/>
      <path id="Path_73511" data-name="Path 73511" d="M298.494,100.946c-.344.821-3.111,7.807-5.521,12.52l4.967,2.006c3.6-4.255,7.409-11.814,7.859-13.666.483-1.986-2.889-12.042-2.706-12.288-2.874-1.031-7.082,2.692-9.165.225,3.136,6.182,4.869,10.477,4.565,11.2" transform="translate(39.592 590.944)" fill="#f0cbb0"/>
      <path id="Path_73512" data-name="Path 73512" d="M280.247,34.041c-.118.827-.143-6.115,1.095-.547,1.1,4.959-2.622,8.087-3.672,6.369-.051-.083-.2-.714-.289-.731a.168.168,0,0,1-.118-.066c-.1-.147.178-.25.369-.426a10.9,10.9,0,0,0,2.544-4.432" transform="translate(48.51 623.839)" fill="#1d426d"/>
      <path id="Path_73524" data-name="Path 73524" d="M211.992,110.2c2.7-5.406,8.71-17.37,8.41-17.07-.563-.251-4.532-3.474-4.555-4-.36.168-8.444,19.585-8.961,21.225Z" transform="translate(88.396 591.063)" fill="#f0ba92"/>
      <path id="Path_73513" data-name="Path 73513" d="M223.473,74.618A106.867,106.867,0,0,1,229.1,63.43c1.75-2.344,4.956-2.334,7.48-2.2,0,0,4.043-.437,8.614-.512,1.361-.023,5.669.1,6.935.273,2.219.3,4.092.748,5.079,1.566,3.2,2.653,6.257,9.786,7.308,11.914-3.254,4.906-7.825,4.574-7.759,4.856-.169-.225-.541-1.43-1.01-2.481-.024,5.235-.111,23.83.14,24.392.225.5-26.207,7.354-25.639,2.945.826-6.394,1.78-17.473.679-26.508-.022-.177.22-.638-.581,1.064-2.4.45-7.447-2.763-6.877-4.117" transform="translate(79.019 607.172)" fill="#0af"/>
      <path id="Path_73548" data-name="Path 73548" d="M228.083,353.677c-1.394,1.824-1.664,4.527-3.846,5.242a69.124,69.124,0,0,0-8.165,3.562,3.472,3.472,0,0,0-1.549,4.169c.691,1.626,18.453-.242,19.941-2.4,1.461-2.123.223-4.022.661-6.662" transform="translate(84.195 441.081)" fill="#0af"/>
      <path id="Path_73549" data-name="Path 73549" d="M276.178,358.629c-.621,1.772-2.655,3.633-2.935,5.754a4.018,4.018,0,0,0,.993,3.667c1.66,1.789,6.215,1.839,9.761,1.308,2.893-.434,3.622-4.331,2.511-6.127a17.262,17.262,0,0,1-2.524-5.779" transform="translate(50.823 438.939)" fill="#0af"/>
      <path id="Path_73514" data-name="Path 73514" d="M249.617,125.616c2.2-10.012,2.328,4.5,2.415,8.808l1.242,57.85h.417a10.846,10.846,0,0,1,5.84-1.788A10.472,10.472,0,0,1,265,192c.615-5.015.239-21.284.239-38.15,0-13.92,2.016-29.906,2.086-42.2.06-10.589-3.145-25.831-3.162-26.412a27.3,27.3,0,0,1,.169-4.712,1.963,1.963,0,0,1-2.173.337c-3.466-1.75-2.326-11.642-2.326-12.864l.574-7.41a.954.954,0,0,0-.567-.947l-2.029-.892s.48.261.606,1.731a40.784,40.784,0,0,1-.41,4.665c-.57,5.173-3.317,8.04-6.946,8.04a6.57,6.57,0,0,1-6.57-6.57l-.576-6.726-1.594.08a.43.43,0,0,0-.409.43v7.1c.3,11.663-4.253,16.645-4.253,16.645.011.329-1.584,18.866-1.008,27.218.116,1.688,12.617,15.86,12.97,14.254" transform="translate(71.594 608.283)" fill="url(#linear-gradient-3)"/>
      <path id="Path_73525" data-name="Path 73525" d="M233.756,161.829c-2.811,12.148.134,24.625.751,43.7.494,15.273.386,38.374.488,39.818a10.6,10.6,0,0,1-.385,4.745c.483.129.15-.9,3.9-.376,1.524.214,3.529,2.028,7.175,1.082.291-.466,1.509-61.643,2.538-68.313.668-4.337,1.278-8.651,1.563-13Z" transform="translate(73.842 549.846)" fill="url(#linear-gradient-4)"/>
      <path id="Path_73515" data-name="Path 73515" d="M257.115,139.413c-3.2.922.331-8.467-6.708-5.907-2.2.8-3.2,3.3-6.072.849-2.184-1.87-6.057-1-9.246.252-9.116,3.591-7.036,7.57-7.036,7.57Z" transform="translate(76.51 566.153)" fill="#924ad1"/>
      <path id="Path_73516" data-name="Path 73516" d="M264.932,141.533s-4.416,22.2-3.484,21.755l8.335-.953c1.677-.223,2.254-1.788,2.66-3.766l3.747-14.151Zm.105,17.489-.1,0c-.13,0-.207-.3-.17-.679l1.765-12.2c.065-.335.242-.582.395-.551l.116.023c.152.03.221.322.153.654l-1.851,12.062c-.04.375-.178.684-.308.689m1.822-.068-.1,0c-.131.005-.2-.289-.154-.656l2.033-11.76c.072-.322.253-.558.4-.528l.116.023c.151.03.213.312.139.63l-2.113,11.621c-.049.362-.194.661-.325.666m2.165-.711c-.057.349-.209.637-.34.643l-.1,0c-.131.005-.194-.278-.139-.632l2.282-11.319c.078-.309.264-.535.414-.5l.114.023c.15.03.206.3.126.606Zm1.842-.045c-.065.336-.223.615-.354.619l-.1,0c-.132,0-.188-.269-.126-.609l2.512-10.878c.084-.3.273-.511.422-.482l.113.023c.148.03.2.291.114.583Z" transform="translate(57.538 561.351)" fill="#ceb218"/>
      <path id="Path_73526" data-name="Path 73526" d="M223.389,168.191l-.149.025c.2-1.489.394-2.979.461-4.481a23.274,23.274,0,0,1,.931-6.854,1.948,1.948,0,0,1,.208.038,2.5,2.5,0,0,1,1.053.52,3.01,3.01,0,0,1,1.909.446,2.1,2.1,0,0,1,.771.846,2.705,2.705,0,0,1,.595.071,2.38,2.38,0,0,1,1.864,2.131c.472,3.749-3.864,6.553-7.643,7.258" transform="translate(79.124 552.649)" fill="#003185"/>
      <path id="Path_73527" data-name="Path 73527" d="M213.211,136.253s-2.395-3.613-9.3-1.911c-5.283,1.3-3.5-4.405-12.414-1-8.209,3.136-8.58,6.79-8.58,6.79l2.713,7,24.723,2.181Z" transform="translate(101.987 566.618)" fill="#42d1c3"/>
      <path id="Path_73528" data-name="Path 73528" d="M228.4,150.083s-6.289-4.717-19.24-2.47-4.84,7.715,1.41,7.715,23.066-1.143,17.83-5.245" transform="translate(91.021 558.249)" fill="#42d1c3"/>
      <path id="Path_73529" data-name="Path 73529" d="M202.669,147.82H187a2.658,2.658,0,0,0-.423.883l2.713,7,13.375,1.18Z" transform="translate(99.909 557.786)" fill="#42d1c3"/>
      <path id="Path_73530" data-name="Path 73530" d="M229.586,155.546s-13.017,2.012-9.545-3.664c4.062-6.643-15.91,5.832-15.91,5.832v1.42s13.4-5.533,17.4-2.669,7.887,1.228,8.054-.918" transform="translate(89.957 556.589)" fill="#662d91"/>
      <path id="Path_73531" data-name="Path 73531" d="M216.223,163.425s-13.765-7.986-20.314-6.722-13.232,4.184-12.434,4.871-2.892,8.25,2.152,8.056,29.532-1.268,29.532-1.268Z" transform="translate(101.989 552.828)" fill="#003185"/>
      <path id="Path_73532" data-name="Path 73532" d="M217.2,141.505s-3.354,21.847-3.449,21.751h-30.99a3.38,3.38,0,0,1-3.279-2.559l-2.385-19.192Zm-8.328,17.317a.676.676,0,0,0,.676.677h.285a.676.676,0,0,0,.676-.677V146.06a.676.676,0,0,0-.676-.676h-.285a.676.676,0,0,0-.676.676Zm-5.205,0a.677.677,0,0,0,.676.677h.285a.677.677,0,0,0,.677-.677V146.06a.677.677,0,0,0-.677-.676h-.285a.677.677,0,0,0-.676.676Zm-5.205,0a.677.677,0,0,0,.677.677h.284a.677.677,0,0,0,.677-.677V146.06a.677.677,0,0,0-.677-.676h-.284a.677.677,0,0,0-.677.676Zm-5.2,0a.677.677,0,0,0,.677.677h.285a.677.677,0,0,0,.676-.677V146.06a.677.677,0,0,0-.676-.676h-.285a.677.677,0,0,0-.677.676Zm-5.2,0a.677.677,0,0,0,.676.677h.285a.677.677,0,0,0,.676-.677V146.06a.676.676,0,0,0-.676-.676h-.285a.676.676,0,0,0-.676.676Zm-5.2,0a.677.677,0,0,0,.676.677h.285a.677.677,0,0,0,.677-.677V146.06a.677.677,0,0,0-.677-.676h-.285a.676.676,0,0,0-.676.676Z" transform="translate(105.286 561.367)" fill="url(#linear-gradient-5)"/>
      <path id="Path_73533" data-name="Path 73533" d="M217.425,156.012l-3.6-.338V162.7c.751,2.85,4.805,1.686,4.805,1.686s-2.553-4.054-1.2-8.372" transform="translate(84.466 553.334)" fill="#74e2d5"/>
      <path id="Path_73534" data-name="Path 73534" d="M218.931,140.753s-4.866-.77-4.605,2.753c.3,4.055,2.352,5.857,2.352,5.857a14.154,14.154,0,0,0-7.609,1.352c-2.2,1.152-1.3,4.155-1.3,4.155s-1.643-.625-1.258-7.007c.257-4.256-2.407-6.931-4.249-7.259,5.056-1.2,16.67.15,16.67.15" transform="translate(91.019 562.161)" fill="#42d1c3"/>
      <path id="Path_73517" data-name="Path 73517" d="M267.461,52.274c-.848-.106-.956-.718-1.129-1.555a21.08,21.08,0,0,1-.185-5.116l-8.493.328c-.009.207,1.822,6.142-1.2,6.634,0,0,.4,6.5,5.529,6.128,5.181-.375,5.533-6.413,5.481-6.42" transform="translate(60.299 615.738)" fill="#f0ba92"/>
      <path id="Path_73518" data-name="Path 73518" d="M248.107,21.734a23.082,23.082,0,0,0,.063,3.25c.1,1.145.922.828.764,2.1a6.847,6.847,0,0,0,.1,2.418c.72,4.01,2.515,5.358,2.8,5.663,1.845,1.973,2.72,2.084,4.1,2.068a4.089,4.089,0,0,0,3.446-1.385c5.6-5.778,4.859-11.652,4.828-11.965-.059-.586-16.1-2.149-16.1-2.149" transform="translate(65.044 629.269)" fill="#f0cbb0"/>
      <path id="Path_73519" data-name="Path 73519" d="M286.256,114.539c-1.276,3.913-6.625,14.844-7.5,16.435-1.068,1.942-3.52,7.529-5.283,8.812-.994.723-2.691,3.878-2.691,3.878s-.031.625.928.408,1.639-2.048,1.92-1.394c.2.463-.2,2.565-.518,4.109-.1.483-1.217.2-1.049.669.591,1.635,4.713-.108,5.983-1.726a10.335,10.335,0,0,0,.992-3.969,9.774,9.774,0,0,1,1.64-4.486c2.935-4.216,6.695-10.319,8.887-14.37.716-.914-3.308-8.366-3.308-8.366" transform="translate(52.173 576.655)" fill="#f0cbb0"/>
      <path id="Path_73520" data-name="Path 73520" d="M266.793,21.189c-1.635-.016-3.838.246-5.1.155a.328.328,0,0,0-.334.438c.292.812,1.353,1.91,5.221,1.73,3.517-.164,2.934,5.166,3.743,4.647.988-.634.491-3.4,1.429-4.134a.33.33,0,0,0-.014-.54l-2.033-1.333a10.738,10.738,0,0,0-2.915-.964" transform="translate(57.521 629.578)" fill="#1d426d"/>
      <path id="Path_73535" data-name="Path 73535" d="M247.481,23.483c.165.551-.263-.652,1.013-1.516,1.559-1.054,1.957-.656,2.034-.738s.194-.784.279-.822a6.013,6.013,0,0,1,1.29-.4l-4.053-.087c-.5-.011-.643.458-.88.893-.387.712.217,2.336.317,2.671" transform="translate(65.634 630.298)" fill="#1d426d"/>
      <path id="Path_73536" data-name="Path 73536" d="M266.171,35.11a5.473,5.473,0,0,1,2.424-.881" transform="translate(54.786 622.184)" fill="none" stroke="#1d426d" stroke-width="0.3"/>
      <path id="Path_73537" data-name="Path 73537" d="M254.585,35.5a5.264,5.264,0,0,0-2.424-.882" transform="translate(62.727 621.966)" fill="none" stroke="#1d426d" stroke-width="0.3"/>
      <path id="Path_73538" data-name="Path 73538" d="M261.072,38.387l-.333,3.052a.86.86,0,0,0,.679.937,2.134,2.134,0,0,0,1.168,0" transform="translate(57.87 619.829)" fill="none" stroke="#1d426d" stroke-width="0.3"/>
      <path id="Path_73521" data-name="Path 73521" d="M264.108,11.945c-.03.422.166.081-.229-.073a23.639,23.639,0,0,0-4.4-1.281c-12.356-2.312-11.985-.021-11.985-.021l.016-2.433c-.52-2.779,1.273-8.348,8.749-8.13,7.551.546,9.316,5.269,8.452,9.256-.488,2.252-.6,2.682-.6,2.682" transform="translate(65.412 641.591)" fill="#ffcb24"/>
      <path id="Path_73522" data-name="Path 73522" d="M258.589,20.191a37.641,37.641,0,0,0-10.683-1.922c-3.321-.094-5.665-.1-5.868,1.033-.046.251.2.728,0,.7-4.029-.517-6.619-5.317-.992-5.435,7.914-.165,14.567,3.6,17.543,5.62" transform="translate(70.868 633.334)" fill="#45c8ff"/>
      <path id="Path_73523" data-name="Path 73523" d="M283.917,27.691c-.376.39-.431.851-.574,1.761-.124.787-.357,1.8-.357,1.8,1.219-2.4-.031,2.248.021,2.129.065-.149,1.836-3.1,1.8-4.9-.013-.64-.476-1.219-.89-.789" transform="translate(45.254 625.977)" fill="#f0ba92"/>
    </g>
  </g>
</svg>
