<svg xmlns="http://www.w3.org/2000/svg" width="33.1" height="33.1" viewBox="0 0 33.1 33.1">
  <g id="Group_8986" data-name="Group 8986" transform="translate(-718.45 -1013.45)">
    <path id="Path_74178" data-name="Path 74178" d="M16,0A16,16,0,1,1,0,16,16,16,0,0,1,16,0Z" transform="translate(719 1014)" fill="#f1feee"/>
    <ellipse id="Ellipse_130" data-name="Ellipse 130" cx="12.5" cy="15" rx="12.5" ry="15" transform="translate(719 1015)" fill="#0af" opacity="0.15"/>
    <ellipse id="Ellipse_131" data-name="Ellipse 131" cx="9.002" cy="12" rx="9.002" ry="12" transform="translate(719 1018)" fill="#0af" opacity="0.25"/>
    <g id="Group_8981" data-name="Group 8981">
      <path id="Path_73925" data-name="Path 73925" d="M16.09,18.625a.722.722,0,1,1-.721.722A.722.722,0,0,1,16.09,18.625Z" transform="translate(719.098 1014.217)" fill="none" stroke="#16356a" stroke-linecap="round" stroke-width="1.1"/>
      <path id="Path_73926" data-name="Path 73926" d="M22.868,22.033a1.353,1.353,0,0,1-1.354,1.354H11.379a1.354,1.354,0,0,1-1.354-1.354V15.311a1.354,1.354,0,0,1,1.354-1.354H21.514a1.353,1.353,0,0,1,1.354,1.354v4.021" transform="translate(718.739 1013.908)" fill="none" stroke="#16356a" stroke-linecap="round" stroke-width="1.1"/>
      <path id="Path_73927" data-name="Path 73927" d="M19.752,14.105v-2.98a3.489,3.489,0,1,0-6.977,0v2.98" transform="translate(718.924 1013.773)" fill="none" stroke="#16356a" stroke-linecap="round" stroke-width="1.1"/>
    </g>
    <g id="Group_8955" data-name="Group 8955" transform="translate(66.278 -196.586)">
      <g id="Group_8954" data-name="Group 8954" transform="translate(652.722 1210.586)">
        <circle id="Ellipse_85" data-name="Ellipse 85" cx="16" cy="16" r="16" fill="none" stroke="#0af" stroke-width="1.1"/>
      </g>
    </g>
  </g>
</svg>
