<svg xmlns="http://www.w3.org/2000/svg" xmlns:xlink="http://www.w3.org/1999/xlink" width="34" height="34" viewBox="0 0 34 34">
  <defs>
    <linearGradient id="linear-gradient" x1="0.923" x2="0.05" y2="1" gradientUnits="objectBoundingBox">
      <stop offset="0" stop-color="#f8fff4"/>
      <stop offset="1" stop-color="#cef4ff"/>
    </linearGradient>
  </defs>
  <g id="Group_9039" data-name="Group 9039" transform="translate(-11.423)">
    <path id="Path_73995" data-name="Path 73995" d="M17,0A17,17,0,1,1,0,17,17,17,0,0,1,17,0Z" transform="translate(11.423)" fill="url(#linear-gradient)"/>
    <g id="Group_9032" data-name="Group 9032" transform="translate(20.254 6.697)">
      <path id="Path_73735" data-name="Path 73735" d="M3.189,11.435H2.044A1.608,1.608,0,0,1,.45,9.813c0-.9.791-1.283,1.312-1.559L8.17,4.814a.774.774,0,0,0,.408-.684,1,1,0,0,0-.6-.891,1.467,1.467,0,0,1-.812-1.675A1.43,1.43,0,0,1,10,1.907" transform="translate(-0.45 -0.45)" stroke="#21436d" stroke-width="0.75" fill="url(#linear-gradient)"/>
      <path id="Path_73736" data-name="Path 73736" d="M15.761,8.129l6.012,3.01c.969.488,1.594.726,1.594,1.622a1.608,1.608,0,0,1-1.594,1.622h-1.2" transform="translate(-6.489 -3.398)" stroke="#21436d" stroke-width="0.75" fill="url(#linear-gradient)"/>
      <path id="Path_73737" data-name="Path 73737" d="M16.345,24.927H5.1V16.1A1.341,1.341,0,0,1,6.43,14.75h8.587A1.34,1.34,0,0,1,16.345,16.1v6.82" transform="translate(-2.285 -5.94)" stroke="#0af" stroke-width="0.75" fill="url(#linear-gradient)"/>
      <line id="Line_60" data-name="Line 60" x2="9.473" transform="translate(4.588 16.982)" fill="none" stroke="#0af" stroke-width="0.75"/>
    </g>
  </g>
</svg>
