<svg xmlns="http://www.w3.org/2000/svg" xmlns:xlink="http://www.w3.org/1999/xlink" width="129.029" height="21.259" viewBox="0 0 129.029 21.259">
  <defs>
    <clipPath id="clip-path">
      <rect id="Rectangle_2467" data-name="Rectangle 2467" width="129.03" height="21.26" fill="none"/>
    </clipPath>
  </defs>
  <g id="Group_7657" data-name="Group 7657" clip-path="url(#clip-path)">
    <path id="Path_72913" data-name="Path 72913" d="M9.673,35.068a4.837,4.837,0,1,1-4.838-4.849,4.82,4.82,0,0,1,4.838,4.849" transform="translate(0 -19.014)" fill="#fff"/>
    <path id="Path_72914" data-name="Path 72914" d="M50.673,19.221q-3.126-6.289-6.207-12.6a14.392,14.392,0,0,0-3.772-5.176A6.183,6.183,0,0,0,37.118.009C33.9-.18,30.889,2.817,29.657,5.036a3.131,3.131,0,0,1,2.818.465,5.217,5.217,0,0,1,1.671,1.951c1.315,2.661,2.573,5.351,3.91,8,1.4,2.774,3.452,4.775,6.669,5.271a9.437,9.437,0,0,0,5.678-.667c.437-.21.486-.4.27-.836M28.29,6.363a14.56,14.56,0,0,0-3.238-4.584A5.923,5.923,0,0,0,19.373.2a8.434,8.434,0,0,0-3.856,2.373A12.582,12.582,0,0,0,13.583,5.01c2.307-1.242,3.719,1.1,4.668,2.878,5.161,12.2,7.673,12.638,11.163,12.937a9.115,9.115,0,0,0,4.966-.781c.406-.2.469-.383.26-.8q-3.2-6.429-6.35-12.879" transform="translate(-8.547 0)" fill="#0af"/>
    <path id="Path_72915" data-name="Path 72915" d="M153.628,7.32a4.384,4.384,0,0,0-3.86,1.757,3.96,3.96,0,0,0-3.488-1.757,4.086,4.086,0,0,0-3.567,1.6V7.692H138.72V21h3.993V13.5c0-1.571.745-2.5,2.076-2.5,1.278,0,1.917.852,1.917,2.183V21H150.7V13.5c0-1.571.746-2.5,2.077-2.5,1.278,0,1.917.852,1.917,2.183V21h3.994V12.831c0-3.328-2-5.511-5.059-5.511m14.566,0a6.825,6.825,0,0,0-7.082,7.029c0,3.967,2.822,7.028,7.374,7.028a6.756,6.756,0,0,0,5.8-2.742L171.1,16.8a3.475,3.475,0,0,1-2.556,1.012c-1.464,0-2.689-.479-3.195-1.864H174.8a7.746,7.746,0,0,0,.16-1.6,6.721,6.721,0,0,0-6.762-7.029m-2.928,5.644a3,3,0,0,1,5.724,0Zm15.945-2.9V7.692h-3.994V21h3.994V14.987c0-2.636,2.343-3.3,3.993-3.035V7.426a4,4,0,0,0-3.993,2.636m10.2,0V7.692h-3.994V21h3.994V14.987c0-2.636,2.343-3.3,3.993-3.035V7.426a4,4,0,0,0-3.993,2.636M197.971,21h3.994V7.693h-3.994Zm4.606-18.255A2.563,2.563,0,1,1,200.014.186a2.563,2.563,0,0,1,2.563,2.563M205.145,21h3.994V.186h-3.994Zm7.175,0h3.994V.186H212.32Z" transform="translate(-87.285 -0.117)" fill="#fff"/>
  </g>
</svg>
