<svg xmlns="http://www.w3.org/2000/svg" xmlns:xlink="http://www.w3.org/1999/xlink" width="111" height="111" viewBox="0 0 123 123">
  <defs>
    <linearGradient id="linear-gradient" x1="0.5" x2="0.5" y2="1" gradientUnits="objectBoundingBox">
      <stop offset="0" stop-color="#0af" stop-opacity="0.345"/>
      <stop offset="1" stop-color="#89d5f8"/>
    </linearGradient>
    <clipPath id="clip-path">
      <circle id="Ellipse_124" data-name="Ellipse 124" cx="55.5" cy="55.5" r="55.5" transform="translate(626.094 1925.094)" fill="#fff" stroke="#707070" stroke-width="1"/>
    </clipPath>
    <linearGradient id="linear-gradient-2" x1="0.5" x2="0.5" y2="1" gradientUnits="objectBoundingBox">
      <stop offset="0" stop-color="#0af" stop-opacity="0.141"/>
      <stop offset="1" stop-color="#dbf3fe"/>
    </linearGradient>
    <clipPath id="clip-path-2">
      <rect id="Rectangle_3154" data-name="Rectangle 3154" width="7.838" height="16.476" stroke="rgba(0,0,0,0)" stroke-width="1" fill="url(#linear-gradient)"/>
    </clipPath>
    <linearGradient id="linear-gradient-5" x1="0.5" x2="0.5" y2="1" gradientUnits="objectBoundingBox">
      <stop offset="0" stop-color="#0af" stop-opacity="0.537"/>
      <stop offset="1" stop-color="#8fc3db"/>
    </linearGradient>
  </defs>
  <g id="Group_9345" data-name="Group 9345" transform="translate(-541 -1879)">
    <g id="Ellipse_123" data-name="Ellipse 123" transform="translate(547 1885)" fill="#fff" stroke="#fff" stroke-width="6">
      <circle cx="55.5" cy="55.5" r="55.5" stroke="none"/>
      <circle cx="55.5" cy="55.5" r="58.5" fill="none"/>
    </g>
    <g id="Mask_Group_13" data-name="Mask Group 13" transform="translate(-79.094 -40.094)" clip-path="url(#clip-path)">
      <g id="Group_9332" data-name="Group 9332" transform="translate(581.343 1877.541)">
        <path id="Path_74176" data-name="Path 74176" d="M61.408,0H96.5a61.408,61.408,0,0,1,0,122.815H61.408A61.408,61.408,0,0,1,61.408,0Z" transform="translate(0 35.737)" fill="#d4f6ff" opacity="0.901"/>
        <g id="Group_9353" data-name="Group 9353" transform="translate(-1165.699 -2076.877)">
          <g id="Group_8932" data-name="Group 8932" transform="translate(1216.847 2142.528)">
            <g id="Group_8926" data-name="Group 8926" transform="translate(0)">
              <g id="Group_7755" data-name="Group 7755">
                <path id="Path_73608" data-name="Path 73608" d="M98.834,280.141h7.838v-55.2H98.834Z" transform="translate(-91.356 -129.757)" fill="url(#linear-gradient-2)"/>
                <path id="Path_73616" data-name="Path 73616" d="M277.281,358.506c-1.782,3.19-3.658,3.565-6.7,5.16-.671.352-1.5.437-2.006,1.023a1.7,1.7,0,0,0-.129,2.15,2.274,2.274,0,0,0,1.766.5c5.45-.066,14.713-.441,16.1-.686.438-.077.591-.784.558-1.242-.086-1.232-.054-2.863-.7-3.9-.125-.2-.273.015-.49-.063a1.073,1.073,0,0,0-.614.027c-1.17.284-2.395-2.5-3.565-2.218" transform="translate(-189.008 -206.809)" fill="#36bcff"/>
                <path id="Path_73617" data-name="Path 73617" d="M219.264,364.935c-7.035,3.565-9.568,4.942-10.1,5.528a1.638,1.638,0,0,0-.135,2.149,2.47,2.47,0,0,0,1.847.5q8.393-.049,16.776-.532a1.4,1.4,0,0,0,.672-.154,1.3,1.3,0,0,0,.406-1.242,7.428,7.428,0,0,0-1.168-3.476,1.1,1.1,0,0,0-.513-.486,1.18,1.18,0,0,0-.642.028l-3.669.852" transform="translate(-154.725 -210.519)" fill="#0af"/>
                <rect id="Rectangle_3513" data-name="Rectangle 3513" width="1.548" height="12.523" transform="translate(63.881 46.971)" fill="#1d426d"/>
                <path id="Path_73609" data-name="Path 73609" d="M234.484,186.9c.3,1.832-2.613,4.087-6.5,5.038s-7.276.235-7.572-1.6,2.613-4.088,6.5-5.038,7.276-.235,7.572,1.6" transform="translate(-161.478 -106.655)" fill="#175587"/>
                <path id="Path_73592" data-name="Path 73592" d="M237.766,70.042a1.14,1.14,0,1,1-1.1-1.435,1.3,1.3,0,0,1,1.1,1.435" transform="translate(-170.232 -39.577)" fill="#296da5"/>
                <path id="Path_73593" data-name="Path 73593" d="M236.779,22.07a3.406,3.406,0,0,0-.943-1.7,3.6,3.6,0,0,0-2.081-.672c-1.816-.15-4.871-2.945-6.635-2.486a19.194,19.194,0,0,0-.737,3.086c-.151,1.326.16,2.361-.051,2.642-.3.643-2.794,3.5-3,3.848-.412.7.182,1.116.917,1.52,1.394.766-.061,3.85.429,4.576,1.118,1.659,4.365,1.673,5.222,3.481a4,4,0,0,1,.089,2.42c-.27,1.5-.614,2.985-1.021,4.453a1.7,1.7,0,0,1,.871-.478,53.251,53.251,0,0,1,9.011-1.348c-.691-4.31-.718-5.885.11-8.619.559-1.844-1.648-8.874-2.185-10.725" transform="translate(-163.098 -9.9)" fill="#f0cbb0"/>
                <path id="Path_73594" data-name="Path 73594" d="M236.531,79.243c.044-.15.083-.3.124-.453a.53.53,0,0,0-.124.453" transform="translate(-170.782 -45.452)" fill="#ceb399"/>
                <path id="Path_73595" data-name="Path 73595" d="M236.531,79.243c.044-.15.083-.3.124-.453a.53.53,0,0,0-.124.453" transform="translate(-170.782 -45.452)" fill="#c6a081"/>
                <path id="Path_73596" data-name="Path 73596" d="M194.8,67.252a48.964,48.964,0,0,1-26.024-18.4,1.185,1.185,0,0,1-.264-.561.976.976,0,0,1,.209-.614,3.622,3.622,0,0,1,3.969-1.088,13.34,13.34,0,0,1,3.8,2.177c5.729,4,12.556,7.824,21.173,8.807" transform="translate(-131.544 -26.772)" fill="#36bcff"/>
                <path id="Path_73597" data-name="Path 73597" d="M235.474,145c5.714,40.606,17.87,53.93,23.07,84.384,0,.563,2.158-.093,5.159,3.471,1.463,1.737,4.077.361,4.128-.094-1.694-9.159-2.434-22.3-4.129-31.457-1.442-7.8-5.794-17.191-5.577-24.993.275-9.889,2.612-13.874,1.385-23.822-.768-6.225-3.128-12.163-5.457-17.983" transform="translate(-170.181 -77.589)" fill="#185d95"/>
                <path id="Path_73588" data-name="Path 73588" d="M250.923,78.591c.281-3.307-2.392-12.592-7.387-17.235-.372-.345,1.27,1.7-8.313,2.316-.538.034-1.507,2.012-2.364,2.711,1.511.068-2.159,8.918-.3,18.54,3.307,17.1,17.9-.908,18.363-6.332" transform="translate(-168.186 -35.372)" fill="#36bcff"/>
                <path id="Path_73589" data-name="Path 73589" d="M249.482,76.748c-.633,2.556-4.173,2.374-5.6,0-.76-1.267-3.693-9.51-8.643-9.992-1.183-.088-3.68.832-4.074,1.883a6.773,6.773,0,0,1,2.271-.611c6.949-.338,7.817,12.5,7.931,18.294.187,9.568-9.4,6.66-10.2.891-.1-.755.311,10.9.07,10.272,0,0,.748,65.294-.657,96.189,4.409-.469,3.564,6.191,10.076,2.425.263-9.316,1.125-19.442,1.388-28.757.223-7.93,3.158-30.139,5.414-37.767,1.073-3.626,3.715-3.984,5.279-3.655,2.572.542,3.128,6.154,3.655,2.436,2.166-15.3-1.706-24.209-2.96-28.711" transform="translate(-167.354 -38.504)" fill="#1d426d"/>
                <path id="Path_73590" data-name="Path 73590" d="M232.65,21.922c.372.913.79,1.813,1.062,2.665.379,1.188-.279,3.828.964,3.918.328.024,1.139-1.644,2.353-1.167.267.1.337.458.392.74.509,2.6,1.133,10.129,5.842,9.9,1.313-.064,1.127-1.7,1.953-2.872,1.057-1.5,2.994-2.552,4.286-3.847-4.472-1.364-14.931-8.625-16.852-9.336" transform="translate(-168.552 -12.644)" fill="#1d426d"/>
                <path id="Path_73598" data-name="Path 73598" d="M106.672,108.278V45.838a4.319,4.319,0,0,1,4.314-4.314h22.864V33.686H110.986A12.166,12.166,0,0,0,98.834,45.838v62.44Z" transform="translate(-91.356 -19.432)" fill="url(#linear-gradient-2)"/>
                <g id="Group_8645" data-name="Group 8645" transform="translate(7.477 81.389)">
                  <g id="Group_7743" data-name="Group 7743" clip-path="url(#clip-path-2)">
                    <rect id="Rectangle_3153" data-name="Rectangle 3153" width="7.838" height="16.476" transform="translate(0)" stroke="rgba(0,0,0,0)" stroke-width="1" fill="url(#linear-gradient)"/>
                  </g>
                </g>
                <path id="Path_73599" data-name="Path 73599" d="M173.309,41.18H162.9a1.269,1.269,0,0,1-1.269-1.269V32.717a1.269,1.269,0,0,1,1.269-1.269h10.407a1.269,1.269,0,0,1,1.269,1.269v7.193a1.269,1.269,0,0,1-1.269,1.269" transform="translate(-127.584 -18.141)" fill="url(#linear-gradient-5)"/>
                <path id="Path_73591" data-name="Path 73591" d="M247.349,24.858s-5.163,2.937-10.329-5.611a13.8,13.8,0,0,0-5.686-5.341,19.315,19.315,0,0,1,9.448-5.111c2.757-.488,14.013,6.088,7.955,15.191" transform="translate(-167.789 -5.058)" fill="#ffcb24"/>
                <path id="Path_73600" data-name="Path 73600" d="M231.695,4.626c-2.268-1.813-7.656-6.53-10.584-3.79-3.867,3.618,5.329,9.132,5.329,9.132s-.257-3.117,5.255-5.341" transform="translate(-161.346 0.001)" fill="#36bcff"/>
                <path id="Path_73601" data-name="Path 73601" d="M160.446,40.151a.655.655,0,0,0,.732-.395l.845-1.366s-.532-2.042-.845-2.191c-1.782-.381-2.56-.448-4.021-.746a3.775,3.775,0,0,1,2-1,4.456,4.456,0,0,1,4.2,1.577,3.969,3.969,0,0,1,.568,4.4,8.091,8.091,0,0,0-.862,2.485,3.7,3.7,0,0,1-.961,2.323c-.181.2-.281.233-.518.139-.727-.289-1.469-.542-2.2-.821a.6.6,0,0,0-.862.345c-.107.229-.207.464-.291.7a.686.686,0,0,0,.41.958c.467.2.936.4,1.408.588,1.068.425,1.085.429.676,1.5a23.574,23.574,0,0,1-1.189,2.87,1.245,1.245,0,0,1-2.326-.885,4.667,4.667,0,0,1,.193-.616c.228-.636.461-1.269.711-1.955-.685.223-.838.788-1.045,1.274-.89,2.087-1.757,4.183-2.621,6.281-1.2,2.912-2.385,5.83-3.583,8.742-.124.3-.208.715-.586.746a2.408,2.408,0,0,1-1.624-.563c-.4-.3-.137-.724-.009-1.081q3.842-10.723,7.692-21.442c.237-.663.74-1.368-.261-1.886a.473.473,0,0,1-.194-.572c.127-.262,3.723.424,4.57.591" transform="translate(-119.97 -19.846)" fill="#1d426d"/>
                <path id="Path_73602" data-name="Path 73602" d="M172.871,59.048a1.475,1.475,0,0,0-.509,1.107c-.023.319.244.461.506.563.635.248,1.274.485,1.9.74.519.21.749-.086.945-.491s.276-.826-.185-1.068a12.183,12.183,0,0,0-2.283-.88,1.082,1.082,0,0,0-.379.028" transform="translate(-133.773 -34.04)" fill="#1d426d"/>
                <path id="Path_73603" data-name="Path 73603" d="M174.331,102.621c-1.734,1.91-3.362,2.365-4.234,1.574s-.659-2.532,1.076-4.442,3.65-2.639,4.522-1.847.37,2.8-1.364,4.715" transform="translate(-132.174 -56.297)" fill="#1d426d"/>
                <path id="Path_73604" data-name="Path 73604" d="M195.629,70.611c-1.764,1.117-2.695,1.891-5.137,5.923-1.707,2.819-3.643,7.507-5.53,10.646a1.245,1.245,0,0,1-1.732.407c-2.2-1.392-7.267-4.621-9.119-6.065-1.528-1.191-5.357,2.973-3.575,4.989,2.56,2.9,6.08,7.026,8.63,8.959s4.891,4.363,7.977,3.515c3.137-.862,5.4-3.538,7.285-6.193l.006-.009.031-.018c.255-.279,12.385-12.861,8.34-20.888,0,0-2.955-3.94-7.176-1.266" transform="translate(-132.451 -40.197)" fill="#0af"/>
                <path id="Path_73605" data-name="Path 73605" d="M156.225,73.829a2.9,2.9,0,0,0-3.589-1.409c-4.352,1.664-4.755,9.855-2.606,8.8.4-.2.644-1.354,1.957.455a8.886,8.886,0,0,0,2.053,2.1c1.715,1.045,3.787,5.566,3.766,5.389-.374-3.168,3.334-6.772,5.723-6-3.61-1.81-4.167-2.464-4.725-3.1s-.87-3.154-2.581-6.234" transform="translate(-120.156 -41.666)" fill="#1d426d"/>
                <path id="Path_73610" data-name="Path 73610" d="M240.862,184.6h-2.577v-.042h2.577Zm.034-.579-2.615-.149,0-.021c.013-.237.03-.482.059-.728l0-.021,2.6.3,0,.021c-.021.2-.038.394-.047.58Zm.131-1.151-2.581-.449V182.4c.042-.241.089-.47.143-.7l-.063-.03.089,0,0,0,2.53.588,0,.017c-.047.195-.085.385-.119.571Zm.259-1.13-.021,0L238.772,181l.008-.021c.072-.245.144-.47.224-.694l.008-.017,2.467.88-.008.021c-.068.182-.127.368-.182.55Zm.389-1.092-2.412-1.024.009-.021c.093-.216.195-.44.3-.664l.013-.017,2.344,1.164-.009.017c-.084.169-.165.347-.241.529Zm.512-1.041-.017-.008-2.259-1.286.009-.017c.123-.212.25-.423.381-.626l.025-.008,0,0,2.174,1.418,0,.013c-.1.152-.2.317-.3.5Zm.627-.973-2.111-1.549.013-.017c.144-.195.292-.385.449-.575l.013-.017,2.023,1.667-.013.017c-.123.148-.245.3-.36.457Zm.736-.9-.012-.013-1.908-1.764.017-.017c.17-.182.339-.36.508-.52l.017-.017,1.815,1.887-.013.017c-.127.123-.262.259-.406.415Zm.859-.779-.038-.042-1.692-1.972.017-.013c.181-.157.372-.308.567-.457l.017-.013,1.6,2.1h-.038c-.144.11-.292.228-.436.351Zm.9-.732-1.468-2.166.017-.013c.19-.131.4-.262.614-.393l.021-.009,1.341,2.251-.021.008c-.152.094-.313.195-.487.313Zm.99-.592-1.21-2.323.021-.008c.216-.114.436-.22.656-.322l.021-.008,1.071,2.391-.017.008q-.273.121-.521.254Zm1.054-.474-.931-2.45.017-.008c.22-.081.444-.161.689-.237l.021-.008,0,.021.787,2.475-.021.009c-.178.055-.355.118-.546.191Zm1.109-.33,0-.021-.034.009.025-.039-.639-2.513.021,0c.232-.059.474-.11.71-.157l.026.017.5,2.552h-.021c-.2.038-.381.08-.559.127Zm1.13-.245-.347-2.6h.021q.362-.051.724-.076l.021,0,.2,2.615h-.021c-.2.017-.389.034-.575.059Zm1.176-.093-.022-.021-.05-2.6h.279l.022.021-.022,2.6h-.207Z" transform="translate(-171.796 -99.149)" fill="#1f7fbf"/>
                <path id="Path_73611" data-name="Path 73611" d="M240.083,181.829l-1.456.776-1.542-.961.061-1.815,1.5-.8a2.553,2.553,0,0,0-2.6,4.366l-.844,8.87,1.685.161.812-8.535a2.551,2.551,0,0,0,2.381-2.063" transform="translate(-169.912 -103.139)" fill="#ffcb24"/>
                <path id="Path_73612" data-name="Path 73612" d="M219.708,183.965c-2.971-4.05-3.483-6.622-3.15-8.652-.457-.344-.941-.639-1.478-.966-.265-.161-.542-.33-.834-.515a4.013,4.013,0,0,1-1.95-3.9,3.253,3.253,0,0,1,5.75-1.732,3.916,3.916,0,0,1,.537,4.3l-.122.271a12.8,12.8,0,0,0-.821,2.157c1.327,1.151,2.511,2.933,4.009,7.118l-.917.328c-1.244-3.475-2.221-5.177-3.271-6.267-.089,1.743.582,3.94,3.032,7.281Zm-4.2-15.975a2.207,2.207,0,0,0-.651.1,2.33,2.33,0,0,0-1.592,1.971,3.01,3.01,0,0,0,1.507,2.949c.286.181.558.348.819.506.43.262.831.507,1.216.772a16.769,16.769,0,0,1,.769-1.915l.121-.269a2.967,2.967,0,0,0-.378-3.26,2.429,2.429,0,0,0-1.811-.854" transform="translate(-156.788 -96.344)" fill="#1f7fbf"/>
                <path id="Path_73613" data-name="Path 73613" d="M231.79,211.609l.994-13.7s-.992.628-6.984,1.374c-1.913.238-4.921.375-5.319-1.356,0,0,4.086,15.553,4.649,24.746,0,0,6.66,1.313,6.66-11.069" transform="translate(-161.53 -114.17)" fill="#ffcb24"/>
                <path id="Path_73606" data-name="Path 73606" d="M173.24,37.621l-2.567-.409-1.637,2.018.755,1.972.174.455,2.567.409,1.638-2.018Z" transform="translate(-131.855 -21.466)" fill="url(#linear-gradient-5)"/>
                <path id="Path_73607" data-name="Path 73607" d="M172.29,41.911l-2.808-.442-1.017-2.619,1.792-2.178,2.807.441,1.017,2.619Zm-2.5-.815,2.326.366,1.483-1.8-.842-2.169-2.326-.365-1.483,1.8Z" transform="translate(-131.523 -21.153)" fill="#1d426d"/>
                <path id="Union_9" data-name="Union 9" d="M19.1,22.326V14.594H16.686v2.073c0,.517-.567.938-1.27.938H7.377c-.7,0-1.267-.421-1.267-.938v-.5H0V6.582H6.14a1.241,1.241,0,0,1,1.237-.737h8.038c.7,0,1.27.422,1.27.938V8.855H19.1V1.126a1.127,1.127,0,0,1,2.254,0v21.2a1.127,1.127,0,0,1-2.254,0Z" transform="translate(0 77.9)" fill="url(#linear-gradient-5)"/>
              </g>
            </g>
          </g>
        </g>
      </g>
    </g>
  </g>
</svg>
