<svg id="twitter" xmlns="http://www.w3.org/2000/svg" width="16.242" height="13.347" viewBox="0 0 16.242 13.347">
  <g id="Group_21" data-name="Group 21">
    <path id="Path_13" data-name="Path 13" d="M389.275,3211.623a6.591,6.591,0,0,1-1.914.531,3.371,3.371,0,0,0,1.465-1.864,6.625,6.625,0,0,1-2.116.818,3.31,3.31,0,0,0-2.432-1.064,3.351,3.351,0,0,0-3.332,3.369,3.432,3.432,0,0,0,.086.768,9.426,9.426,0,0,1-6.868-3.521,3.4,3.4,0,0,0,1.031,4.5,3.3,3.3,0,0,1-1.509-.422c0,.014,0,.029,0,.043a3.364,3.364,0,0,0,2.673,3.3,3.293,3.293,0,0,1-.878.118,3.239,3.239,0,0,1-.627-.061,3.342,3.342,0,0,0,3.113,2.341,6.638,6.638,0,0,1-4.138,1.442,6.782,6.782,0,0,1-.795-.046,9.355,9.355,0,0,0,5.108,1.514,9.472,9.472,0,0,0,9.48-9.587q0-.219-.009-.436A6.808,6.808,0,0,0,389.275,3211.623Z" transform="translate(-373.033 -3210.044)" fill="#0af"/>
  </g>
</svg>
