<svg id="youtube" xmlns="http://www.w3.org/2000/svg" width="19.38" height="13.458" viewBox="0 0 19.38 13.458">
  <g id="Group_23" data-name="Group 23">
    <path id="Path_14" data-name="Path 14" d="M583.6,3216.541a15.786,15.786,0,0,0-.74-5.374,1.963,1.963,0,0,0-1.651-1.122s-.585-.043-.894-.056c0,0-4.107-.1-6.406-.1s-6.406.1-6.406.1c-.308.013-.894.056-.894.056a1.8,1.8,0,0,0-1.651,1.122,15.789,15.789,0,0,0-.739,5.374c0,.025,0,.133,0,.158a15.791,15.791,0,0,0,.739,5.375,1.784,1.784,0,0,0,1.651,1.122s.585.043.894.056c0,0,4.107.1,6.406.1s6.406-.1,6.406-.1c.308-.013.894-.056.894-.056a1.859,1.859,0,0,0,1.651-1.122,15.787,15.787,0,0,0,.74-5.375Zm-11.725,3.686v-7.215l5.509,3.559Z" transform="translate(-564.219 -3209.89)" fill="#0af"/>
  </g>
</svg>
